{"glyphs":{"0":{"ha":847,"x_min":99,"x_max":743,"o":"m 421 1024 q 667 889 590 1024 q 743 515 743 754 q 667 142 743 276 q 421 7 590 7 q 175 142 251 7 q 99 515 99 276 q 175 889 99 754 q 421 1024 251 1024 m 421 50 q 626 156 551 50 q 701 515 701 263 q 421 982 701 982 q 140 515 140 982 q 219 158 140 265 q 421 50 297 50 z "},"1":{"ha":747,"x_min":113,"x_max":644,"o":"m 115 25 l 115 65 l 382 65 l 382 940 q 124 778 263 808 l 113 813 q 274 892 208 838 q 375 1006 340 946 l 421 1006 l 421 65 l 644 65 l 644 25 l 115 25 z "},"2":{"ha":796,"x_min":117,"x_max":696,"o":"m 696 751 q 577 467 696 626 q 178 67 458 308 l 694 67 l 694 25 l 124 25 l 124 75 q 445 374 329 251 q 608 585 561 497 q 656 750 656 672 q 624 869 656 815 q 534 954 592 924 q 400 985 476 985 q 151 872 256 985 l 117 897 q 403 1024 235 1024 q 558 987 492 1024 q 660 888 624 950 q 696 751 696 825 z "},"3":{"ha":757,"x_min":88,"x_max":671,"o":"m 124 149 q 214 81 153 113 q 361 50 275 50 q 555 113 481 50 q 629 282 629 175 q 596 388 629 336 q 496 474 563 440 q 335 508 429 508 l 210 508 l 210 551 l 331 551 q 484 583 419 551 q 582 667 549 615 q 615 776 615 718 q 544 926 615 871 q 363 981 472 981 q 229 953 281 981 q 142 889 178 925 l 108 915 q 209 988 144 954 q 363 1022 274 1022 q 517 990 450 1022 q 620 902 583 958 q 657 776 657 846 q 624 655 657 707 q 546 572 592 603 q 458 531 500 542 q 603 448 536 508 q 671 283 671 388 q 632 139 671 201 q 524 42 593 76 q 364 7 454 7 q 188 45 257 7 q 88 124 118 83 l 124 149 z "},"4":{"ha":796,"x_min":71,"x_max":738,"o":"m 582 1006 l 582 318 l 738 318 l 738 278 l 582 278 l 582 25 l 543 25 l 543 278 l 71 278 l 71 324 l 525 1006 l 582 1006 m 543 963 l 113 318 l 543 318 l 543 963 z "},"5":{"ha":747,"x_min":90,"x_max":651,"o":"m 118 104 q 321 47 200 47 q 536 119 458 47 q 614 310 614 192 q 537 505 614 438 q 326 572 460 572 q 135 550 224 572 l 135 1006 l 610 1006 l 610 965 l 175 965 l 175 600 q 329 613 265 613 q 563 535 475 613 q 651 318 651 457 q 564 90 651 174 q 328 7 476 7 q 90 71 174 7 l 118 104 z "},"6":{"ha":792,"x_min":99,"x_max":701,"o":"m 99 333 q 190 721 99 571 q 377 933 282 871 q 538 1019 472 996 l 542 979 q 397 899 476 957 q 246 741 317 842 q 147 500 175 640 q 190 544 156 514 q 279 602 224 575 q 401 629 335 629 q 556 591 488 629 q 663 483 624 553 q 701 318 701 413 q 624 90 701 174 q 401 7 546 7 q 174 93 250 7 q 99 333 99 179 m 400 46 q 596 121 528 46 q 664 318 664 196 q 596 513 664 436 q 403 590 528 590 q 273 559 335 590 q 174 467 211 528 q 136 324 136 406 q 204 123 136 200 q 400 46 272 46 z "},"7":{"ha":740,"x_min":88,"x_max":656,"o":"m 656 954 l 278 25 l 236 25 l 614 957 l 88 957 l 88 999 l 656 999 l 656 954 z "},"8":{"ha":796,"x_min":89,"x_max":694,"o":"m 508 536 q 592 494 550 525 q 665 410 635 464 q 694 285 694 357 q 654 138 694 201 q 545 41 614 75 q 392 7 476 7 q 238 40 307 7 q 129 135 169 72 q 89 285 89 199 q 118 410 89 357 q 190 494 147 464 q 272 536 232 525 q 165 615 213 556 q 117 764 117 675 q 154 903 117 844 q 255 993 192 963 q 392 1024 318 1024 q 528 990 465 1024 q 629 898 592 957 q 667 764 667 839 q 619 618 667 676 q 508 536 571 560 m 156 765 q 219 613 156 671 q 392 556 282 556 q 565 613 501 556 q 628 764 628 669 q 598 876 628 825 q 514 956 568 926 q 392 985 460 985 q 219 922 283 985 q 156 765 156 860 m 392 47 q 520 74 460 47 q 618 153 581 100 q 656 285 656 207 q 590 451 656 388 q 392 514 525 514 q 194 450 261 514 q 128 285 128 386 q 163 156 128 210 q 259 75 199 103 q 392 47 319 47 z "},"9":{"ha":772,"x_min":81,"x_max":683,"o":"m 683 692 q 594 305 683 454 q 413 94 506 156 q 257 10 321 32 l 240 46 q 401 131 317 68 q 553 299 486 194 q 639 540 619 404 q 599 488 635 524 q 506 424 563 453 q 381 396 449 396 q 226 434 294 396 q 119 542 158 472 q 81 707 81 613 q 118 872 81 801 q 224 980 156 942 q 381 1018 292 1018 q 604 931 525 1018 q 683 692 683 843 m 382 979 q 186 904 254 979 q 118 707 118 829 q 186 512 118 589 q 379 435 254 435 q 509 466 447 435 q 608 558 571 497 q 646 701 646 619 q 578 902 646 825 q 382 979 510 979 z "}," ":{"ha":278,"x_min":0,"x_max":0,"o":""},"A":{"ha":847,"x_min":53,"x_max":825,"o":"m 782 0 l 676 307 l 203 307 l 96 0 l 53 0 l 411 1031 l 467 1031 l 825 0 l 782 0 m 217 347 l 664 347 l 439 988 l 217 347 z "},"B":{"ha":828,"x_min":101,"x_max":764,"o":"m 101 0 l 101 1031 l 371 1031 q 619 970 540 1031 q 699 774 699 910 q 653 624 699 679 q 539 547 607 569 q 699 462 633 521 q 764 275 764 403 q 678 68 764 136 q 446 0 592 0 l 101 0 m 142 990 l 142 558 l 390 558 q 590 614 518 558 q 661 771 661 669 q 635 897 661 849 q 547 967 610 944 q 371 990 483 990 l 142 990 m 142 518 l 142 40 l 436 40 q 726 281 726 40 q 653 455 726 392 q 458 518 579 518 l 142 518 z "},"C":{"ha":835,"x_min":86,"x_max":779,"o":"m 86 515 q 190 917 86 785 q 481 1049 293 1049 q 615 1032 560 1049 q 697 997 669 1015 q 757 949 724 978 l 729 921 q 486 1011 643 1011 q 215 888 303 1011 q 126 510 126 765 q 215 140 126 258 q 496 22 304 22 q 746 117 656 22 l 779 90 q 488 -18 676 -18 q 185 111 283 -18 q 86 515 86 240 z "},"D":{"ha":860,"x_min":101,"x_max":792,"o":"m 101 0 l 101 1031 l 378 1031 q 683 901 575 1031 q 792 515 792 771 q 678 131 792 261 q 369 0 565 0 l 101 0 m 140 990 l 140 40 l 368 40 q 653 161 553 40 q 753 515 753 282 q 659 872 753 753 q 368 990 565 990 l 140 990 z "},"E":{"ha":806,"x_min":101,"x_max":713,"o":"m 713 0 l 101 0 l 101 1031 l 713 1031 l 713 990 l 142 990 l 142 560 l 625 560 l 625 519 l 140 519 l 140 40 l 713 40 l 713 0 z "},"F":{"ha":771,"x_min":104,"x_max":689,"o":"m 144 0 l 104 0 l 104 1031 l 689 1031 l 689 990 l 144 990 l 144 551 l 601 551 l 601 511 l 144 511 l 144 0 z "},"G":{"ha":878,"x_min":75,"x_max":803,"o":"m 493 1011 q 213 883 311 1011 q 115 515 115 754 q 213 138 115 256 q 513 21 311 21 q 656 42 583 21 q 764 90 729 64 l 764 483 l 471 483 l 471 524 l 803 524 l 803 67 q 681 8 757 33 q 500 -18 606 -18 q 179 112 283 -18 q 75 515 75 242 q 127 813 75 693 q 272 990 179 932 q 486 1049 364 1049 q 624 1032 567 1049 q 717 994 682 1015 q 794 939 751 974 l 767 906 q 658 978 729 944 q 493 1011 588 1011 z "},"H":{"ha":928,"x_min":100,"x_max":828,"o":"m 828 0 l 788 0 l 788 511 l 140 511 l 140 0 l 100 0 l 100 1031 l 140 1031 l 140 553 l 788 553 l 788 1031 l 828 1031 l 828 0 z "},"I":{"ha":264,"x_min":111,"x_max":153,"o":"m 153 0 l 111 0 l 111 1031 l 153 1031 l 153 0 z "},"J":{"ha":583,"x_min":14,"x_max":471,"o":"m 43 71 q 107 40 67 54 q 203 25 147 25 q 431 229 431 25 l 431 1031 l 471 1031 l 471 226 q 411 51 471 121 q 207 -18 351 -18 q 84 0 132 -18 q 14 35 36 18 l 43 71 z "},"K":{"ha":778,"x_min":104,"x_max":718,"o":"m 144 1031 l 144 0 l 104 0 l 104 1031 l 144 1031 m 706 1031 l 240 522 l 718 0 l 665 0 l 190 522 l 653 1031 l 706 1031 z "},"L":{"ha":714,"x_min":103,"x_max":672,"o":"m 143 42 l 672 42 l 672 0 l 103 0 l 103 1031 l 143 1031 l 143 42 z "},"M":{"ha":1158,"x_min":101,"x_max":1056,"o":"m 1013 1031 l 1056 1031 l 1056 0 l 1015 0 l 1015 953 l 599 206 l 557 206 l 142 954 l 142 0 l 101 0 l 101 1031 l 146 1031 l 579 250 l 1013 1031 z "},"N":{"ha":989,"x_min":121,"x_max":869,"o":"m 829 1031 l 869 1031 l 869 0 l 833 0 l 161 953 l 161 0 l 121 0 l 121 1031 l 154 1031 l 829 79 l 829 1031 z "},"O":{"ha":956,"x_min":83,"x_max":872,"o":"m 83 515 q 174 903 83 757 q 478 1049 264 1049 q 782 903 692 1049 q 872 515 872 757 q 478 -18 872 -18 q 172 127 261 -18 q 83 515 83 272 m 478 1011 q 214 894 306 1011 q 122 515 122 778 q 217 135 122 247 q 478 22 313 22 q 739 135 644 22 q 833 515 833 249 q 741 894 833 776 q 478 1011 649 1011 z "},"P":{"ha":818,"x_min":103,"x_max":757,"o":"m 143 406 l 143 0 l 103 0 l 103 1031 l 410 1031 q 667 949 576 1031 q 757 714 757 868 q 667 485 757 564 q 411 406 578 406 l 143 406 m 143 989 l 143 447 l 400 447 q 640 513 563 447 q 718 714 718 578 q 640 920 718 851 q 400 989 561 989 l 143 989 z "},"Q":{"ha":938,"x_min":76,"x_max":865,"o":"m 865 515 q 785 160 865 307 q 535 -11 704 14 l 799 -161 l 779 -192 l 478 -18 q 166 128 256 -17 q 76 515 76 272 q 167 903 76 757 q 471 1049 257 1049 q 778 904 690 1049 q 865 515 865 760 m 118 500 q 209 131 118 235 q 460 26 300 26 q 724 140 625 26 q 824 515 824 253 q 735 895 824 781 q 471 1010 646 1010 q 208 892 297 1010 q 118 500 118 775 z "},"R":{"ha":833,"x_min":103,"x_max":772,"o":"m 725 0 l 500 436 l 143 436 l 143 0 l 103 0 l 103 1031 l 414 1031 q 667 953 578 1031 q 757 728 757 875 q 700 542 757 615 q 542 443 643 469 l 772 0 l 725 0 m 467 476 q 645 541 574 476 q 717 728 717 606 q 640 924 717 858 q 403 989 563 989 l 143 989 l 143 476 l 467 476 z "},"S":{"ha":792,"x_min":46,"x_max":693,"o":"m 350 524 q 180 606 231 576 q 103 676 129 635 q 78 786 78 717 q 117 922 78 863 q 228 1015 157 982 q 393 1049 300 1049 q 685 946 572 1049 l 656 917 q 540 989 608 964 q 403 1014 472 1014 q 243 983 308 1014 q 146 901 178 953 q 114 789 114 850 q 139 696 114 732 q 210 634 164 660 q 347 569 256 608 q 562 469 493 507 q 662 383 631 431 q 693 257 693 335 q 654 120 693 183 q 540 19 615 57 q 360 -18 465 -18 q 207 3 274 -18 q 101 51 140 25 q 46 96 61 76 l 76 121 q 201 46 125 72 q 367 19 276 19 q 513 50 446 19 q 617 133 579 81 q 656 249 656 185 q 631 358 656 317 q 567 422 607 399 q 447 482 528 446 l 407 499 l 350 524 z "},"T":{"ha":768,"x_min":28,"x_max":735,"o":"m 735 986 l 407 986 l 407 0 l 364 0 l 364 986 l 28 986 l 28 1031 l 735 1031 l 735 986 z "},"U":{"ha":1000,"x_min":131,"x_max":853,"o":"m 131 1031 l 172 1031 l 172 360 q 253 113 172 201 q 492 24 335 24 q 730 113 649 24 q 811 360 811 203 l 811 1031 l 853 1031 l 853 361 q 767 88 853 194 q 492 -18 681 -18 q 217 88 303 -18 q 131 361 131 194 l 131 1031 z "},"V":{"ha":817,"x_min":36,"x_max":781,"o":"m 735 1031 l 781 1031 l 429 0 l 386 0 l 36 1031 l 83 1031 l 410 65 l 735 1031 z "},"W":{"ha":1324,"x_min":40,"x_max":1281,"o":"m 1238 1031 l 1281 1031 l 990 0 l 949 0 l 663 971 l 375 0 l 331 0 l 40 1031 l 85 1031 l 356 63 l 636 1031 l 688 1031 l 969 63 l 1238 1031 z "},"X":{"ha":769,"x_min":21,"x_max":758,"o":"m 733 1031 l 414 531 l 758 0 l 711 0 l 386 506 l 67 0 l 21 0 l 357 531 l 35 1031 l 82 1031 l 386 558 l 686 1031 l 733 1031 z "},"Y":{"ha":817,"x_min":38,"x_max":779,"o":"m 779 1031 l 428 399 l 428 0 l 389 0 l 389 399 l 38 1031 l 86 1031 l 410 442 l 732 1031 l 779 1031 z "},"Z":{"ha":738,"x_min":38,"x_max":689,"o":"m 689 994 l 83 42 l 685 42 l 685 0 l 38 0 l 38 43 l 639 992 l 54 992 l 54 1033 l 689 1033 l 689 994 z "},"a":{"ha":667,"x_min":56,"x_max":618,"o":"m 556 146 q 569 76 556 96 q 599 46 583 56 q 618 33 614 36 l 601 3 q 559 35 581 11 q 528 86 538 58 q 488 47 517 71 q 410 4 460 24 q 297 -15 361 -15 q 122 49 188 -15 q 56 215 56 113 q 91 327 56 279 q 185 401 126 375 q 315 428 244 428 l 522 428 l 522 526 q 472 678 522 629 q 313 726 422 726 q 199 706 240 726 q 124 651 158 685 l 97 676 q 125 702 100 679 q 203 743 150 725 q 315 761 256 761 q 487 710 418 761 q 556 547 556 660 l 556 146 m 313 393 q 192 368 243 393 q 115 303 142 343 q 89 217 89 263 q 147 76 89 132 q 306 19 206 19 q 413 43 365 19 q 489 97 460 67 q 522 140 518 126 l 522 393 l 313 393 z "},"b":{"ha":740,"x_min":101,"x_max":683,"o":"m 101 0 l 101 1103 l 136 1103 l 136 565 q 175 651 146 607 q 258 728 204 696 q 390 760 313 760 q 603 664 522 760 q 683 372 683 568 q 606 81 683 176 q 393 -14 529 -14 q 225 40 286 -14 q 143 151 164 94 l 133 0 l 101 0 m 392 725 q 210 644 279 725 q 140 372 140 563 q 211 103 140 185 q 392 22 282 22 q 650 372 650 22 q 583 634 650 543 q 392 725 517 725 z "},"c":{"ha":617,"x_min":56,"x_max":556,"o":"m 556 65 q 481 14 536 43 q 340 -15 426 -15 q 128 84 200 -15 q 56 374 56 183 q 133 661 56 561 q 342 761 210 761 q 467 735 421 761 q 538 686 514 710 l 511 660 q 453 702 497 678 q 346 726 410 726 q 159 638 228 726 q 90 374 90 549 q 349 19 90 19 q 456 42 414 19 q 528 90 497 65 l 556 65 z "},"d":{"ha":736,"x_min":51,"x_max":633,"o":"m 592 149 q 510 38 571 92 q 342 -17 449 -17 q 128 78 206 -17 q 51 369 51 174 q 132 661 51 565 q 344 757 213 757 q 476 725 422 757 q 560 649 531 693 q 599 563 589 604 l 599 1100 l 633 1100 l 633 -3 l 601 -3 l 592 149 m 343 722 q 151 631 218 722 q 85 369 85 540 q 343 19 85 19 q 524 101 453 19 q 594 369 594 182 q 525 641 594 560 q 343 722 456 722 z "},"e":{"ha":675,"x_min":57,"x_max":619,"o":"m 92 375 q 160 108 92 196 q 374 19 229 19 q 467 34 425 19 q 535 67 510 49 q 567 93 561 85 l 593 64 q 570 43 592 63 q 491 3 549 24 q 367 -17 433 -17 q 138 78 218 -17 q 57 372 57 174 q 135 660 57 564 q 347 757 213 757 q 549 660 481 757 q 619 375 617 563 l 92 375 m 582 410 q 525 635 581 547 q 350 724 469 724 q 92 410 114 724 l 582 410 z "},"f":{"ha":483,"x_min":19,"x_max":471,"o":"m 456 1060 q 338 1085 400 1085 q 232 1056 267 1085 q 189 983 197 1026 q 181 869 181 940 l 181 738 l 454 738 l 454 701 l 181 701 l 181 0 l 146 0 l 146 701 l 19 701 l 19 738 l 146 738 l 146 889 q 158 1003 146 956 q 213 1083 169 1050 q 342 1117 256 1117 q 471 1090 413 1117 l 456 1060 z "},"g":{"ha":731,"x_min":51,"x_max":633,"o":"m 599 163 q 556 87 588 128 q 471 15 525 46 q 343 -15 417 -15 q 51 374 51 -15 q 132 664 51 567 q 343 761 213 761 q 474 727 417 761 q 563 647 531 693 q 599 569 596 601 l 599 746 l 633 746 l 633 -112 q 550 -306 633 -240 q 326 -372 467 -372 q 182 -347 251 -372 q 72 -286 113 -322 l 100 -257 q 197 -312 138 -289 q 324 -335 257 -335 q 529 -276 460 -335 q 599 -108 599 -218 l 599 163 m 343 21 q 529 110 461 21 q 597 374 597 199 q 529 637 597 547 q 343 726 461 726 q 153 635 219 726 q 86 374 86 544 q 151 106 86 192 q 343 21 215 21 z "},"h":{"ha":739,"x_min":97,"x_max":631,"o":"m 401 761 q 564 703 497 761 q 631 521 631 644 l 631 0 l 596 0 l 596 504 q 549 669 596 611 q 389 726 503 726 q 264 689 324 726 q 168 590 204 651 q 132 460 132 528 l 132 0 l 97 0 l 97 1103 l 132 1103 l 132 590 q 236 711 167 661 q 401 761 306 761 z "},"i":{"ha":264,"x_min":101,"x_max":163,"o":"m 132 1033 q 154 1025 146 1033 q 163 1003 163 1017 q 154 981 163 989 q 132 972 146 972 q 110 981 118 972 q 101 1003 101 989 q 110 1025 101 1017 q 132 1033 118 1033 m 150 0 l 111 0 l 111 746 l 150 746 l 150 0 z "},"j":{"ha":264,"x_min":-182,"x_max":167,"o":"m 136 1025 q 158 1017 150 1025 q 167 994 167 1008 q 158 972 167 981 q 136 964 150 964 q 114 972 122 964 q 106 994 106 981 q 114 1017 106 1008 q 136 1025 122 1025 m -160 -308 q -61 -329 -118 -329 q 74 -287 29 -329 q 118 -140 118 -246 l 118 746 l 156 746 l 156 -144 q 103 -315 156 -261 q -60 -369 50 -369 q -182 -346 -136 -369 l -160 -308 z "},"k":{"ha":667,"x_min":99,"x_max":594,"o":"m 133 0 l 99 0 l 99 1103 l 133 1103 l 133 0 m 594 0 l 543 0 l 188 386 l 522 746 l 569 746 l 232 386 l 594 0 z "},"l":{"ha":311,"x_min":101,"x_max":265,"o":"m 101 1103 l 138 1103 l 138 175 q 168 60 138 93 q 265 26 199 26 l 265 -14 q 137 33 172 -14 q 101 186 101 79 l 101 1103 z "},"m":{"ha":1206,"x_min":100,"x_max":1104,"o":"m 397 761 q 538 716 482 761 q 617 607 593 671 q 710 716 644 671 q 872 761 775 761 q 982 735 929 761 q 1069 657 1035 710 q 1104 525 1104 604 l 1104 0 l 1069 0 l 1069 508 q 1014 673 1069 619 q 860 726 958 726 q 737 693 792 726 q 651 602 682 660 q 619 475 619 544 l 619 0 l 585 0 l 585 526 q 532 676 585 625 q 385 728 479 728 q 262 690 319 728 q 169 592 204 653 q 135 463 135 531 l 135 0 l 100 0 l 100 746 l 135 746 l 135 597 q 234 713 167 665 q 397 761 301 761 z "},"n":{"ha":736,"x_min":100,"x_max":636,"o":"m 600 515 q 548 670 600 615 q 390 725 496 725 q 261 689 319 725 q 169 592 203 653 q 136 463 136 532 l 136 0 l 100 0 l 100 746 l 136 746 l 136 593 q 231 713 164 664 q 401 761 299 761 q 567 702 499 761 q 636 521 636 643 l 636 0 l 600 0 l 600 515 z "},"o":{"ha":708,"x_min":63,"x_max":646,"o":"m 63 374 q 142 665 63 568 q 354 761 221 761 q 567 665 488 761 q 646 374 646 568 q 567 81 646 178 q 354 -15 489 -15 q 141 81 219 -15 q 63 374 63 178 m 354 725 q 163 635 231 725 q 96 374 96 544 q 165 113 96 204 q 354 22 235 22 q 543 113 474 22 q 613 374 613 204 q 545 635 613 544 q 354 725 478 725 z "},"p":{"ha":758,"x_min":100,"x_max":682,"o":"m 143 594 q 225 706 164 651 q 393 760 286 760 q 606 665 529 760 q 682 374 682 569 q 601 82 682 178 q 389 -14 521 -14 q 257 18 311 -14 q 174 94 203 50 q 135 181 144 139 l 135 -357 l 100 -357 l 101 746 l 133 746 l 143 594 m 390 21 q 582 112 515 21 q 649 374 649 203 q 392 724 649 724 q 211 642 282 724 q 139 374 140 561 q 208 102 139 183 q 390 21 278 21 z "},"q":{"ha":747,"x_min":65,"x_max":647,"o":"m 646 746 l 647 -357 l 613 -357 l 613 181 q 574 94 603 139 q 490 18 544 50 q 358 -14 436 -14 q 146 82 226 -14 q 65 374 65 178 q 142 665 65 569 q 354 760 218 760 q 522 706 461 760 q 604 594 583 651 l 614 746 l 646 746 m 357 21 q 539 102 469 21 q 608 374 608 183 q 536 642 607 561 q 356 724 465 724 q 99 374 99 724 q 165 112 99 203 q 357 21 232 21 z "},"r":{"ha":489,"x_min":93,"x_max":424,"o":"m 424 725 q 258 681 325 725 q 160 565 192 638 q 128 404 128 493 l 128 0 l 93 0 l 93 746 l 128 746 l 128 567 q 161 635 129 588 q 259 722 193 683 q 424 761 325 761 l 424 725 z "},"s":{"ha":583,"x_min":54,"x_max":526,"o":"m 492 176 q 469 249 492 218 q 415 301 447 279 q 326 351 382 322 l 268 382 q 163 440 197 418 q 108 494 128 463 q 88 574 88 526 q 117 668 88 625 q 198 738 146 711 q 317 764 250 764 q 503 689 428 764 l 478 661 q 412 710 446 690 q 318 731 378 731 q 213 708 257 731 q 145 650 168 685 q 122 579 122 615 q 137 513 122 539 q 175 472 151 488 q 244 432 199 456 q 282 413 257 426 q 428 333 376 367 q 503 265 479 300 q 526 185 526 231 q 461 40 526 94 q 278 -15 396 -15 q 135 20 190 -15 q 54 88 79 56 l 85 110 q 157 51 106 82 q 282 19 208 19 q 431 62 371 19 q 492 176 492 104 z "},"t":{"ha":472,"x_min":10,"x_max":424,"o":"m 310 -14 q 172 33 213 -14 q 132 194 132 81 l 132 710 l 10 710 l 10 746 l 132 746 l 132 914 l 167 922 l 167 746 l 424 746 l 424 710 l 167 710 l 167 186 q 183 83 167 118 q 233 35 200 47 q 322 22 265 22 q 413 39 363 22 l 424 3 q 310 -14 361 -14 z "},"u":{"ha":722,"x_min":93,"x_max":629,"o":"m 128 231 q 181 76 128 131 q 339 21 233 21 q 468 57 410 21 q 560 153 526 93 q 594 283 594 214 l 594 746 l 629 746 l 629 0 l 594 0 l 594 151 q 497 33 565 82 q 326 -15 429 -15 q 160 44 228 -15 q 93 225 93 103 l 93 746 l 128 746 l 128 231 z "},"v":{"ha":676,"x_min":35,"x_max":636,"o":"m 636 746 l 354 0 l 317 0 l 35 746 l 72 746 l 336 46 l 601 746 l 636 746 z "},"w":{"ha":1129,"x_min":33,"x_max":1064,"o":"m 1064 746 l 817 0 l 779 0 l 550 701 l 319 0 l 281 0 l 33 746 l 69 746 l 301 46 l 529 746 l 571 746 l 799 46 l 1031 746 l 1064 746 z "},"x":{"ha":678,"x_min":49,"x_max":629,"o":"m 629 0 l 589 0 l 336 354 l 89 0 l 49 0 l 315 382 l 58 746 l 99 746 l 336 413 l 571 746 l 611 746 l 357 383 l 629 0 z "},"y":{"ha":679,"x_min":29,"x_max":631,"o":"m 364 17 q 260 -166 328 -85 q 88 -286 193 -247 l 71 -257 q 222 -163 158 -228 q 311 -19 285 -99 l 29 746 l 65 746 l 332 21 l 594 746 l 631 746 q 364 17 404 132 z "},"z":{"ha":640,"x_min":49,"x_max":544,"o":"m 544 713 l 88 36 l 538 36 l 538 0 l 49 0 l 49 38 l 504 711 l 68 711 l 68 747 l 544 747 l 544 713 z "},"一":{"ha":1389,"x_min":139,"x_max":1254,"o":"m 139 522 l 139 553 l 1254 553 l 1254 522 l 139 522 z "},"丁":{"ha":1389,"x_min":86,"x_max":1290,"o":"m 717 17 q 692 -78 717 -53 q 607 -104 668 -104 q 514 -99 561 -104 q 417 -87 467 -94 l 411 -51 q 527 -67 483 -62 q 618 -72 571 -72 q 669 -56 651 -72 q 688 -8 688 -39 l 688 989 l 86 989 l 86 1018 l 1290 1018 l 1290 989 l 717 989 l 717 17 z "},"七":{"ha":1389,"x_min":92,"x_max":1303,"o":"m 92 583 q 594 639 349 610 l 594 1126 l 624 1126 l 624 643 q 1299 736 1032 692 l 1303 703 q 624 610 1085 668 l 624 67 q 628 5 624 26 q 651 -31 633 -17 q 708 -51 669 -46 q 906 -60 769 -60 q 1067 -54 999 -60 q 1123 -43 1103 -51 q 1149 -8 1143 -35 q 1163 217 1160 46 l 1192 210 q 1186 83 1190 149 q 1175 -22 1182 17 q 1144 -67 1169 -51 q 1083 -86 1119 -83 q 904 -92 996 -92 q 722 -85 796 -92 q 634 -61 661 -79 q 601 -14 607 -43 q 594 75 594 15 l 594 606 l 254 565 l 101 549 l 92 583 z "},"万":{"ha":1389,"x_min":88,"x_max":1301,"o":"m 540 1003 q 531 679 538 788 l 1151 679 q 1142 266 1151 439 q 1118 11 1132 93 q 1072 -84 1106 -58 q 971 -110 1039 -110 q 692 -82 883 -110 l 688 -44 q 845 -69 767 -60 q 972 -78 924 -78 q 1047 -62 1019 -78 q 1083 -8 1075 -47 q 1110 255 1099 64 q 1121 649 1121 446 l 528 649 q 471 360 513 490 q 341 111 429 231 q 107 -117 253 -8 l 88 -90 q 372 212 281 46 q 485 550 463 378 q 513 1003 508 722 l 103 1003 l 103 1032 l 1301 1032 l 1301 1003 l 540 1003 z "},"丈":{"ha":1389,"x_min":93,"x_max":1319,"o":"m 1306 -122 q 941 12 1103 -61 q 653 188 779 85 q 430 11 554 83 q 129 -119 306 -61 l 114 -89 q 410 35 282 -36 q 631 206 538 107 q 463 388 542 278 q 325 639 385 499 l 353 650 q 483 410 403 522 q 650 228 564 299 q 774 483 728 333 q 821 821 819 633 l 93 821 l 93 850 l 821 850 l 821 1118 l 850 1118 l 850 850 l 1299 850 l 1299 821 l 850 821 q 799 469 844 618 q 672 210 754 321 q 958 39 785 118 q 1319 -90 1132 -40 l 1306 -122 z "},"三":{"ha":1389,"x_min":92,"x_max":1303,"o":"m 1231 942 l 151 942 l 151 971 l 1231 971 l 1231 942 m 1143 493 l 238 493 l 238 522 l 1143 522 l 1143 493 m 1303 -42 l 92 -42 l 92 -12 l 1303 -12 l 1303 -42 z "},"上":{"ha":1389,"x_min":82,"x_max":1307,"o":"m 1307 -58 l 82 -58 l 82 -29 l 636 -29 l 636 1117 l 665 1117 l 665 657 l 1214 657 l 1214 628 l 665 628 l 665 -29 l 1307 -29 l 1307 -58 z "},"下":{"ha":1389,"x_min":89,"x_max":1304,"o":"m 1304 996 l 632 996 l 632 -131 l 603 -131 l 603 996 l 89 996 l 89 1025 l 1304 1025 l 1304 996 m 1146 315 q 935 474 1026 411 q 688 636 843 538 l 704 658 q 935 508 849 568 q 1164 340 1022 447 l 1146 315 z "},"不":{"ha":1389,"x_min":88,"x_max":1297,"o":"m 824 999 q 729 876 803 968 l 688 824 l 688 -126 l 658 -126 l 658 786 q 128 279 443 535 l 107 304 q 499 655 311 463 q 790 999 686 847 l 88 999 l 88 1028 l 1297 1028 l 1297 999 l 824 999 m 1231 271 q 1043 456 1158 349 q 822 651 928 564 l 842 672 q 1059 482 939 592 q 1253 294 1179 372 l 1231 271 z "},"与":{"ha":1389,"x_min":160,"x_max":1301,"o":"m 406 863 l 364 571 l 1217 571 q 1210 236 1217 357 q 1190 31 1203 115 q 1146 -63 1179 -39 q 1046 -87 1113 -87 q 919 -80 1000 -87 q 753 -58 838 -72 l 750 -25 q 909 -48 821 -39 q 1046 -57 997 -57 q 1123 -40 1097 -57 q 1157 22 1149 -24 q 1180 229 1171 93 q 1189 540 1189 365 l 328 540 q 413 1121 374 800 l 440 1117 l 413 892 l 1301 892 l 1301 863 l 406 863 m 996 258 l 160 258 l 160 288 l 996 288 l 996 258 z "},"丐":{"ha":1389,"x_min":86,"x_max":1308,"o":"m 1232 396 q 1199 15 1226 142 q 1144 -86 1183 -60 q 1029 -112 1106 -112 q 753 -82 922 -112 l 749 -47 q 1033 -82 922 -82 q 1124 -63 1092 -82 q 1168 8 1156 -44 q 1189 154 1179 56 q 1203 367 1199 253 l 190 367 q 218 622 208 514 q 228 836 228 731 l 257 836 q 222 396 254 636 l 654 396 l 654 1006 l 86 1006 l 86 1035 l 1308 1035 l 1308 1006 l 683 1006 l 683 728 l 1206 728 l 1206 699 l 683 699 l 683 396 l 1232 396 z "},"丑":{"ha":1389,"x_min":103,"x_max":1304,"o":"m 1304 -57 l 103 -57 l 103 -28 l 500 -28 l 561 529 l 190 529 l 190 560 l 564 560 l 608 988 l 218 988 l 217 1017 l 1101 1017 l 1057 -28 l 1304 -28 l 1304 -57 m 1074 988 l 635 988 l 590 560 l 1056 560 l 1074 988 m 1053 529 l 588 529 l 526 -28 l 1029 -28 l 1053 529 z "},"专":{"ha":1389,"x_min":79,"x_max":1297,"o":"m 510 678 q 418 447 460 544 l 1118 447 l 1118 429 q 703 25 903 201 q 875 -58 825 -33 l 942 -92 l 928 -112 q 397 147 760 -25 l 410 168 q 611 71 476 136 l 681 38 q 1076 421 879 211 l 379 421 q 485 678 447 578 l 79 678 l 79 704 l 496 704 q 576 932 543 828 l 178 932 l 178 958 l 585 958 q 635 1124 614 1051 l 658 1115 q 610 958 625 1004 l 1200 958 l 1200 932 l 603 932 q 521 704 556 793 l 1297 704 l 1297 678 l 510 678 z "},"且":{"ha":1389,"x_min":82,"x_max":1308,"o":"m 1308 -51 l 82 -51 l 82 -22 l 358 -22 l 358 1036 l 1050 1036 l 1050 -22 l 1308 -22 l 1308 -51 m 1021 703 l 1021 1007 l 388 1007 l 388 703 l 1021 703 m 1021 363 l 1021 674 l 388 674 l 388 363 l 1021 363 m 1021 -22 l 1021 333 l 388 333 l 388 -22 l 1021 -22 z "},"世":{"ha":1389,"x_min":86,"x_max":1311,"o":"m 1311 725 l 1060 725 l 1060 281 l 649 281 l 649 725 l 325 725 l 325 10 l 1297 10 l 1297 -19 l 294 -19 l 296 725 l 86 725 l 86 754 l 296 754 l 296 1056 l 325 1056 l 325 754 l 649 754 l 649 1131 l 678 1131 l 678 754 l 1031 754 l 1031 1131 l 1060 1131 l 1060 754 l 1311 754 l 1311 725 m 1031 311 l 1031 725 l 678 725 l 678 311 l 1031 311 z "},"丘":{"ha":1389,"x_min":90,"x_max":1304,"o":"m 90 -51 l 90 -22 l 307 -22 l 307 954 q 1140 1101 764 1004 l 1160 1072 q 757 988 972 1026 q 336 928 542 950 l 336 592 l 1233 592 l 1233 563 l 897 563 l 897 -22 l 1304 -22 l 1304 -51 l 90 -51 m 868 -22 l 868 563 l 336 563 l 336 -22 l 868 -22 z "},"丙":{"ha":1389,"x_min":83,"x_max":1306,"o":"m 701 1006 q 694 744 701 840 l 1186 744 l 1186 -3 q 1164 -81 1186 -62 q 1078 -97 1142 -100 q 903 -82 992 -92 l 897 -47 q 1103 -68 1029 -68 q 1144 -56 1132 -68 q 1157 -14 1157 -43 l 1157 715 l 690 715 q 667 579 682 639 q 860 406 776 488 q 1056 208 944 325 l 1032 186 q 856 372 942 289 q 658 547 769 456 q 535 329 614 426 q 322 140 457 232 l 303 165 q 562 410 481 281 q 661 715 643 540 l 233 715 l 233 -125 l 204 -125 l 204 744 l 665 744 q 674 1006 674 849 l 83 1006 l 83 1035 l 1306 1035 l 1306 1006 l 701 1006 z "},"业":{"ha":1389,"x_min":83,"x_max":1311,"o":"m 1311 -43 l 83 -43 l 83 -12 l 532 -12 l 532 1090 l 564 1090 l 564 -12 l 819 -12 l 819 1090 l 850 1090 l 850 -12 l 1311 -12 l 1311 -43 m 350 254 q 273 521 325 363 q 176 785 221 679 l 204 797 q 298 540 246 697 q 381 265 350 382 l 350 254 m 975 268 q 1086 515 1032 374 q 1172 776 1140 656 l 1197 768 q 1114 509 1169 653 q 1001 254 1058 365 l 975 268 z "},"丛":{"ha":1389,"x_min":97,"x_max":1296,"o":"m 1271 139 q 1022 399 1099 278 q 931 635 946 519 q 568 133 889 371 l 551 156 q 834 444 750 300 q 918 743 918 589 l 918 1104 l 944 1104 l 944 743 q 1025 450 944 592 q 1290 163 1106 308 l 1271 139 m 619 390 q 429 665 535 542 q 394 522 415 588 q 308 363 374 457 q 119 174 242 268 l 101 196 q 313 417 244 303 q 397 618 382 532 q 411 797 411 704 l 411 1101 l 439 1101 q 435 703 439 824 q 644 408 544 572 l 619 390 m 97 -44 l 97 -14 l 1296 -14 l 1296 -44 l 97 -44 z "},"东":{"ha":1389,"x_min":110,"x_max":1272,"o":"m 699 474 l 282 474 l 271 507 q 288 526 281 511 q 378 706 319 581 q 461 899 436 831 l 110 899 l 110 928 l 472 928 q 538 1113 510 1018 l 563 1103 q 500 928 533 1008 l 1272 928 l 1272 899 l 489 899 q 472 860 483 888 q 304 503 367 614 l 699 503 l 699 754 l 726 754 l 726 503 l 1174 503 l 1174 474 l 726 474 l 726 -8 q 712 -63 726 -47 q 657 -81 697 -79 q 488 -74 592 -83 l 482 -42 q 643 -53 568 -53 q 686 -44 674 -53 q 699 -11 699 -36 l 699 474 m 1243 -1 q 1101 155 1182 69 q 949 304 1019 240 l 968 324 q 1265 19 1106 197 l 1243 -1 m 131 8 q 286 156 208 71 q 418 319 364 242 l 438 303 q 303 138 381 222 q 150 -12 226 53 l 131 8 z "},"丝":{"ha":1389,"x_min":89,"x_max":1310,"o":"m 656 240 q 204 218 488 235 l 194 249 q 213 264 206 256 q 485 608 358 428 l 356 597 q 186 583 233 588 l 172 613 q 183 626 181 621 q 304 840 239 714 q 417 1076 369 965 l 440 1064 q 323 824 386 947 q 206 611 260 701 q 403 626 288 617 q 501 633 439 628 q 614 810 554 704 l 639 797 q 438 501 553 653 q 233 246 324 350 q 657 268 504 264 l 656 240 m 1226 240 q 775 218 1058 235 l 765 249 q 783 264 776 256 q 1056 608 929 428 l 926 597 q 757 583 804 588 l 743 613 q 754 626 751 621 q 875 840 810 714 q 988 1076 940 965 l 1011 1064 q 894 824 957 947 q 776 611 831 701 q 974 626 858 617 q 1072 633 1010 628 q 1185 810 1125 704 l 1210 797 q 1009 501 1124 653 q 804 246 894 350 q 1228 268 1075 264 l 1226 240 m 1310 -49 l 89 -49 l 89 -22 l 1310 -22 l 1310 -49 z "},"丞":{"ha":1389,"x_min":82,"x_max":1319,"o":"m 1301 126 q 985 446 1099 269 q 840 844 871 622 q 719 778 797 818 l 719 206 q 695 123 719 143 q 606 103 671 103 q 475 113 550 103 l 468 146 q 619 133 557 133 q 674 145 657 133 q 690 193 690 157 l 690 793 q 878 895 782 838 q 1043 1008 974 953 l 213 1008 l 213 1038 l 1089 1038 l 1089 1015 q 867 857 1003 936 q 940 579 885 703 q 1233 785 1121 686 l 1253 763 q 1113 656 1193 713 q 954 554 1032 600 q 1105 335 1010 439 q 1319 151 1200 232 l 1301 126 m 106 192 q 383 385 286 279 q 514 664 479 492 l 129 664 l 129 693 l 549 693 q 466 453 524 550 q 326 290 408 356 q 121 164 243 225 l 106 192 m 1310 -64 l 82 -64 l 82 -35 l 1310 -35 l 1310 -64 z "},"丢":{"ha":1389,"x_min":88,"x_max":1304,"o":"m 642 425 q 502 208 589 332 q 347 4 415 85 q 1065 79 726 31 q 868 278 989 164 l 888 297 q 1075 110 993 196 q 1265 -94 1157 25 l 1242 -117 q 1089 53 1175 -35 q 706 6 886 24 q 297 -31 526 -12 l 288 0 q 328 25 307 1 q 608 425 490 214 l 88 425 l 88 456 l 688 456 l 688 732 l 200 732 l 200 761 l 688 761 l 688 1014 q 196 972 467 990 l 185 1001 q 709 1044 432 1014 q 1165 1106 986 1074 l 1182 1078 q 717 1017 914 1036 l 717 761 l 1197 761 l 1197 732 l 717 732 l 717 456 l 1304 456 l 1304 425 l 642 425 z "},"两":{"ha":1389,"x_min":86,"x_max":1308,"o":"m 886 719 q 875 576 885 651 q 1083 242 999 404 l 1060 228 q 868 543 979 392 q 800 354 843 453 q 660 147 757 256 l 640 165 q 808 431 750 288 q 863 719 865 574 l 544 719 q 536 571 543 632 q 679 344 625 446 l 656 331 q 529 538 606 438 q 497 428 514 479 q 431 299 479 378 q 303 143 383 219 l 285 164 q 469 423 417 288 q 519 719 522 558 l 208 719 l 208 -110 l 182 -110 l 182 746 l 521 746 q 522 1033 522 761 l 86 1033 l 86 1060 l 1308 1060 l 1308 1033 l 890 1033 q 890 890 890 982 q 888 746 889 797 l 1221 746 l 1221 -14 q 1144 -87 1221 -87 q 939 -71 1063 -87 l 935 -40 q 1149 -61 1064 -61 q 1183 -51 1172 -61 q 1194 -12 1194 -42 l 1194 719 l 886 719 m 549 1033 l 546 746 l 864 746 q 865 1033 865 765 l 549 1033 z "},"严":{"ha":1389,"x_min":54,"x_max":1313,"o":"m 215 571 q 209 257 215 353 q 174 76 203 161 q 75 -108 146 -8 l 54 -92 q 147 74 119 0 q 182 225 175 149 q 189 449 189 301 l 189 597 l 556 597 l 556 1031 l 143 1031 l 143 1057 l 1278 1057 l 1278 1031 l 858 1031 l 858 597 l 1313 597 l 1313 571 l 215 571 m 832 597 l 832 1031 l 582 1031 l 582 597 l 832 597 m 400 669 q 282 894 357 776 l 304 907 q 425 683 361 821 l 400 669 m 986 683 q 1106 906 1050 774 l 1126 894 q 1008 669 1083 790 l 986 683 z "},"丧":{"ha":1389,"x_min":83,"x_max":1303,"o":"m 1274 -107 q 996 38 1099 -31 q 818 206 893 106 q 678 472 743 307 l 364 472 l 364 -82 q 711 17 528 -44 l 715 -8 q 347 -112 515 -74 l 332 -87 q 338 -65 338 -81 l 338 472 l 83 472 l 83 499 l 678 499 l 678 914 l 158 914 l 158 940 l 678 940 l 678 1126 l 704 1126 l 704 940 l 1229 940 l 1229 914 l 704 914 l 704 499 l 1303 499 l 1303 472 l 706 472 q 789 297 746 371 q 889 161 832 222 q 1024 260 957 206 q 1139 365 1092 315 l 1157 349 q 906 143 1040 235 q 1065 25 960 88 q 1286 -82 1171 -37 l 1274 -107 m 421 586 q 303 811 378 693 l 325 824 q 446 600 382 738 l 421 586 m 918 599 q 1038 821 982 689 l 1058 810 q 940 585 1015 706 l 918 599 z "},"个":{"ha":1389,"x_min":67,"x_max":1303,"o":"m 1285 483 q 671 1025 904 711 q 407 738 547 867 q 86 493 267 610 l 67 518 q 415 783 265 643 q 697 1108 564 924 l 718 1093 l 688 1050 q 1303 513 918 728 l 1285 483 m 685 -122 l 656 -122 l 656 729 l 685 729 l 685 -122 z "},"丫":{"ha":1389,"x_min":204,"x_max":1215,"o":"m 703 -131 l 672 -131 l 672 656 q 950 875 814 756 q 1192 1111 1086 994 l 1215 1092 q 961 849 1099 969 q 703 642 824 728 l 703 -131 m 586 728 q 409 901 494 824 q 204 1074 324 978 l 224 1096 q 410 938 329 1011 q 610 751 492 864 l 586 728 z "},"中":{"ha":1389,"x_min":194,"x_max":1190,"o":"m 1190 249 l 1161 249 l 1161 368 l 699 368 l 699 -125 l 669 -125 l 669 368 l 224 368 l 224 254 l 194 254 l 194 871 l 669 871 l 669 1128 l 700 1128 l 700 871 l 1190 871 l 1190 249 m 669 397 l 669 842 l 224 842 l 224 397 l 669 397 m 1161 397 l 1161 842 l 699 842 l 699 397 l 1161 397 z "},"丰":{"ha":1389,"x_min":103,"x_max":1289,"o":"m 1147 569 l 707 569 l 707 279 l 1289 279 l 1289 250 l 707 250 l 707 -135 l 678 -135 l 678 250 l 103 250 l 103 279 l 678 279 l 678 569 l 235 569 l 235 599 l 678 599 l 678 854 l 179 854 l 179 883 l 676 883 l 676 1119 l 707 1119 l 707 883 l 1203 883 l 1203 854 l 707 854 l 707 599 l 1147 599 l 1147 569 z "},"串":{"ha":1389,"x_min":208,"x_max":1172,"o":"m 1172 11 l 1143 11 l 1143 114 l 704 114 l 704 -136 l 674 -136 l 674 114 l 238 114 l 238 10 l 208 10 l 208 483 l 674 483 l 674 658 l 289 658 l 289 974 l 674 974 l 674 1135 l 703 1135 l 703 974 l 1094 974 l 1094 658 l 703 658 l 703 483 l 1172 483 l 1172 11 m 674 688 l 674 944 l 318 944 l 318 688 l 674 688 m 1065 688 l 1065 944 l 703 944 l 703 688 l 1065 688 m 674 143 l 674 454 l 238 454 l 238 143 l 674 143 m 1143 143 l 1143 454 l 703 454 l 703 143 l 1143 143 z "},"临":{"ha":1389,"x_min":157,"x_max":1306,"o":"m 690 926 q 514 693 614 811 l 493 713 q 771 1128 672 913 l 796 1115 q 707 953 763 1044 l 1306 953 l 1306 926 l 690 926 m 408 -112 l 379 -112 l 379 1119 l 408 1119 l 408 -112 m 186 58 l 157 58 l 157 967 l 186 967 l 186 58 m 1049 588 q 793 775 932 690 l 808 799 q 1068 613 944 717 l 1049 588 m 1265 -118 l 1236 -118 l 1236 -42 l 618 -42 l 618 -124 l 589 -124 l 589 471 l 1265 471 l 1265 -118 m 914 -12 l 914 442 l 617 442 l 617 -12 l 914 -12 m 1236 -12 l 1236 442 l 943 442 l 943 -12 l 1236 -12 z "},"丸":{"ha":1389,"x_min":94,"x_max":1301,"o":"m 1296 44 q 1260 -49 1290 -25 q 1153 -72 1231 -72 l 1083 -72 q 1003 -59 1029 -72 q 968 -17 976 -46 q 958 65 960 11 l 958 140 q 982 819 958 365 l 588 819 q 583 598 588 689 q 567 436 579 507 q 856 261 731 343 l 836 232 q 560 404 711 319 q 521 278 544 332 q 414 119 479 185 q 285 15 349 53 q 118 -74 222 -22 l 104 -42 q 331 86 244 19 q 465 233 418 153 q 535 421 513 313 q 232 578 410 492 l 247 606 q 539 454 438 513 q 552 605 549 524 q 558 819 556 686 l 94 819 l 94 849 l 558 849 l 558 1135 l 588 1135 l 588 849 l 1013 849 q 988 165 988 365 q 990 36 988 111 q 1007 -22 990 -6 q 1069 -40 1024 -37 q 1138 -42 1088 -42 q 1185 -40 1172 -42 q 1243 -21 1225 -36 q 1264 26 1261 -6 q 1269 192 1269 110 l 1269 236 l 1301 222 l 1301 185 q 1296 44 1300 108 z "},"丹":{"ha":1389,"x_min":85,"x_max":1306,"o":"m 1060 4 q 1050 -65 1060 -43 q 1017 -96 1040 -87 q 946 -104 993 -104 q 797 -92 885 -104 l 792 -57 q 956 -74 892 -74 q 1013 -62 994 -74 q 1031 -12 1031 -50 l 1031 481 l 407 481 q 374 253 400 353 q 291 61 349 153 q 133 -117 233 -31 l 113 -90 q 269 81 214 -7 q 348 264 325 169 q 378 481 371 358 l 85 481 l 85 510 l 379 510 l 379 1049 l 1060 1049 l 1060 508 l 1306 508 l 1306 479 l 1060 479 l 1060 4 m 1031 510 l 1031 1019 l 408 1019 l 408 510 l 1031 510 m 825 615 q 717 752 768 694 q 590 888 667 810 l 611 907 q 729 781 679 839 q 849 636 779 724 l 825 615 z "},"为":{"ha":1389,"x_min":132,"x_max":1197,"o":"m 1150 24 q 1096 -75 1135 -50 q 978 -100 1057 -100 q 731 -85 908 -100 l 726 -44 q 997 -65 899 -65 q 1077 -44 1046 -65 q 1119 32 1108 -24 q 1153 337 1139 133 q 1168 728 1167 540 l 681 728 q 607 382 656 515 q 455 138 558 249 q 154 -97 351 26 l 135 -65 q 435 163 331 49 q 585 406 540 276 q 650 728 629 535 l 132 728 l 132 758 l 651 758 q 663 1126 663 872 l 693 1126 q 682 758 692 886 l 1197 758 q 1181 334 1194 553 q 1150 24 1168 115 m 465 843 q 254 1076 383 954 l 274 1096 q 489 861 392 986 l 465 843 m 964 231 q 731 440 861 342 l 749 464 q 988 253 882 363 l 964 231 z "},"主":{"ha":1389,"x_min":92,"x_max":1301,"o":"m 743 882 q 569 1099 671 993 l 590 1115 q 682 1013 643 1061 q 767 901 721 965 l 743 882 m 1301 -56 l 92 -56 l 92 -26 l 675 -26 l 675 424 l 200 424 l 200 453 l 675 453 l 675 818 l 132 818 l 132 847 l 1264 847 l 1264 818 l 704 818 l 704 453 l 1190 453 l 1190 424 l 704 424 l 704 -26 l 1301 -26 l 1301 -56 z "},"丽":{"ha":1389,"x_min":85,"x_max":1303,"o":"m 1303 1019 l 85 1019 l 85 1049 l 1303 1049 l 1303 1019 m 513 -82 q 386 -72 467 -82 l 382 -40 q 504 -53 467 -53 q 565 -41 550 -53 q 581 11 581 -29 l 581 738 l 217 738 l 217 -106 l 188 -106 l 188 767 l 610 767 l 610 14 q 590 -61 610 -40 q 513 -82 569 -82 m 1107 -82 q 981 -72 1061 -82 l 976 -40 q 1099 -53 1061 -53 q 1160 -41 1144 -53 q 1175 11 1175 -29 l 1175 738 l 811 738 l 811 -106 l 782 -106 l 782 767 l 1204 767 l 1204 14 q 1184 -61 1204 -40 q 1107 -82 1164 -82 m 457 236 q 304 513 397 374 l 328 529 q 483 250 422 389 l 457 236 m 1051 236 q 899 513 992 374 l 922 529 q 1078 250 1017 389 l 1051 236 z "},"举":{"ha":1389,"x_min":93,"x_max":1293,"o":"m 717 899 q 607 1092 672 999 l 628 1104 q 740 911 676 1035 l 717 899 m 93 438 q 525 799 408 590 l 113 799 l 113 825 l 940 825 q 1110 1089 1051 967 l 1133 1078 q 1057 947 1101 1017 q 971 825 1013 876 l 1283 825 l 1283 799 l 883 799 q 1059 595 960 682 q 1293 439 1158 508 l 1281 417 q 1035 584 1135 497 q 854 799 936 671 l 554 799 q 378 588 486 681 q 107 415 269 496 l 93 438 m 397 889 q 275 1074 358 965 l 296 1088 q 421 906 367 997 l 397 889 m 1090 457 l 1090 431 l 707 431 l 707 193 l 1285 193 l 1285 167 l 707 167 l 707 -124 l 681 -124 l 681 167 l 104 167 l 104 193 l 681 193 l 681 431 l 308 431 l 308 457 l 681 457 l 681 654 l 707 654 l 707 457 l 1090 457 z "},"乃":{"ha":1389,"x_min":86,"x_max":1236,"o":"m 1194 22 q 1163 -47 1182 -25 q 1117 -76 1144 -69 q 1040 -83 1089 -83 q 774 -61 915 -83 l 767 -24 q 1040 -51 906 -51 q 1126 -36 1100 -51 q 1163 19 1151 -21 q 1194 269 1182 89 q 1207 606 1207 449 l 869 606 q 913 803 896 714 q 944 1003 929 893 l 528 1003 q 503 556 524 715 q 394 231 483 396 q 108 -103 306 65 l 86 -76 q 365 241 278 83 q 474 558 453 399 q 497 1003 494 718 l 128 1003 l 128 1032 l 978 1032 q 910 635 944 782 l 1236 635 q 1225 265 1236 433 q 1194 22 1214 97 z "},"久":{"ha":1389,"x_min":92,"x_max":1310,"o":"m 1290 -115 q 975 131 1106 -4 q 775 407 844 265 q 133 -111 546 78 l 117 -81 q 644 290 431 51 q 935 826 858 528 l 447 826 q 114 453 304 632 l 92 475 q 372 776 256 625 q 568 1101 489 926 l 596 1089 q 467 856 544 975 l 974 856 q 903 642 947 740 q 794 436 860 544 q 997 151 867 286 q 1310 -86 1128 17 l 1290 -115 z "},"么":{"ha":1389,"x_min":147,"x_max":1299,"o":"m 147 443 q 438 749 299 578 q 678 1090 578 919 l 704 1074 q 463 728 606 904 q 171 418 319 551 l 147 443 m 1271 -96 q 1235 -28 1265 -86 q 1175 71 1204 29 q 263 -1 717 21 l 250 33 q 285 44 272 33 q 631 417 467 222 q 900 778 796 611 l 926 758 q 648 391 828 606 q 315 33 468 176 q 1157 101 708 51 q 985 364 1076 239 l 1008 383 q 1151 167 1088 269 q 1299 -75 1215 65 l 1271 -96 z "},"义":{"ha":1389,"x_min":97,"x_max":1276,"o":"m 778 792 q 524 1082 672 936 l 543 1100 q 800 811 699 944 l 778 792 m 1260 -108 q 958 49 1104 -43 q 690 258 811 142 q 110 -87 457 42 l 97 -60 q 671 276 439 64 q 278 904 397 546 l 304 914 q 692 296 419 561 q 958 636 854 450 q 1111 1017 1061 822 l 1140 1008 q 981 622 1086 810 q 711 276 875 433 q 1276 -78 939 61 l 1260 -108 z "},"之":{"ha":1389,"x_min":100,"x_max":1324,"o":"m 813 851 q 469 1085 661 971 l 488 1107 q 833 876 672 996 l 813 851 m 1315 -79 q 1008 -90 1171 -90 q 678 -69 815 -90 q 472 -6 540 -47 q 413 35 436 17 q 354 86 390 54 q 321 115 336 104 q 303 122 311 122 q 260 93 285 122 l 122 -69 l 100 -51 l 217 83 q 249 122 226 97 q 276 144 260 135 q 306 153 292 153 q 337 142 321 153 q 374 110 353 131 q 822 426 636 274 q 1147 744 1008 578 l 149 744 l 149 775 l 1189 775 l 1189 747 q 840 406 1024 557 q 397 86 656 254 q 489 19 440 44 q 688 -38 557 -17 q 1004 -60 818 -60 q 1324 -44 1175 -60 l 1315 -79 z "},"乌":{"ha":1389,"x_min":90,"x_max":1260,"o":"m 1197 -3 q 1101 -71 1179 -71 q 900 -56 992 -71 l 894 -25 q 1103 -44 990 -44 q 1175 11 1161 -44 q 1212 224 1196 92 q 1231 450 1228 356 l 297 450 l 297 976 l 576 976 q 654 1131 619 1042 l 678 1119 q 606 976 639 1032 l 1096 976 q 1060 694 1079 797 q 1032 630 1050 649 q 982 611 1014 611 q 786 624 922 611 l 779 653 q 975 636 915 636 q 1017 649 1006 636 q 1035 690 1029 663 q 1068 950 1060 821 l 324 950 l 324 476 l 1260 476 q 1197 -3 1233 139 m 1031 189 l 90 189 l 90 215 l 1031 215 l 1031 189 z "},"乍":{"ha":1389,"x_min":94,"x_max":1328,"o":"m 604 849 l 604 593 l 1218 593 l 1218 564 l 604 564 l 604 283 l 1260 283 l 1260 254 l 604 254 l 604 -135 l 575 -135 l 575 849 l 397 849 q 275 674 342 760 q 118 485 208 588 l 94 506 q 326 795 226 647 q 507 1107 426 943 l 533 1093 q 417 878 476 974 l 1328 878 l 1328 849 l 604 849 z "},"乎":{"ha":1389,"x_min":97,"x_max":1294,"o":"m 722 6 q 699 -69 722 -49 q 614 -89 676 -89 q 408 -72 528 -89 l 406 -39 q 624 -58 528 -58 q 676 -48 658 -58 q 693 1 693 -37 l 693 447 l 97 447 l 97 476 l 693 476 l 693 997 q 169 954 400 968 l 161 985 q 721 1032 444 1001 q 1186 1096 997 1063 l 1204 1067 q 722 1001 1000 1032 l 722 476 l 1294 476 l 1294 447 l 722 447 l 722 6 m 876 564 q 1113 910 1010 718 l 1138 896 q 900 544 1035 708 l 876 564 m 508 551 q 290 857 424 696 l 313 874 q 535 571 432 729 l 508 551 z "},"乏":{"ha":1389,"x_min":113,"x_max":1315,"o":"m 157 1006 q 681 1050 354 1014 q 1150 1114 1008 1086 l 1165 1082 q 678 1019 915 1044 q 168 974 442 993 l 157 1006 m 739 744 q 510 897 632 831 l 525 919 q 758 771 661 846 l 739 744 m 1307 -74 q 1011 -83 1185 -83 q 701 -63 833 -83 q 493 -11 569 -43 q 393 42 432 15 q 306 126 354 69 q 294 124 300 132 q 133 -54 219 29 l 113 -33 q 279 147 190 38 q 303 161 292 161 q 329 144 315 161 q 359 110 343 128 q 396 75 375 92 q 810 358 649 235 q 1126 644 971 482 l 165 644 l 165 674 l 1168 674 l 1168 647 q 923 413 1038 511 q 708 246 808 315 q 449 74 608 176 l 422 57 q 660 -28 514 -3 q 1011 -53 806 -53 q 1315 -40 1182 -53 l 1307 -74 z "},"乐":{"ha":1389,"x_min":113,"x_max":1275,"o":"m 714 538 l 222 538 l 211 572 q 224 592 219 581 q 311 1014 275 796 q 1094 1094 728 1043 l 1108 1068 q 332 990 796 1025 q 243 564 303 814 l 714 564 l 714 878 l 740 878 l 740 564 l 1275 564 l 1275 538 l 740 538 l 740 -11 q 660 -81 740 -81 q 465 -64 585 -81 l 461 -33 q 663 -53 579 -53 q 702 -44 690 -53 q 714 -10 714 -35 l 714 538 m 113 -8 q 275 166 203 79 q 418 357 347 253 l 440 342 q 292 146 364 233 q 133 -28 219 58 l 113 -8 m 1233 -31 q 1090 150 1157 69 q 928 332 1022 231 l 947 350 q 1107 173 1038 253 q 1258 -11 1176 93 l 1233 -31 z "},"乒":{"ha":1389,"x_min":101,"x_max":1294,"o":"m 101 286 l 101 315 l 375 315 l 375 1033 q 1128 1101 819 1054 l 1143 1072 q 404 1006 815 1025 l 404 746 l 1204 746 l 1204 717 l 924 717 l 924 315 l 1294 315 l 1294 286 l 101 286 m 894 315 l 894 717 l 404 717 l 404 315 l 894 315 m 143 -76 q 352 47 258 -14 q 540 188 446 108 l 558 167 q 364 19 458 83 q 161 -103 269 -44 l 143 -76 z "},"乓":{"ha":1389,"x_min":101,"x_max":1294,"o":"m 101 285 l 101 315 l 374 315 l 374 1031 q 1126 1104 796 1051 l 1143 1075 q 403 1003 789 1024 l 403 739 l 1204 739 l 1204 708 l 924 708 l 924 314 l 1294 314 l 1294 285 l 101 285 m 894 315 l 894 710 l 403 710 l 403 315 l 894 315 m 1222 -110 q 1032 26 1119 -33 q 828 156 944 85 l 844 179 q 1243 -83 1068 42 l 1222 -110 z "},"乔":{"ha":1389,"x_min":83,"x_max":1315,"o":"m 1301 332 q 1018 505 1140 414 q 781 725 896 596 l 567 725 q 97 329 422 510 l 83 353 q 365 541 251 443 q 536 725 479 639 l 89 725 l 89 751 l 553 751 q 679 1017 636 882 q 197 972 551 1003 l 190 999 q 681 1042 419 1015 q 1121 1100 942 1069 l 1138 1075 q 708 1019 819 1029 q 581 751 647 857 l 1299 751 l 1299 725 l 815 725 q 1039 520 922 604 q 1315 358 1156 436 l 1301 332 m 889 -118 l 863 -118 l 863 475 l 889 475 l 889 -118 m 214 -86 q 388 32 326 -31 q 473 178 449 94 q 497 388 497 261 l 497 474 l 524 474 l 524 385 q 498 166 524 253 q 409 13 472 79 q 228 -114 346 -53 l 214 -86 z "},"乖":{"ha":1389,"x_min":99,"x_max":1299,"o":"m 704 786 l 704 -124 l 675 -124 l 675 786 l 99 786 l 99 815 l 675 815 l 675 1021 q 211 982 400 993 l 201 1011 q 674 1051 379 1019 q 1142 1114 969 1082 l 1157 1086 q 704 1024 969 1054 l 704 815 l 1299 815 l 1299 786 l 704 786 m 1276 128 q 1245 60 1269 78 q 1167 39 1221 42 q 1106 38 1146 38 l 989 39 q 927 53 947 42 q 901 84 907 64 q 894 142 894 104 l 894 675 l 924 675 l 924 410 q 1243 565 1103 479 l 1260 540 q 1095 453 1186 497 q 924 379 1004 410 l 924 146 q 928 97 924 113 q 950 75 933 82 q 1004 67 967 68 q 1083 65 1033 65 q 1163 67 1135 65 q 1226 82 1207 69 q 1249 135 1244 94 q 1254 253 1254 179 l 1283 242 q 1276 128 1282 186 m 113 86 q 433 167 314 126 l 433 440 l 144 440 l 144 469 l 433 469 l 433 674 l 463 674 l 463 29 l 433 29 l 433 138 q 124 58 315 97 l 113 86 z "},"乘":{"ha":1389,"x_min":97,"x_max":1293,"o":"m 1264 -25 q 936 186 1069 75 q 706 449 803 297 l 706 -108 l 678 -108 l 678 449 q 449 210 592 329 q 124 -17 307 90 l 107 8 q 438 235 289 111 q 678 490 586 358 l 678 822 l 97 822 l 97 850 l 678 850 l 678 1031 q 222 1004 447 1015 l 213 1033 q 732 1065 472 1043 q 1168 1115 992 1086 l 1182 1088 q 706 1033 975 1057 l 706 850 l 1293 850 l 1293 822 l 706 822 l 706 493 q 952 205 819 317 q 1278 1 1085 93 l 1264 -25 m 125 326 q 435 401 299 361 l 435 582 l 157 582 l 157 610 l 435 610 l 435 735 l 463 735 l 463 317 l 435 317 l 435 376 q 135 299 315 340 l 125 326 m 1290 422 q 1261 356 1285 372 q 1182 336 1238 339 q 1104 335 1156 335 q 1000 336 1036 335 q 924 363 943 340 q 906 438 906 385 l 906 732 l 933 732 l 933 579 q 1095 628 1026 604 q 1228 685 1164 653 l 1242 658 q 935 550 1114 600 l 935 443 q 948 381 935 397 q 1010 363 961 364 q 1094 361 1039 361 q 1179 363 1151 361 q 1242 377 1224 365 q 1265 426 1260 389 q 1268 501 1268 449 l 1293 490 q 1290 422 1293 453 z "},"乙":{"ha":1389,"x_min":132,"x_max":1267,"o":"m 1253 114 q 1227 28 1244 58 q 1171 -17 1210 -1 q 1057 -42 1132 -33 q 731 -51 928 -51 l 665 -51 q 310 -37 460 -51 q 179 13 215 -29 q 146 122 143 54 q 202 242 147 175 q 367 400 257 308 l 575 571 q 844 792 738 703 q 1056 976 950 882 l 132 976 l 132 1006 l 1093 1006 l 1093 975 q 849 761 971 864 q 553 517 726 658 l 404 396 q 229 233 282 296 q 176 115 176 169 q 207 31 176 60 q 301 -6 238 1 q 495 -19 403 -17 q 732 -22 588 -22 q 1067 -10 949 -22 q 1158 10 1126 -4 q 1203 47 1189 24 q 1222 111 1217 71 q 1236 283 1232 174 l 1267 268 q 1264 225 1264 238 q 1253 114 1257 142 z "},"九":{"ha":1389,"x_min":83,"x_max":1299,"o":"m 1293 44 q 1275 -25 1289 -3 q 1236 -56 1261 -47 q 1158 -68 1211 -64 q 1111 -69 1142 -69 q 1050 -68 1072 -69 q 973 -53 999 -65 q 937 -15 947 -42 q 924 61 926 11 q 949 718 925 328 q 951 775 949 736 l 553 775 q 499 383 547 542 q 355 113 450 225 q 101 -100 260 0 l 83 -74 q 338 136 244 25 q 474 399 431 247 q 524 775 518 551 l 117 775 l 117 804 l 524 804 l 524 1125 l 553 1125 l 553 804 l 983 804 l 976 682 q 956 133 956 331 l 956 61 q 964 1 957 21 q 989 -26 971 -18 q 1046 -36 1007 -33 q 1107 -39 1093 -39 q 1165 -36 1124 -39 q 1241 -15 1222 -32 q 1263 50 1260 3 q 1265 219 1265 94 l 1299 206 q 1297 164 1299 178 q 1293 44 1297 101 z "},"乞":{"ha":1389,"x_min":103,"x_max":1290,"o":"m 367 878 q 258 723 313 793 q 126 561 204 653 l 103 579 q 322 859 213 700 q 478 1121 431 1018 l 504 1108 q 465 1036 499 1097 q 388 910 431 975 l 1289 910 l 1289 878 l 367 878 m 1281 40 q 1244 -40 1272 -17 q 1147 -69 1217 -62 q 824 -78 1038 -78 q 418 -60 553 -78 q 325 -17 349 -47 q 301 61 301 14 q 443 222 301 125 q 789 453 535 285 q 1021 606 815 469 l 344 606 l 344 635 l 1069 635 l 1069 606 q 790 421 956 529 q 486 218 561 269 q 365 123 399 157 q 331 56 331 89 q 417 -28 331 -12 q 826 -49 540 -49 q 1163 -37 1054 -49 q 1227 -12 1208 -32 q 1251 49 1246 8 q 1260 182 1257 92 l 1290 167 q 1288 117 1288 131 q 1281 40 1285 69 z "},"也":{"ha":1389,"x_min":119,"x_max":1263,"o":"m 1250 38 q 1204 -53 1240 -29 q 1096 -81 1168 -76 q 757 -87 950 -87 q 429 -81 578 -87 q 348 -60 375 -76 q 312 -18 321 -44 q 303 53 303 8 l 303 606 l 129 561 l 119 593 q 303 638 247 624 l 303 985 l 332 985 l 332 644 q 685 739 557 703 l 685 1126 l 714 1126 l 714 749 q 1147 882 947 815 q 1140 567 1147 707 q 1121 358 1132 426 q 1080 268 1110 290 q 978 246 1050 246 q 865 256 946 246 l 860 289 q 912 282 871 288 q 981 276 953 276 q 1041 283 1021 276 q 1072 306 1061 289 q 1089 360 1082 324 q 1109 568 1100 421 q 1118 839 1118 715 q 715 717 932 778 l 715 131 l 686 131 l 686 707 q 333 613 522 661 l 333 50 q 354 -19 333 4 q 428 -44 375 -43 l 426 -44 q 760 -53 563 -53 q 1099 -47 986 -53 q 1184 -24 1156 -44 q 1219 43 1213 -4 q 1231 207 1228 97 l 1263 193 q 1250 38 1258 97 z "},"习":{"ha":1389,"x_min":183,"x_max":1186,"o":"m 1150 56 q 1102 -28 1135 -7 q 1006 -51 1069 -50 q 869 -40 950 -50 q 724 -18 788 -29 l 719 17 q 877 -8 786 4 q 1018 -21 968 -19 q 1086 -3 1063 -21 q 1121 60 1110 14 q 1149 412 1139 139 q 1158 951 1158 685 l 183 951 l 183 981 l 1186 981 q 1177 417 1186 685 q 1150 56 1168 150 m 708 504 q 537 633 633 567 q 349 751 440 700 l 363 775 q 551 658 454 724 q 728 529 647 593 l 708 504 m 225 169 q 954 424 624 272 l 967 397 q 236 139 614 242 l 225 169 z "},"乡":{"ha":1389,"x_min":201,"x_max":1224,"o":"m 201 -54 q 707 85 461 -21 q 1115 410 953 190 q 806 382 961 396 q 494 353 650 368 l 272 332 l 257 374 q 282 382 265 375 q 836 697 574 526 q 271 671 617 690 l 260 708 q 283 718 269 708 q 744 1094 538 889 l 765 1075 q 307 703 557 871 q 540 713 439 710 q 713 719 640 717 l 872 725 q 1078 890 982 801 l 1100 868 q 719 591 938 724 q 313 367 500 458 q 560 388 436 376 q 807 410 683 399 l 1131 439 q 1196 567 1168 494 l 1224 556 q 806 106 1093 251 q 208 -83 519 -40 l 201 -54 z "},"书":{"ha":1389,"x_min":118,"x_max":1282,"o":"m 1096 842 q 1060 488 1086 667 l 1240 488 q 1215 151 1229 229 q 1174 74 1206 96 q 1086 53 1143 53 q 897 68 1032 53 l 893 100 q 1092 81 1021 81 q 1157 97 1133 81 q 1189 154 1181 114 q 1213 460 1201 222 l 650 460 l 650 -124 l 622 -124 l 622 460 l 118 460 l 118 488 l 622 488 l 624 814 l 214 814 l 214 842 l 621 842 l 621 1125 l 651 1125 l 651 842 l 1096 842 m 1076 1076 q 1282 893 1193 986 l 1260 869 q 1057 1057 1171 969 l 1076 1076 m 651 814 l 650 488 l 1032 488 q 1068 814 1060 658 l 651 814 z "},"买":{"ha":1389,"x_min":90,"x_max":1301,"o":"m 1115 700 q 1254 1010 1211 872 l 160 1010 l 160 1036 l 1281 1036 l 1281 1014 q 1138 688 1233 867 l 1115 700 m 726 347 q 617 149 689 232 q 424 4 546 67 q 113 -107 301 -58 l 100 -78 q 417 30 296 -33 q 603 170 539 93 q 700 347 667 247 l 90 347 l 90 374 l 707 374 q 756 889 753 551 l 782 889 q 767 602 779 749 q 733 374 756 456 l 1301 374 l 1301 347 l 726 347 m 601 689 q 306 825 475 761 l 318 849 q 617 715 488 785 l 601 689 m 508 482 q 211 618 385 553 l 224 642 q 522 508 393 578 l 508 482 m 1288 -101 q 1046 29 1182 -39 q 785 151 910 97 l 797 175 q 1055 55 918 122 q 1300 -74 1192 -12 l 1288 -101 z "},"乱":{"ha":1389,"x_min":81,"x_max":1308,"o":"m 1308 165 q 1293 6 1301 58 q 1272 -53 1286 -33 q 1231 -80 1257 -72 q 1156 -90 1206 -87 q 1071 -93 1089 -93 q 979 -90 1054 -93 q 908 -76 931 -87 q 877 -42 885 -65 q 869 26 869 -19 l 869 1118 l 899 1118 l 899 33 q 903 -24 899 -7 q 924 -50 907 -42 q 979 -60 940 -58 l 1007 -61 l 1071 -62 q 1157 -60 1090 -62 q 1217 -53 1197 -58 q 1249 -30 1238 -47 q 1267 26 1261 -12 q 1276 179 1272 65 l 1308 165 m 456 700 l 797 700 l 797 672 l 456 672 l 456 375 l 701 375 l 701 -117 l 674 -117 l 674 -61 l 201 -61 l 201 -117 l 174 -117 l 174 375 l 428 375 l 428 672 l 81 672 l 81 700 l 428 700 l 428 993 q 117 953 268 968 l 107 979 q 736 1081 439 1013 l 750 1056 q 456 999 593 1021 l 456 700 m 201 -33 l 674 -33 l 674 347 l 201 347 l 201 -33 z "},"乳":{"ha":1389,"x_min":82,"x_max":1301,"o":"m 1289 -11 q 1257 -78 1282 -61 q 1178 -99 1232 -96 q 1113 -100 1154 -100 q 1025 -99 1057 -100 q 965 -84 983 -96 q 940 -52 946 -72 q 935 7 935 -32 l 935 1117 l 963 1117 l 963 13 q 965 -38 963 -25 q 982 -59 968 -51 q 1032 -68 996 -67 q 1106 -71 1085 -71 q 1175 -68 1128 -71 q 1238 -53 1219 -65 q 1261 1 1257 -40 q 1271 214 1271 100 l 1301 201 q 1289 -11 1299 81 m 90 1044 q 474 1072 303 1057 q 824 1113 644 1088 l 838 1085 q 476 1043 646 1058 q 100 1015 306 1028 l 90 1044 m 625 703 q 743 976 697 828 l 765 968 q 647 690 715 813 l 625 703 m 482 722 q 397 935 454 817 l 419 946 q 507 735 474 831 l 482 722 m 254 706 q 163 904 211 815 l 185 917 q 279 718 240 810 l 254 706 m 82 182 q 382 244 185 200 l 428 254 l 428 424 q 581 503 497 456 q 724 594 665 551 l 143 594 l 143 622 l 769 622 l 769 597 q 620 496 706 547 q 456 407 535 444 l 456 261 q 771 347 626 303 l 776 321 q 456 232 564 260 l 456 -8 q 436 -85 456 -67 q 358 -104 417 -104 q 263 -99 301 -104 l 258 -67 q 365 -75 324 -75 q 416 -62 404 -75 q 428 -11 428 -50 l 428 226 q 92 151 303 194 l 82 182 z "},"乾":{"ha":1389,"x_min":79,"x_max":1306,"o":"m 708 132 l 400 132 l 400 -122 l 372 -122 l 372 132 l 79 132 l 79 160 l 372 160 l 372 339 l 158 339 l 158 769 l 374 769 l 374 936 l 92 936 l 92 964 l 374 964 l 374 1124 l 401 1124 l 401 964 l 686 964 l 686 936 l 401 936 l 401 769 l 611 769 l 611 339 l 400 339 l 400 160 l 708 160 l 708 132 m 844 897 q 711 633 781 746 l 689 649 q 896 1117 808 833 l 919 1110 q 854 925 890 1015 l 1306 925 l 1306 897 l 844 897 m 583 582 l 583 742 l 186 742 l 186 582 l 583 582 m 1271 28 q 1240 -49 1263 -28 q 1158 -79 1218 -71 q 1031 -85 1101 -85 q 871 -78 961 -85 q 792 -45 813 -74 q 775 32 772 -17 q 864 201 778 82 q 889 235 876 218 q 914 268 901 251 q 1031 425 978 351 q 1147 606 1083 499 l 792 606 l 792 633 l 1183 633 l 1183 610 q 901 210 1028 374 q 825 98 850 142 q 800 25 800 54 q 814 -30 800 -11 q 875 -53 828 -49 q 1029 -60 965 -60 q 1161 -53 1088 -60 q 1222 -28 1203 -49 q 1244 28 1240 -7 q 1256 168 1250 71 l 1282 156 l 1279 126 q 1271 28 1278 85 m 583 367 l 583 554 l 186 554 l 186 367 l 583 367 z "},"了":{"ha":1389,"x_min":169,"x_max":1168,"o":"m 683 -7 q 662 -83 683 -64 q 585 -101 640 -101 q 429 -92 513 -101 l 422 -57 q 594 -71 522 -71 q 642 -58 631 -71 q 654 -8 654 -44 l 654 664 q 903 831 776 736 q 1131 1017 1031 926 l 169 1017 l 169 1046 l 1168 1046 l 1168 1017 q 938 825 1078 931 q 683 649 799 719 l 683 -7 z "},"予":{"ha":1389,"x_min":100,"x_max":1294,"o":"m 1129 375 q 1251 596 1208 493 l 731 596 l 731 -4 q 710 -81 731 -60 q 631 -103 690 -103 q 475 -92 556 -103 l 471 -58 q 633 -74 560 -74 q 687 -61 672 -74 q 701 -15 701 -49 l 701 596 l 100 596 l 100 625 l 819 625 q 492 879 667 757 l 508 899 q 731 732 639 807 q 935 875 826 792 q 1110 1024 1044 958 l 264 1024 l 264 1053 l 1144 1053 l 1144 1021 q 959 864 1075 954 q 751 714 843 774 q 863 624 782 689 l 1294 624 q 1154 358 1236 492 l 1129 375 z "},"争":{"ha":1389,"x_min":92,"x_max":1321,"o":"m 760 747 q 924 974 858 863 l 428 974 q 151 704 335 869 l 136 724 q 526 1133 417 971 l 546 1119 q 450 1000 485 1039 l 956 1000 l 956 976 q 878 861 924 925 q 790 747 832 797 l 1153 747 l 1153 518 l 1321 518 l 1321 492 l 1153 492 l 1153 146 l 1126 146 l 1126 232 l 717 232 l 717 -25 q 640 -99 717 -99 q 490 -86 583 -99 l 456 -82 l 451 -51 q 635 -71 556 -67 q 676 -61 661 -72 q 690 -21 690 -50 l 690 232 l 211 232 l 211 258 l 690 258 l 690 492 l 92 492 l 92 518 l 690 518 l 690 721 l 306 721 l 306 747 l 760 747 m 1126 518 l 1126 721 l 717 721 l 717 518 l 1126 518 m 1126 258 l 1126 492 l 717 492 l 717 258 l 1126 258 z "},"事":{"ha":1389,"x_min":96,"x_max":1297,"o":"m 1131 299 l 1131 33 l 1103 33 l 1103 114 l 704 114 l 704 -18 q 686 -92 704 -72 q 619 -111 668 -111 q 451 -99 539 -111 l 446 -65 q 621 -82 546 -82 q 664 -71 651 -82 q 676 -31 676 -60 l 676 114 l 243 114 l 243 142 l 676 142 l 676 299 l 96 299 l 96 326 l 676 326 l 676 476 l 243 476 l 243 504 l 676 504 l 676 649 l 303 649 l 303 871 l 676 871 l 676 994 l 111 994 l 111 1022 l 676 1022 l 676 1135 l 704 1135 l 704 1022 l 1276 1022 l 1276 994 l 704 994 l 704 871 l 1101 871 l 1101 649 l 704 649 l 704 504 l 1131 504 l 1131 326 l 1297 326 l 1297 299 l 1131 299 m 676 676 l 676 843 l 331 843 l 331 676 l 676 676 m 1074 676 l 1074 843 l 704 843 l 704 676 l 1074 676 m 1103 326 l 1103 476 l 704 476 l 704 326 l 1103 326 m 1103 142 l 1103 299 l 704 299 l 704 142 l 1103 142 z "},"二":{"ha":1389,"x_min":94,"x_max":1297,"o":"m 1193 889 l 201 889 l 201 918 l 1193 918 l 1193 889 m 1297 29 l 94 29 l 94 58 l 1297 58 l 1297 29 z "},"于":{"ha":1389,"x_min":115,"x_max":1301,"o":"m 738 0 q 715 -76 738 -56 q 625 -97 693 -97 q 450 -85 569 -97 l 443 -50 q 632 -68 556 -68 q 690 -56 672 -68 q 708 -6 708 -44 l 708 546 l 115 546 l 115 575 l 708 575 l 708 1000 l 226 1000 l 226 1029 l 1210 1029 l 1210 1000 l 738 1000 l 738 575 l 1301 575 l 1301 546 l 738 546 l 738 0 z "},"亏":{"ha":1389,"x_min":85,"x_max":1303,"o":"m 1169 986 l 229 986 l 229 1017 l 1169 1017 l 1169 986 m 481 682 q 399 394 432 489 l 1122 394 q 1096 116 1113 206 q 1078 17 1079 26 q 1038 -62 1068 -40 q 942 -83 1008 -83 q 821 -78 896 -83 q 690 -65 746 -74 l 685 -31 q 819 -48 742 -42 q 943 -54 897 -54 q 1018 -42 996 -54 q 1050 15 1040 -29 q 1074 158 1061 63 q 1094 365 1088 254 l 361 365 q 454 682 417 524 l 85 682 l 85 713 l 1303 713 l 1303 682 l 481 682 z "},"云":{"ha":1389,"x_min":90,"x_max":1301,"o":"m 1169 982 l 229 982 l 229 1011 l 1169 1011 l 1169 982 m 1269 -114 q 1138 51 1196 -12 q 294 -7 725 11 l 285 25 q 317 46 303 29 q 472 296 378 131 q 617 581 565 461 l 90 581 l 90 610 l 1301 610 l 1301 581 l 647 581 q 503 297 590 453 q 339 26 417 142 q 1115 79 789 44 q 901 325 1004 215 l 922 343 q 1293 -93 1110 135 l 1269 -114 z "},"互":{"ha":1389,"x_min":99,"x_max":1292,"o":"m 99 -49 l 99 -19 l 882 -19 q 947 308 907 90 l 307 308 q 412 682 375 540 q 486 1003 449 824 l 140 1003 l 140 1032 l 1254 1032 l 1254 1003 l 515 1003 q 453 725 478 824 l 1046 725 q 983 344 1010 492 q 911 -19 956 196 l 1292 -19 l 1292 -49 l 99 -49 m 444 696 q 406 551 429 635 q 374 433 383 468 l 347 338 l 953 338 q 1013 696 979 463 l 444 696 z "},"五":{"ha":1389,"x_min":103,"x_max":1290,"o":"m 1290 -43 l 103 -43 l 103 -14 l 453 -14 l 569 569 l 238 569 l 238 599 l 575 599 l 653 993 l 156 993 l 156 1022 l 1236 1022 l 1236 993 l 682 993 l 604 599 l 1054 599 l 1054 -14 l 1290 -14 l 1290 -43 m 1025 -14 l 1025 569 l 599 569 l 483 -14 l 1025 -14 z "},"井":{"ha":1389,"x_min":97,"x_max":1297,"o":"m 932 413 l 932 -125 l 903 -125 l 903 413 l 517 413 q 442 106 510 235 q 232 -125 375 -22 l 213 -100 q 416 119 350 -6 q 488 413 482 244 l 97 413 l 97 442 l 488 442 l 488 813 l 146 813 l 146 842 l 488 842 l 488 1124 l 517 1124 l 517 842 l 903 842 l 903 1124 l 932 1124 l 932 842 l 1254 842 l 1254 811 l 932 811 l 932 440 l 1297 440 l 1297 413 l 932 413 m 903 442 l 903 813 l 517 813 l 517 442 l 903 442 z "},"亚":{"ha":1389,"x_min":89,"x_max":1300,"o":"m 1300 -26 l 89 -26 l 89 4 l 533 4 l 533 988 l 129 988 l 129 1018 l 1267 1018 l 1267 988 l 850 988 l 850 4 l 1300 4 l 1300 -26 m 819 4 l 819 988 l 564 988 l 564 4 l 819 4 m 360 272 q 201 713 304 482 l 229 725 q 390 283 324 513 l 360 272 m 976 281 q 1154 715 1090 488 l 1179 707 q 1003 265 1124 500 l 976 281 z "},"些":{"ha":1389,"x_min":79,"x_max":1282,"o":"m 1274 538 q 1252 473 1268 494 q 1210 442 1236 451 q 1138 429 1185 433 q 1036 426 1071 426 q 953 429 1006 426 q 878 444 903 433 q 844 481 854 456 q 835 553 835 506 l 835 1115 l 863 1115 l 863 797 q 1203 928 1061 856 l 1219 900 q 863 765 1093 838 l 863 542 q 884 477 863 493 q 965 458 906 461 q 1044 456 1026 456 q 1132 458 1071 456 q 1214 478 1189 461 q 1246 542 1239 496 q 1253 643 1250 574 l 1282 632 q 1274 538 1281 582 m 79 414 q 185 433 111 418 l 232 442 l 232 944 l 260 944 l 260 449 q 464 496 351 468 l 464 1114 l 492 1114 l 492 865 l 708 865 l 708 838 l 492 838 l 492 504 q 708 567 607 533 l 713 535 q 93 383 446 456 l 79 414 m 1108 235 l 286 235 l 286 263 l 1108 263 l 1108 235 m 1282 -43 l 108 -43 l 108 -15 l 1282 -15 l 1282 -43 z "},"亟":{"ha":1389,"x_min":100,"x_max":1292,"o":"m 674 826 q 875 928 776 871 q 1044 1042 974 985 l 167 1042 l 167 1069 l 1088 1069 l 1088 1044 q 701 811 939 922 l 701 164 q 678 99 701 117 q 606 81 656 81 q 489 88 556 81 l 483 118 q 607 107 557 107 q 660 120 646 107 q 674 171 674 133 l 674 826 m 196 804 l 518 804 l 518 219 l 490 219 l 490 286 l 224 286 l 224 213 l 196 213 l 196 804 m 838 769 l 838 796 l 1207 796 q 1086 421 1185 592 q 1263 181 1189 294 l 1242 164 q 1072 397 1174 275 q 824 117 985 250 l 806 135 q 1057 415 963 261 q 858 631 950 544 l 878 650 q 1069 439 972 557 q 1178 769 1160 594 l 838 769 m 490 776 l 224 776 l 224 314 l 490 314 l 490 776 m 1292 -53 l 100 -53 l 100 -25 l 1292 -25 l 1292 -53 z "},"亡":{"ha":1389,"x_min":97,"x_max":1299,"o":"m 801 850 q 704 966 750 917 q 596 1074 658 1015 l 617 1093 q 722 990 676 1039 q 825 872 767 942 l 801 850 m 1299 765 l 390 765 l 390 22 l 1243 22 l 1243 -10 l 361 -10 l 361 765 l 97 765 l 97 794 l 1299 794 l 1299 765 z "},"亢":{"ha":1389,"x_min":103,"x_max":1288,"o":"m 719 910 q 663 1001 690 963 q 594 1092 636 1039 l 614 1108 q 678 1024 651 1063 q 743 926 706 986 l 719 910 m 1288 846 l 103 846 l 103 874 l 1288 874 l 1288 846 m 1276 43 q 1245 -40 1269 -19 q 1156 -64 1221 -61 q 1085 -65 1133 -65 q 1014 -64 1036 -65 q 940 -50 964 -60 q 907 -16 917 -40 q 897 61 897 8 l 897 567 l 471 567 q 442 281 468 393 q 343 77 415 168 q 129 -93 271 -14 l 113 -64 q 322 98 251 11 q 416 297 392 185 q 442 594 440 410 l 925 594 l 925 64 q 930 8 925 26 q 951 -19 935 -11 q 1001 -31 967 -28 q 1093 -33 1063 -33 q 1163 -31 1118 -33 q 1226 -12 1210 -26 q 1246 36 1243 1 q 1253 189 1251 107 l 1281 172 q 1279 132 1281 144 q 1276 43 1279 104 z "},"交":{"ha":1389,"x_min":93,"x_max":1297,"o":"m 717 917 q 660 1008 688 968 q 590 1100 633 1047 l 611 1115 q 676 1031 649 1069 q 740 933 703 993 l 717 917 m 1288 865 l 99 865 l 99 893 l 1288 893 l 1288 865 m 1243 440 q 1081 595 1178 508 q 885 763 985 682 l 903 783 q 1097 621 999 707 q 1265 465 1196 535 l 1243 440 m 138 461 q 472 778 314 593 l 493 761 q 157 438 336 574 l 138 461 m 1283 -117 q 963 19 1103 -56 q 704 188 822 93 q 106 -122 472 -15 l 93 -92 q 682 206 461 13 q 536 356 606 265 q 418 547 467 447 l 446 561 q 556 376 488 465 q 703 225 625 286 q 925 583 857 382 l 953 572 q 724 207 868 351 q 985 37 854 106 q 1297 -87 1115 -32 l 1283 -117 z "},"亥":{"ha":1389,"x_min":93,"x_max":1294,"o":"m 703 931 q 648 1008 676 974 q 579 1088 619 1043 l 599 1104 q 726 949 674 1022 l 703 931 m 678 872 q 529 688 608 778 q 376 532 450 599 q 793 563 574 538 q 943 754 889 663 l 968 739 q 644 399 833 536 q 167 157 454 261 l 150 186 q 490 334 340 251 q 764 532 640 417 q 570 515 658 521 q 335 503 482 510 l 325 533 l 328 533 q 356 547 339 533 q 516 710 449 635 q 644 872 583 786 l 93 872 l 93 900 l 1294 900 l 1294 872 l 678 872 m 1215 -117 q 804 193 1029 46 q 511 21 676 97 q 132 -122 346 -56 l 118 -90 q 703 161 479 14 q 1082 531 928 308 l 1107 513 q 826 213 983 342 q 1235 -92 1047 65 l 1215 -117 z "},"亦":{"ha":1389,"x_min":101,"x_max":1281,"o":"m 728 903 q 590 1082 664 1001 l 610 1099 q 750 921 668 1036 l 728 903 m 872 10 q 851 -69 872 -49 q 771 -90 831 -90 q 625 -82 704 -90 l 619 -46 q 772 -60 700 -60 q 828 -48 813 -60 q 844 3 844 -36 l 844 853 l 583 853 l 583 581 q 543 272 583 399 q 415 53 503 144 q 178 -114 326 -39 l 161 -85 q 391 73 306 -14 q 516 282 476 160 q 556 581 556 404 l 556 853 l 115 853 l 115 881 l 1276 881 l 1276 853 l 872 853 l 872 10 m 1250 197 q 1036 617 1143 446 l 1060 632 q 1281 214 1171 457 l 1250 197 m 101 222 q 332 629 213 368 l 357 617 q 126 201 239 354 l 101 222 z "},"产":{"ha":1389,"x_min":54,"x_max":1313,"o":"m 718 999 q 628 1117 678 1063 l 646 1132 q 739 1015 697 1074 l 718 999 m 1278 960 l 143 960 l 143 986 l 1278 986 l 1278 960 m 558 664 q 436 894 515 768 l 458 907 q 583 678 521 813 l 558 664 m 857 678 q 982 906 929 781 l 1003 894 q 879 664 964 800 l 857 678 m 1313 632 l 1313 606 l 215 606 q 209 280 215 383 q 174 83 203 176 q 75 -108 144 -10 l 54 -92 q 147 74 119 0 q 182 225 175 149 q 189 449 189 301 l 189 632 l 1313 632 z "},"亨":{"ha":1389,"x_min":94,"x_max":1301,"o":"m 725 988 q 608 1108 672 1056 l 626 1126 q 746 1007 693 1069 l 725 988 m 1301 944 l 94 944 l 94 972 l 1301 972 l 1301 944 m 1047 574 l 331 574 l 331 806 l 1047 806 l 1047 574 m 1019 601 l 1019 778 l 358 778 l 358 601 l 1019 601 m 678 -14 q 656 -90 678 -71 q 575 -110 635 -110 q 447 -100 521 -110 l 443 -65 q 513 -76 474 -72 q 582 -81 553 -81 q 635 -69 621 -81 q 650 -21 650 -57 l 650 233 q 868 307 750 260 q 1075 403 986 354 l 208 403 l 208 431 l 1131 431 l 1131 404 q 922 301 1049 354 q 678 213 796 247 l 678 -14 z "},"亩":{"ha":1389,"x_min":93,"x_max":1296,"o":"m 714 946 q 603 1110 681 1017 l 622 1124 q 738 960 700 1029 l 714 946 m 1296 882 l 93 882 l 93 910 l 1296 910 l 1296 882 m 1139 -122 l 1111 -122 l 1111 -42 l 276 -42 l 276 -122 l 249 -122 l 249 657 l 1139 657 l 1139 -122 m 679 326 l 679 629 l 276 629 l 276 326 l 679 326 m 1111 326 l 1111 629 l 707 629 l 707 326 l 1111 326 m 679 -14 l 679 299 l 276 299 l 276 -14 l 679 -14 m 1111 -14 l 1111 299 l 707 299 l 707 -14 l 1111 -14 z "},"享":{"ha":1389,"x_min":94,"x_max":1301,"o":"m 724 992 q 607 1113 671 1060 l 625 1131 q 744 1011 692 1074 l 724 992 m 1301 951 l 94 951 l 94 979 l 1301 979 l 1301 951 m 1047 592 l 331 592 l 331 824 l 1047 824 l 1047 592 m 1019 619 l 1019 796 l 358 796 l 358 619 l 1019 619 m 714 203 l 1297 203 l 1297 175 l 714 175 l 714 -19 q 691 -92 714 -74 q 607 -111 668 -111 q 494 -103 572 -111 l 490 -69 q 614 -82 575 -82 q 669 -71 653 -82 q 686 -24 686 -60 l 686 175 l 94 175 l 94 203 l 686 203 l 686 289 q 883 353 782 315 q 1061 431 985 392 l 258 431 l 258 458 l 1117 458 l 1117 431 q 714 269 946 339 l 714 203 z "},"京":{"ha":1389,"x_min":93,"x_max":1296,"o":"m 719 968 q 660 1039 696 1000 q 593 1106 624 1078 l 610 1122 q 740 986 671 1068 l 719 968 m 1296 924 l 93 924 l 93 951 l 1296 951 l 1296 924 m 714 -12 q 692 -88 714 -68 q 613 -108 669 -108 q 497 -100 567 -108 l 490 -65 q 617 -78 560 -78 q 671 -67 656 -78 q 686 -19 686 -56 l 686 383 l 313 383 l 313 729 l 1076 729 l 1076 383 l 714 383 l 714 -12 m 1049 411 l 1049 701 l 340 701 l 340 411 l 1049 411 m 122 -14 q 283 115 206 44 q 422 257 361 186 l 443 238 q 305 97 386 172 q 140 -37 224 22 l 122 -14 m 1208 -56 q 933 231 1082 92 l 951 250 q 1097 110 1017 192 q 1231 -33 1178 28 l 1208 -56 z "},"亭":{"ha":1389,"x_min":110,"x_max":1272,"o":"m 701 1004 q 599 1113 661 1056 l 615 1129 q 721 1022 675 1075 l 701 1004 m 1272 965 l 110 965 l 110 993 l 1272 993 l 1272 965 m 1033 613 l 346 613 l 346 840 l 1033 840 l 1033 613 m 1006 640 l 1006 813 l 374 813 l 374 640 l 1006 640 m 1258 296 l 1231 296 l 1231 460 l 150 460 l 150 290 l 122 290 l 122 488 l 1258 488 l 1258 296 m 719 -4 q 698 -81 719 -61 q 617 -101 676 -101 q 493 -93 574 -101 l 488 -60 q 624 -71 550 -71 q 677 -59 663 -71 q 692 -12 692 -47 l 692 279 l 267 279 l 267 307 l 1122 307 l 1122 279 l 719 279 l 719 -4 z "},"亮":{"ha":1389,"x_min":89,"x_max":1293,"o":"m 713 996 q 607 1107 667 1057 l 624 1125 q 733 1015 685 1072 l 713 996 m 1293 956 l 89 956 l 89 983 l 1293 983 l 1293 956 m 1029 585 l 356 585 l 356 821 l 1029 821 l 1029 585 m 383 793 l 383 613 l 1001 613 l 1001 793 l 383 793 m 164 421 l 164 239 l 136 239 l 136 449 l 1240 449 l 1240 244 l 1213 244 l 1213 421 l 164 421 m 1251 10 q 1257 101 1254 35 l 1286 89 q 1279 4 1283 39 q 1262 -48 1274 -31 q 1227 -72 1250 -65 q 1157 -79 1204 -78 q 1078 -81 1121 -81 q 976 -79 1026 -81 q 912 -67 933 -76 q 881 -33 890 -57 q 872 38 872 -10 l 872 275 l 501 275 q 397 10 490 101 q 103 -117 304 -82 l 93 -86 q 386 38 299 -58 q 474 306 474 133 l 900 304 l 900 40 q 914 -31 900 -14 q 975 -50 928 -49 q 1068 -53 1019 -53 q 1157 -50 1115 -53 q 1228 -37 1210 -47 q 1251 10 1247 -26 z "},"亲":{"ha":1389,"x_min":93,"x_max":1292,"o":"m 706 978 q 615 1107 672 1038 l 635 1122 q 728 993 678 1071 l 706 978 m 1194 940 l 189 940 l 189 967 l 1194 967 l 1194 940 m 497 642 q 379 867 454 749 l 401 879 q 522 656 458 793 l 497 642 m 842 656 q 961 878 906 746 l 982 867 q 864 642 939 763 l 842 656 m 1292 600 l 1292 574 l 703 574 l 703 364 l 1240 364 l 1240 338 l 703 338 l 703 -12 q 681 -88 703 -68 q 603 -108 660 -108 q 488 -100 557 -108 l 481 -65 q 607 -78 550 -78 q 661 -67 646 -78 q 676 -19 676 -56 l 676 338 l 144 338 l 144 364 l 676 364 l 676 574 l 93 574 l 93 600 l 1292 600 m 131 -47 q 288 88 213 14 q 421 233 364 161 l 443 215 q 309 69 388 147 q 150 -71 231 -8 l 131 -47 m 938 225 q 1083 85 1003 167 q 1217 -58 1164 3 l 1194 -81 q 919 206 1068 67 l 938 225 z "},"亳":{"ha":1389,"x_min":94,"x_max":1308,"o":"m 713 1003 q 607 1111 672 1057 l 625 1129 q 733 1022 690 1074 l 713 1003 m 1292 967 l 94 967 l 94 994 l 1292 994 l 1292 967 m 1056 636 l 325 636 l 325 849 l 1056 849 l 1056 636 m 1028 664 l 1028 821 l 353 821 l 353 664 l 1028 664 m 1253 321 l 1225 321 l 1225 492 l 151 492 l 151 310 l 124 310 l 124 519 l 1253 519 l 1253 321 m 1303 -11 q 1267 -70 1296 -54 q 1161 -89 1238 -86 q 965 -92 1061 -92 q 751 -89 868 -92 q 674 -76 699 -86 q 641 -42 649 -65 q 633 29 633 -19 l 633 132 l 175 104 l 169 136 l 632 161 l 632 333 q 322 301 550 322 l 263 296 l 253 325 q 1029 422 710 361 l 1046 394 q 660 336 897 367 l 660 163 l 1153 197 l 1154 167 l 660 133 l 660 28 q 666 -30 660 -12 q 691 -53 672 -47 q 751 -61 710 -60 q 965 -64 810 -64 q 1161 -61 1113 -64 q 1249 -47 1225 -58 q 1278 4 1272 -36 q 1281 75 1281 46 l 1308 61 q 1303 -11 1306 13 z "},"亵":{"ha":1389,"x_min":82,"x_max":1326,"o":"m 722 985 q 681 1054 708 1014 q 631 1118 653 1094 l 649 1133 q 700 1066 672 1106 q 744 999 728 1026 l 722 985 m 1293 957 l 92 957 l 92 983 l 1293 983 l 1293 957 m 1272 390 q 1235 372 1260 372 q 1203 381 1219 372 q 1175 404 1188 389 q 1128 526 1147 438 q 1108 776 1110 615 l 919 776 q 905 674 917 719 q 868 589 893 628 q 1035 457 967 518 l 1018 439 q 856 569 947 506 q 758 479 825 528 q 600 383 692 431 l 586 406 q 741 492 675 446 q 836 582 807 539 q 704 664 788 618 l 717 683 q 850 600 811 629 q 885 681 875 639 q 899 776 896 722 l 654 776 l 654 800 l 900 800 q 903 908 903 856 l 924 908 q 921 800 924 861 l 1131 800 l 1131 771 q 1149 528 1131 614 q 1199 411 1168 442 q 1232 394 1215 394 q 1260 411 1250 394 q 1304 533 1286 449 l 1326 519 q 1315 481 1324 511 q 1295 430 1306 451 q 1272 390 1285 408 m 364 549 q 115 511 290 533 l 110 538 q 364 575 268 557 l 364 750 l 121 750 l 121 776 l 364 776 l 364 903 l 390 903 l 390 776 l 597 776 l 597 750 l 390 750 l 390 581 q 585 621 486 597 l 585 594 q 390 554 493 572 l 390 389 q 373 336 390 351 q 318 321 356 321 q 190 328 263 321 l 186 358 q 318 349 271 349 q 364 390 364 349 l 364 549 m 764 353 l 728 326 q 699 306 711 317 q 879 122 768 207 q 1033 254 963 178 l 1053 239 q 900 104 969 150 q 1056 3 967 50 q 1269 -92 1144 -44 l 1257 -118 q 933 49 1075 -49 q 675 292 792 147 q 475 178 582 231 l 475 -94 q 751 -10 642 -49 l 756 -37 q 453 -129 590 -90 l 438 -101 q 445 -92 443 -97 q 447 -75 447 -87 l 447 163 q 93 22 274 78 l 82 47 q 747 371 444 154 l 764 353 z "},"人":{"ha":1389,"x_min":103,"x_max":1301,"o":"m 1285 -119 q 899 220 1063 7 q 667 665 735 433 q 540 331 619 474 q 360 85 461 189 q 122 -119 260 -18 l 103 -92 q 411 189 289 40 q 608 563 533 338 q 692 1119 682 789 l 718 1118 q 678 724 710 897 q 921 239 763 443 q 1301 -89 1079 35 l 1285 -119 z "},"亿":{"ha":1389,"x_min":78,"x_max":1286,"o":"m 314 -124 l 286 -124 l 286 718 q 100 397 176 511 l 78 415 q 274 754 185 572 q 428 1122 363 936 l 453 1113 q 314 779 378 904 l 314 -124 m 1263 11 q 1286 158 1269 44 l 1258 174 l 1254 135 q 1238 21 1247 65 q 1205 -35 1228 -21 q 1126 -51 1182 -49 q 904 -57 1021 -57 q 676 -51 788 -57 q 582 -23 618 -49 q 546 56 546 3 q 619 231 546 128 q 799 453 692 333 q 1226 957 1043 725 l 1226 982 l 549 982 l 549 951 l 1185 951 q 785 476 1017 733 q 598 247 675 354 q 519 63 521 139 q 558 -39 518 -3 q 671 -79 599 -75 q 901 -83 786 -83 q 1122 -79 1003 -83 q 1192 -72 1167 -78 q 1235 -47 1218 -65 q 1263 11 1253 -28 z "},"什":{"ha":1389,"x_min":78,"x_max":1310,"o":"m 1310 649 l 904 649 l 904 -124 l 875 -124 l 875 649 l 456 649 l 456 678 l 875 678 l 875 1124 l 904 1124 l 904 678 l 1310 678 l 1310 649 m 314 -124 l 285 -124 l 285 717 q 184 533 225 604 q 100 397 143 461 l 78 415 q 274 754 185 572 q 428 1122 363 936 l 453 1113 q 314 779 378 904 l 314 -124 z "},"仁":{"ha":1389,"x_min":76,"x_max":1299,"o":"m 314 -124 l 285 -124 l 285 714 q 183 526 222 596 q 101 394 143 457 l 76 415 q 272 755 183 572 q 426 1124 361 938 l 453 1113 q 314 779 378 904 l 314 -124 m 1235 860 l 538 860 l 538 889 l 1235 889 l 1235 860 m 1299 19 l 458 19 l 458 49 l 1299 49 l 1299 19 z "},"仃":{"ha":1389,"x_min":76,"x_max":1303,"o":"m 311 -124 l 282 -124 l 282 713 q 177 517 213 581 q 101 394 142 454 l 76 415 q 271 753 182 571 q 425 1124 360 936 l 453 1113 q 311 778 382 918 l 311 -124 m 960 13 q 940 -72 960 -49 q 860 -94 921 -94 q 704 -82 797 -94 l 700 -49 q 864 -65 810 -65 q 916 -51 901 -65 q 931 0 931 -36 l 931 965 l 496 965 l 496 994 l 1303 994 l 1303 965 l 960 965 l 960 13 z "},"仄":{"ha":1389,"x_min":72,"x_max":1303,"o":"m 269 569 q 229 198 269 351 q 97 -115 189 44 l 72 -97 q 203 213 165 60 q 240 569 240 365 l 240 1049 l 1278 1049 l 1278 1019 l 269 1019 l 269 569 m 1286 -110 q 976 184 1107 17 q 776 540 846 351 q 666 263 735 379 q 509 61 597 146 q 293 -114 421 -24 l 274 -87 q 566 169 457 36 q 729 477 675 301 q 793 906 783 653 l 821 903 q 786 581 811 726 q 1000 195 876 356 q 1303 -85 1124 35 l 1286 -110 z "},"仅":{"ha":1389,"x_min":65,"x_max":1306,"o":"m 281 -126 l 250 -126 l 250 750 q 90 447 167 571 l 65 464 q 236 784 160 613 q 358 1124 313 956 l 385 1117 q 281 817 324 921 l 281 -126 m 1288 -118 q 917 219 1068 40 q 732 45 836 126 q 497 -118 628 -36 l 482 -96 q 900 239 760 69 q 705 583 775 401 q 611 999 635 764 l 497 999 l 497 1026 l 1229 1026 q 1128 588 1203 779 q 933 242 1054 396 q 1306 -93 1089 53 l 1288 -118 m 638 999 q 918 260 674 576 q 1105 593 1035 414 q 1199 999 1175 772 l 638 999 z "},"仆":{"ha":1389,"x_min":75,"x_max":1285,"o":"m 378 -126 l 349 -126 l 349 774 q 215 560 275 650 q 100 406 156 471 l 75 426 q 478 1115 325 740 l 506 1103 q 378 839 432 935 l 378 -126 m 853 -126 l 824 -126 l 824 1113 l 853 1113 l 853 -126 m 1263 325 q 957 624 1125 479 l 975 643 q 1285 347 1132 508 l 1263 325 z "},"仇":{"ha":1389,"x_min":64,"x_max":1306,"o":"m 392 1122 q 282 814 346 968 l 282 -125 l 253 -125 l 253 746 q 90 419 175 568 l 64 438 q 239 781 165 611 q 364 1131 313 950 l 392 1122 m 1297 24 q 1306 207 1303 97 l 1276 219 q 1269 26 1276 118 q 1260 -20 1267 -6 q 1240 -40 1254 -35 q 1193 -49 1225 -46 q 1147 -50 1182 -50 q 1100 -49 1111 -50 q 1056 -39 1069 -46 q 1038 -15 1042 -32 q 1033 40 1033 3 q 1063 821 1033 281 l 724 821 l 724 1124 l 694 1124 l 694 821 l 408 821 l 408 792 l 694 792 q 667 388 697 549 q 572 114 638 226 q 393 -93 506 1 l 413 -117 q 594 90 528 -18 q 692 365 660 199 q 724 792 724 531 l 1032 792 l 1025 639 q 1004 36 1004 160 q 1013 -33 1004 -10 q 1042 -65 1021 -56 q 1106 -78 1063 -75 l 1185 -78 q 1268 -58 1246 -78 q 1297 24 1290 -37 z "},"仉":{"ha":1389,"x_min":76,"x_max":1310,"o":"m 313 -124 l 283 -124 l 283 714 q 179 521 217 586 q 101 394 142 456 l 76 415 q 272 755 183 572 q 426 1124 361 938 l 453 1113 q 313 779 381 914 l 313 -124 m 1303 -11 q 1275 -74 1297 -60 q 1196 -92 1253 -89 q 1092 -93 1157 -93 q 1031 -81 1050 -92 q 1008 -51 1013 -71 q 1003 11 1003 -31 l 1003 999 l 657 999 l 657 589 q 638 303 657 424 q 568 82 619 183 q 421 -111 517 -19 l 399 -89 q 543 96 493 0 q 610 305 593 192 q 628 583 628 418 l 628 1028 l 1032 1028 l 1032 19 q 1035 -31 1032 -17 q 1051 -53 1038 -46 q 1099 -61 1065 -61 q 1154 -62 1122 -62 q 1196 -61 1178 -62 q 1256 -49 1240 -58 q 1275 0 1272 -39 q 1281 171 1281 50 l 1310 160 q 1303 -11 1307 28 z "},"今":{"ha":1389,"x_min":71,"x_max":1306,"o":"m 1288 514 q 683 1032 929 739 q 89 515 450 744 l 71 540 q 419 797 265 660 q 717 1122 574 933 l 740 1106 l 701 1056 q 992 763 847 888 q 1306 542 1138 639 l 1288 514 m 764 522 q 594 729 699 622 l 615 749 q 789 543 717 646 l 764 522 m 682 -97 q 887 156 785 8 q 1033 401 989 303 l 258 401 l 258 431 l 1081 431 q 908 141 1008 288 q 706 -118 808 -6 l 682 -97 z "},"介":{"ha":1389,"x_min":75,"x_max":1307,"o":"m 1290 519 q 956 758 1114 625 q 681 1040 799 890 q 93 518 418 726 l 75 544 q 415 801 251 654 q 710 1126 578 947 l 731 1110 q 696 1064 724 1099 q 980 772 833 897 q 1307 546 1126 646 l 1290 519 m 151 -97 q 335 44 269 -33 q 427 219 400 121 q 454 458 454 318 l 454 615 l 483 615 l 483 458 q 454 206 483 311 q 357 21 425 101 q 169 -125 289 -60 l 151 -97 m 921 -122 l 892 -122 l 892 615 l 921 615 l 921 -122 z "},"仍":{"ha":1389,"x_min":61,"x_max":1272,"o":"m 388 1118 q 279 814 343 967 l 279 -125 l 251 -125 l 251 746 q 88 422 183 590 l 61 438 q 237 781 164 614 q 361 1126 310 949 l 388 1118 m 1229 26 q 1260 279 1247 106 q 1272 649 1272 453 l 1019 649 q 1057 826 1043 738 q 1083 1038 1071 915 l 461 1038 l 461 1010 l 700 1010 l 699 907 q 692 616 697 729 q 671 425 688 503 q 576 149 638 275 q 399 -89 514 24 l 421 -111 q 697 417 635 97 q 720 608 715 510 q 726 871 725 706 q 728 1010 726 964 l 1053 1010 q 1027 819 1043 908 q 983 621 1011 729 l 1246 621 q 1232 285 1246 456 q 1200 31 1218 114 q 1165 -33 1190 -15 q 1094 -50 1140 -50 q 861 -24 999 -49 l 865 -58 q 1099 -81 1013 -81 q 1185 -57 1154 -81 q 1229 26 1217 -33 z "},"从":{"ha":1389,"x_min":82,"x_max":1311,"o":"m 1288 -108 q 1073 200 1165 36 q 926 538 981 364 q 801 200 874 350 q 619 -100 728 50 l 593 -79 q 864 438 775 160 q 989 1119 953 715 l 1019 1115 q 940 594 993 824 q 1095 224 1000 396 q 1311 -86 1190 51 l 1288 -108 m 625 267 q 406 561 532 419 q 106 -104 317 200 l 82 -83 q 294 309 221 119 q 396 680 367 499 q 440 1118 425 861 l 471 1114 q 413 603 451 817 q 540 444 472 533 q 653 289 607 356 l 625 267 z "},"仑":{"ha":1389,"x_min":69,"x_max":1300,"o":"m 1285 554 q 674 1039 899 738 q 417 774 549 881 q 86 561 286 668 l 69 588 q 429 820 292 704 q 697 1124 567 936 l 721 1108 l 690 1065 q 1300 583 914 757 l 1285 554 m 996 -75 q 676 -83 821 -83 q 474 -79 581 -83 q 402 -53 422 -78 q 382 14 382 -29 l 382 631 l 410 631 l 410 313 q 999 563 763 432 l 1014 538 q 410 283 754 399 l 410 25 q 424 -31 410 -12 q 475 -51 439 -50 q 707 -56 588 -56 q 988 -49 842 -56 q 1072 -27 1046 -46 q 1106 22 1099 -8 q 1135 214 1121 93 l 1161 201 q 1128 10 1143 71 q 1086 -52 1118 -32 q 996 -75 1054 -72 z "},"仓":{"ha":1389,"x_min":69,"x_max":1300,"o":"m 690 1065 q 1300 583 914 757 l 1285 554 q 674 1039 899 738 q 417 774 549 881 q 86 561 286 668 l 69 588 q 429 820 292 704 q 697 1124 567 936 l 721 1108 l 690 1065 m 1124 38 q 1153 229 1139 108 l 1179 217 q 1146 25 1161 86 q 1104 -37 1136 -17 q 1014 -60 1072 -57 q 667 -68 839 -68 q 450 -64 556 -68 q 378 -38 399 -62 q 358 29 358 -14 l 358 603 l 982 603 q 972 435 981 546 q 956 267 964 324 q 871 218 947 218 q 643 233 796 218 l 639 263 q 869 243 736 249 q 933 282 928 240 q 957 575 950 390 l 386 575 l 386 40 q 401 -16 386 3 q 451 -36 415 -35 q 701 -40 564 -40 q 1006 -33 860 -40 q 1090 -12 1064 -31 q 1124 38 1117 7 z "},"仔":{"ha":1389,"x_min":61,"x_max":1307,"o":"m 389 1122 q 279 814 343 968 l 279 -125 l 251 -125 l 251 747 q 86 422 186 596 l 61 438 q 235 779 163 610 q 361 1131 308 949 l 389 1122 m 850 660 q 1053 833 956 742 q 1217 1003 1150 924 l 1217 1029 l 549 1029 l 549 1001 l 1179 1001 q 1028 844 1122 931 q 822 672 933 757 l 822 501 l 400 501 l 400 474 l 822 474 l 822 -12 q 808 -65 822 -50 q 751 -79 793 -79 q 615 -65 696 -79 l 619 -99 q 749 -108 690 -108 q 828 -87 807 -108 q 850 -4 850 -65 l 850 474 l 1307 474 l 1307 501 l 850 501 l 850 660 z "},"仕":{"ha":1389,"x_min":76,"x_max":1303,"o":"m 311 -124 l 283 -124 l 283 714 q 183 532 224 603 q 100 397 143 461 l 76 415 q 272 755 183 572 q 426 1124 361 938 l 453 1113 q 311 779 385 924 l 311 -124 m 1303 619 l 872 619 l 872 -31 l 1232 -31 l 1232 -58 l 469 -58 l 469 -31 l 844 -31 l 844 619 l 429 619 l 429 647 l 844 647 l 844 1108 l 872 1108 l 872 647 l 1303 647 l 1303 619 z "},"他":{"ha":1389,"x_min":61,"x_max":1307,"o":"m 389 1122 q 279 814 343 968 l 279 -125 l 251 -125 l 251 746 q 86 422 189 601 l 61 438 q 236 781 163 611 q 361 1131 310 950 l 389 1122 m 588 986 l 588 661 l 864 743 l 864 1094 l 892 1094 l 892 751 l 1222 853 q 1215 534 1221 688 q 1199 319 1208 381 q 1165 265 1193 282 q 1085 249 1138 249 q 972 261 1038 249 l 968 293 q 1085 278 1036 278 q 1171 324 1164 278 q 1187 526 1181 386 q 1194 814 1193 667 l 892 721 l 892 190 l 864 190 l 864 713 l 588 631 l 588 47 q 588 3 588 39 q 665 -44 589 -32 q 908 -56 742 -56 q 1110 -49 1042 -56 q 1203 -29 1178 -42 q 1240 7 1229 -17 q 1265 81 1256 36 q 1279 199 1274 126 l 1307 185 q 1265 -7 1297 56 q 1222 -52 1250 -36 q 1122 -76 1193 -68 q 911 -85 1050 -85 q 656 -72 728 -85 q 572 -37 583 -60 q 560 50 561 -15 l 560 621 l 401 575 l 393 604 l 560 651 l 560 986 l 588 986 z "},"仗":{"ha":1389,"x_min":76,"x_max":1310,"o":"m 313 -124 l 285 -124 l 285 714 q 101 399 179 514 l 76 415 q 272 755 183 572 q 426 1124 361 938 l 451 1113 q 313 779 376 904 l 313 -124 m 1296 -117 q 826 201 1019 -3 q 661 30 758 108 q 431 -117 564 -49 l 414 -92 q 643 49 549 -26 q 807 221 738 125 q 583 621 661 393 l 610 631 q 699 423 644 522 q 824 246 754 324 q 914 483 885 354 q 950 778 943 611 l 443 778 l 443 806 l 950 806 l 950 1115 l 978 1115 l 978 806 l 1300 806 l 1300 778 l 978 778 q 939 467 971 600 q 842 225 907 333 q 1051 43 939 119 q 1310 -89 1164 -33 l 1296 -117 z "},"付":{"ha":1389,"x_min":76,"x_max":1303,"o":"m 311 -124 l 283 -124 l 283 714 q 183 532 224 603 q 100 397 143 461 l 76 415 q 272 755 183 572 q 426 1124 361 938 l 453 1113 q 311 779 385 924 l 311 -124 m 1063 8 q 1042 -74 1063 -51 q 961 -97 1021 -97 q 774 -83 878 -97 l 768 -47 q 963 -67 881 -67 q 1019 -55 1003 -67 q 1035 -7 1035 -43 l 1035 768 l 438 768 l 438 796 l 1035 796 l 1035 1118 l 1063 1118 l 1063 796 l 1303 796 l 1303 768 l 1063 768 l 1063 8 m 806 265 q 579 553 710 408 l 600 571 q 831 286 707 456 l 806 265 z "},"仙":{"ha":1389,"x_min":61,"x_max":1242,"o":"m 389 1122 q 279 814 343 968 l 279 -125 l 251 -125 l 251 746 q 86 422 189 601 l 61 438 q 361 1131 256 767 l 389 1122 m 1214 -117 l 1242 -117 l 1242 839 l 1214 839 l 1214 4 l 893 4 l 893 1110 l 865 1110 l 865 4 l 539 4 l 539 833 l 511 833 l 511 -24 l 1214 -24 l 1214 -117 z "},"仝":{"ha":1389,"x_min":82,"x_max":1297,"o":"m 1278 533 q 956 772 1113 636 q 681 1053 800 907 q 100 539 432 761 l 82 564 q 423 826 256 672 q 694 1122 590 981 l 717 1108 l 694 1079 q 1297 560 963 761 l 1278 533 m 1278 -64 l 117 -64 l 117 -33 l 678 -33 l 678 497 l 275 497 l 275 528 l 1092 528 l 1092 497 l 707 497 l 707 -33 l 1278 -33 l 1278 -64 z "},"仟":{"ha":1389,"x_min":68,"x_max":1300,"o":"m 296 -126 l 267 -126 l 267 764 q 92 435 186 579 l 68 450 q 242 772 164 596 q 376 1129 321 949 l 404 1119 q 296 824 364 993 l 296 -126 m 890 543 l 890 -126 l 861 -126 l 861 543 l 435 543 l 435 572 l 861 572 l 861 1018 q 475 967 725 997 l 463 994 q 849 1044 619 1010 q 1219 1110 1079 1079 l 1238 1082 q 890 1022 1060 1047 l 890 571 l 1300 571 l 1300 543 l 890 543 z "},"仡":{"ha":1389,"x_min":61,"x_max":1304,"o":"m 389 1122 q 279 814 343 968 l 279 -125 l 251 -125 l 251 746 q 86 422 189 601 l 61 436 q 361 1131 258 776 l 389 1122 m 1278 900 l 1278 929 l 639 929 q 735 1106 682 1001 l 711 1118 q 560 860 644 982 q 364 611 476 738 l 386 593 q 513 748 450 665 q 619 900 576 831 l 1278 900 m 1281 11 q 1304 158 1288 44 l 1276 174 l 1272 136 q 1256 22 1265 69 q 1223 -35 1246 -21 q 1144 -51 1200 -49 q 919 -57 1039 -57 q 689 -51 800 -57 q 590 -33 621 -49 q 558 33 558 -18 q 583 86 558 57 q 671 175 608 115 q 1124 610 838 333 l 1124 635 l 536 635 l 536 606 l 1082 606 q 667 208 836 365 q 563 103 593 139 q 532 38 533 67 q 566 -50 528 -25 q 683 -79 604 -75 q 917 -83 799 -83 q 1140 -79 1021 -83 q 1210 -72 1185 -78 q 1253 -47 1236 -65 q 1281 11 1271 -28 z "},"代":{"ha":1389,"x_min":76,"x_max":1303,"o":"m 311 -124 l 283 -124 l 283 714 q 182 528 221 596 q 101 397 143 460 l 76 415 q 272 755 183 572 q 426 1124 361 938 l 451 1114 q 311 778 375 906 l 311 -124 m 1182 -108 q 1045 -30 1124 -108 q 893 218 967 49 q 775 642 819 388 l 711 633 q 426 601 525 610 l 418 632 q 769 671 600 649 q 736 1118 738 903 l 764 1118 q 796 674 763 917 q 1290 744 1121 714 l 1297 717 q 801 644 1081 681 q 913 240 843 403 q 1054 -1 982 76 q 1175 -79 1126 -79 q 1215 -55 1199 -79 q 1245 24 1231 -31 q 1278 179 1260 78 l 1303 158 q 1247 -49 1274 8 q 1182 -108 1221 -107 m 1139 843 q 946 1042 1057 946 l 964 1060 q 1161 864 1085 957 l 1139 843 z "},"令":{"ha":1389,"x_min":76,"x_max":1304,"o":"m 1289 560 q 942 794 1097 672 q 661 1061 788 917 q 405 796 553 926 q 93 563 257 665 l 76 586 q 403 830 246 690 q 681 1125 560 969 l 703 1110 l 678 1079 q 1304 586 938 786 l 1289 560 m 743 593 q 565 793 665 700 l 583 810 q 765 613 668 732 l 743 593 m 849 -104 l 829 -128 q 639 51 754 -53 q 443 221 524 154 l 460 240 q 679 49 561 156 q 883 267 783 149 q 1040 475 982 385 l 244 475 l 244 503 l 1075 503 l 1075 479 q 903 253 1011 382 q 699 31 796 125 l 849 -104 z "},"以":{"ha":1389,"x_min":231,"x_max":1314,"o":"m 1292 -107 q 994 232 1142 85 q 506 -115 831 31 l 490 -87 q 801 85 675 -7 q 999 289 928 178 q 1110 588 1079 417 q 1140 1019 1140 758 l 1140 1111 l 1168 1111 q 1157 742 1168 889 q 1111 476 1146 596 q 1010 257 1076 357 q 1314 -86 1164 94 l 1292 -107 m 231 101 q 242 115 239 108 q 246 139 246 122 l 246 1101 l 274 1101 l 274 117 q 707 340 539 238 l 719 315 q 247 74 522 199 l 231 101 m 797 649 q 569 999 703 826 l 592 1014 q 824 667 718 853 l 797 649 z "},"仨":{"ha":1389,"x_min":76,"x_max":1294,"o":"m 313 -124 l 283 -124 l 283 714 q 179 521 217 586 q 101 394 142 456 l 76 415 q 272 755 183 572 q 426 1124 361 938 l 453 1113 q 313 779 381 914 l 313 -124 m 1242 968 l 494 968 l 494 997 l 1242 997 l 1242 968 m 1211 497 l 535 497 l 535 526 l 1211 526 l 1211 497 m 1294 -47 l 406 -47 l 406 -18 l 1294 -18 l 1294 -47 z "},"仪":{"ha":1389,"x_min":65,"x_max":1307,"o":"m 65 464 q 236 784 160 613 q 358 1124 313 956 l 385 1117 q 281 817 324 921 l 281 -126 l 250 -126 l 250 750 q 90 447 167 571 l 65 464 m 940 811 q 858 946 907 875 q 758 1076 808 1017 l 781 1092 q 967 828 892 960 l 940 811 m 900 267 q 1307 -64 1072 67 l 1288 -93 q 879 243 1049 46 q 446 -89 708 54 l 429 -61 q 860 267 694 83 q 561 942 615 563 l 590 946 q 690 599 615 764 q 881 290 764 433 q 1084 618 1010 439 q 1185 1014 1158 797 l 1214 1008 q 900 267 1160 568 z "},"们":{"ha":1389,"x_min":65,"x_max":1233,"o":"m 281 -126 l 250 -126 l 250 750 q 90 447 167 571 l 65 464 q 236 784 160 613 q 358 1124 313 956 l 385 1117 q 281 817 324 921 l 281 -126 m 697 850 q 635 969 668 915 q 549 1101 603 1024 l 572 1114 q 725 864 663 990 l 697 850 m 1233 36 l 1233 -8 q 1226 -58 1233 -43 q 1197 -81 1219 -74 q 1122 -87 1174 -87 q 963 -81 1035 -87 l 957 -49 q 1142 -60 1054 -60 q 1194 -49 1182 -60 q 1206 -12 1206 -39 l 1206 1017 l 804 1017 l 804 1044 l 1233 1044 l 1233 36 m 542 -126 l 514 -126 l 514 847 l 542 847 l 542 -126 z "},"仰":{"ha":1389,"x_min":68,"x_max":1249,"o":"m 268 763 q 180 581 221 656 q 92 435 139 507 l 68 450 q 243 772 164 597 q 376 1125 322 946 l 401 1117 q 296 824 356 971 l 296 -126 l 268 -126 l 268 763 m 544 151 q 768 258 697 219 l 779 233 q 547 125 713 199 l 511 108 l 496 136 q 513 151 508 142 q 517 182 517 161 l 517 1011 q 814 1111 685 1053 l 832 1088 q 544 990 700 1031 l 544 151 m 1154 100 q 1026 110 1107 100 l 1022 140 q 1144 128 1107 128 q 1206 140 1190 128 q 1221 192 1221 151 l 1221 978 l 919 978 l 919 -126 l 892 -126 l 892 1006 l 1249 1006 l 1249 193 q 1229 119 1249 139 q 1154 100 1210 100 z "},"仲":{"ha":1389,"x_min":76,"x_max":1250,"o":"m 313 -124 l 285 -124 l 285 714 q 101 399 179 514 l 76 415 q 272 755 183 572 q 426 1124 361 938 l 451 1114 q 313 779 374 900 l 313 -124 m 1250 269 l 1222 269 l 1222 358 l 888 358 l 888 -126 l 860 -126 l 860 358 l 536 358 l 536 269 l 508 269 l 508 831 l 860 831 l 860 1118 l 888 1118 l 888 831 l 1250 831 l 1250 269 m 860 386 l 860 803 l 536 803 l 536 386 l 860 386 m 1222 386 l 1222 803 l 888 803 l 888 386 l 1222 386 z "},"仵":{"ha":1389,"x_min":76,"x_max":1310,"o":"m 313 -124 l 285 -124 l 285 713 q 101 399 182 519 l 76 415 q 272 755 183 572 q 426 1124 361 938 l 453 1113 q 313 779 381 914 l 313 -124 m 904 433 l 904 -126 l 876 -126 l 876 433 l 432 433 l 432 461 l 876 461 l 876 883 l 621 883 q 486 618 565 753 l 463 635 q 589 876 528 743 q 678 1117 650 1010 l 704 1108 q 679 1031 700 1096 q 633 911 658 967 l 1219 911 l 1219 882 l 904 882 l 904 461 l 1310 461 l 1310 433 l 904 433 z "},"件":{"ha":1389,"x_min":76,"x_max":1306,"o":"m 313 -124 l 285 -124 l 285 714 q 101 399 179 514 l 76 415 q 272 755 183 572 q 426 1124 361 938 l 453 1115 q 313 779 376 907 l 313 -124 m 894 372 l 894 -126 l 867 -126 l 867 372 l 417 372 l 417 400 l 867 400 l 867 771 l 575 771 q 463 518 506 603 l 436 531 q 547 782 493 644 q 638 1043 601 919 l 664 1035 q 583 799 628 914 l 865 799 l 865 1118 l 894 1118 l 894 799 l 1229 799 l 1229 771 l 894 771 l 894 400 l 1306 400 l 1306 372 l 894 372 z "},"价":{"ha":1389,"x_min":61,"x_max":1313,"o":"m 388 1119 q 279 814 342 963 l 279 -125 l 251 -125 l 251 747 q 88 424 183 592 l 61 438 q 236 781 163 613 q 361 1128 310 949 l 388 1119 m 1313 624 q 838 1060 1035 806 l 871 1108 l 849 1122 q 379 628 679 846 l 399 606 q 822 1036 668 810 q 1293 597 1007 800 l 1313 624 m 432 -115 q 593 34 539 -44 q 666 207 647 113 q 685 444 685 301 l 685 621 l 657 621 l 657 447 q 639 221 657 308 q 569 61 621 133 q 411 -83 517 -11 l 432 -115 m 1019 -126 l 1047 -126 l 1047 615 l 1019 615 l 1019 -126 z "},"任":{"ha":1389,"x_min":86,"x_max":1306,"o":"m 314 -124 l 286 -124 l 286 714 q 192 544 229 607 q 111 414 156 481 l 86 431 q 425 1121 286 725 l 450 1113 q 378 922 408 997 q 314 779 347 846 l 314 -124 m 883 483 l 883 -36 l 1261 -36 l 1261 -64 l 467 -64 l 467 -36 l 856 -36 l 856 483 l 421 483 l 421 511 l 856 511 l 856 979 q 499 942 717 963 l 488 969 q 877 1010 703 986 q 1232 1069 1051 1033 l 1249 1044 q 883 983 1099 1014 l 883 511 l 1306 511 l 1306 483 l 883 483 z "},"份":{"ha":1389,"x_min":67,"x_max":1308,"o":"m 269 767 q 181 584 222 660 q 90 435 139 508 l 67 450 q 242 773 163 596 q 376 1129 322 950 l 404 1119 q 297 824 358 976 l 297 -126 l 269 -126 l 269 767 m 1289 592 q 957 1061 1060 794 l 983 1071 q 1117 821 1031 940 q 1308 617 1204 701 l 1289 592 m 372 583 q 708 1065 586 807 l 735 1051 q 585 801 668 919 q 392 563 503 682 l 372 583 m 1097 11 q 1056 -74 1086 -50 q 965 -97 1025 -97 q 775 -79 892 -97 l 771 -44 q 967 -67 863 -64 q 1038 -48 1015 -67 q 1069 17 1061 -29 q 1092 249 1082 92 q 1101 564 1101 406 l 783 564 q 755 281 778 390 q 659 75 732 172 q 438 -111 586 -22 l 421 -85 q 632 85 560 -7 q 731 290 704 178 q 756 564 757 403 l 529 564 l 529 592 l 1129 592 q 1119 244 1128 396 q 1097 11 1111 92 z "},"仿":{"ha":1389,"x_min":75,"x_max":1317,"o":"m 313 -124 l 285 -124 l 285 714 q 100 397 181 517 l 75 415 q 272 756 182 572 q 426 1124 361 939 l 453 1113 q 313 779 381 914 l 313 -124 m 907 881 q 807 1103 867 997 l 829 1117 q 933 892 889 1007 l 907 881 m 446 824 l 446 851 l 1317 851 l 1317 824 l 754 824 l 754 794 q 746 557 751 613 l 1206 557 q 1196 216 1204 365 q 1174 4 1188 67 q 1126 -73 1158 -51 q 1038 -94 1094 -94 q 936 -90 985 -94 q 819 -74 888 -85 l 815 -39 q 1036 -64 935 -62 q 1108 -47 1082 -64 q 1144 13 1133 -31 q 1167 219 1158 69 q 1176 529 1176 369 l 743 529 q 700 288 729 393 q 607 82 671 183 q 431 -118 543 -19 l 411 -94 q 622 167 554 29 q 706 447 689 304 q 726 824 724 589 l 446 824 z "},"企":{"ha":1389,"x_min":83,"x_max":1299,"o":"m 1283 574 q 956 790 1104 674 q 674 1049 808 906 q 428 803 576 928 q 100 571 279 679 l 83 594 q 436 845 269 703 q 701 1124 603 988 l 724 1108 l 690 1067 q 1299 599 967 772 l 1283 574 m 1296 -61 l 96 -61 l 96 -33 l 374 -33 l 374 560 l 401 560 l 401 -33 l 731 -33 l 731 776 l 758 776 l 758 429 l 1140 429 l 1140 401 l 758 401 l 758 -33 l 1296 -33 l 1296 -61 z "},"伊":{"ha":1389,"x_min":68,"x_max":1306,"o":"m 271 771 q 92 433 189 581 l 68 450 q 244 772 165 597 q 376 1124 322 946 l 403 1115 q 299 824 354 960 l 299 -126 l 271 -126 l 271 771 m 1154 714 l 1154 401 l 761 401 q 637 108 722 232 q 413 -108 551 -17 l 396 -83 q 617 128 538 11 q 732 401 697 246 l 453 401 l 453 429 l 736 429 q 764 714 756 538 l 378 714 l 378 742 l 765 742 q 769 999 769 849 l 506 999 l 506 1026 l 1153 1026 l 1153 742 l 1306 742 l 1306 714 l 1154 714 m 797 999 q 793 742 797 846 l 1126 742 l 1126 999 l 797 999 m 792 714 q 765 429 783 542 l 1126 429 l 1126 714 l 792 714 z "},"伍":{"ha":1389,"x_min":76,"x_max":1308,"o":"m 313 -124 l 285 -124 l 285 713 q 101 397 179 513 l 76 415 q 272 755 183 572 q 426 1124 361 938 l 453 1113 q 313 779 381 914 l 313 -124 m 1308 -60 l 422 -60 l 422 -32 l 674 -32 l 774 551 l 519 551 l 519 579 l 779 579 l 847 986 l 506 986 l 506 1014 l 1260 1014 l 1260 986 l 876 986 l 808 579 l 1146 579 l 1146 -32 l 1308 -32 l 1308 -60 m 1118 -32 l 1118 551 l 801 551 l 701 -32 l 1118 -32 z "},"伎":{"ha":1389,"x_min":65,"x_max":1303,"o":"m 281 -126 l 253 -126 l 253 754 q 169 587 206 654 q 89 450 132 519 l 65 464 q 236 784 160 613 q 358 1124 313 956 l 383 1117 q 281 817 317 907 l 281 -126 m 1290 -112 q 1055 -3 1161 -62 q 857 132 949 56 q 413 -112 683 -11 l 399 -86 q 836 150 681 15 q 576 546 656 321 l 483 546 l 483 575 l 842 575 l 842 864 l 425 864 l 425 892 l 842 892 l 842 1124 l 869 1124 l 869 892 l 1293 892 l 1293 864 l 869 864 l 869 575 l 1179 575 q 876 151 1067 322 q 1303 -83 1046 7 l 1290 -112 m 606 547 q 856 168 676 333 q 1135 547 1035 328 l 606 547 z "},"伏":{"ha":1389,"x_min":86,"x_max":1300,"o":"m 285 715 q 190 542 228 607 q 108 413 153 478 l 86 429 q 426 1122 288 725 l 450 1113 q 313 779 378 914 l 313 -124 l 285 -124 l 285 715 m 1281 -118 q 892 672 939 214 l 819 672 q 750 358 796 493 q 630 113 704 224 q 443 -111 556 1 l 422 -90 q 676 251 590 71 q 792 672 763 432 l 425 672 l 425 701 l 796 701 q 821 1117 813 872 l 847 1115 q 842 1000 844 1078 q 822 700 832 799 l 1292 700 l 1292 672 l 917 672 q 1033 256 942 449 q 1300 -94 1125 64 l 1281 -118 m 1167 815 q 988 1032 1093 921 l 1006 1049 q 1189 833 1106 942 l 1167 815 z "},"伐":{"ha":1389,"x_min":88,"x_max":1300,"o":"m 285 714 q 190 540 225 601 q 111 414 154 478 l 88 429 q 426 1122 285 721 l 451 1113 q 313 778 374 899 l 313 -124 l 285 -124 l 285 714 m 1178 -89 q 1049 -10 1122 -89 q 904 229 975 68 q 450 -51 699 58 l 435 -24 q 673 97 556 25 q 892 256 790 169 q 775 710 815 444 q 432 671 614 689 l 424 700 q 769 738 568 713 q 733 1118 744 901 l 761 1118 q 796 742 767 935 q 1261 804 993 764 l 1265 775 q 801 713 1061 744 q 914 275 844 432 q 1186 581 1076 417 l 1210 564 q 924 249 1083 388 q 1012 78 964 147 q 1103 -26 1060 8 q 1174 -60 1146 -60 q 1219 -35 1203 -60 q 1246 35 1236 -11 q 1275 196 1256 81 l 1300 175 q 1266 10 1281 64 q 1232 -65 1251 -43 q 1178 -89 1213 -87 m 1153 890 q 925 1058 1049 978 l 940 1079 q 1136 940 1018 1028 l 1171 915 l 1153 890 z "},"休":{"ha":1389,"x_min":76,"x_max":1286,"o":"m 314 -124 l 286 -124 l 286 719 q 100 399 176 513 l 76 415 q 272 754 183 572 q 426 1122 361 936 l 451 1114 q 314 779 379 917 l 314 -124 m 1265 43 q 1015 399 1114 215 q 876 761 917 582 l 850 761 l 850 -125 l 822 -125 l 822 761 l 793 761 q 638 385 739 581 q 415 40 536 189 l 393 60 q 608 384 511 201 q 765 761 704 567 l 418 761 l 418 789 l 822 789 l 822 1118 l 850 1118 l 850 789 l 1271 789 l 1271 761 l 901 761 q 1040 405 943 585 q 1286 65 1138 225 l 1265 43 z "},"众":{"ha":1389,"x_min":76,"x_max":1304,"o":"m 1289 563 q 930 783 1082 661 q 667 1063 778 904 q 433 799 582 928 q 93 565 283 671 l 76 589 q 678 1131 488 814 l 703 1117 l 682 1085 q 1304 589 910 764 l 1289 563 m 1271 -110 q 1027 124 1107 11 q 932 336 947 238 q 834 114 914 226 q 568 -115 754 1 l 551 -93 q 774 85 694 -3 q 886 262 854 174 q 918 453 918 350 l 918 689 l 944 689 l 944 453 q 1026 173 944 300 q 1289 -85 1107 46 l 1271 -110 m 633 82 q 429 342 535 236 q 392 229 415 286 q 306 92 368 172 q 133 -75 243 11 l 115 -53 q 308 141 243 49 q 392 315 372 233 q 411 496 411 396 l 411 685 l 439 685 q 435 378 439 499 q 658 100 556 253 l 633 82 z "},"优":{"ha":1389,"x_min":65,"x_max":1294,"o":"m 279 -126 l 250 -126 l 250 750 q 167 584 203 650 q 89 450 131 518 l 65 464 q 236 784 160 613 q 358 1124 313 956 l 385 1115 q 279 814 326 928 l 279 -126 m 778 757 q 740 411 772 556 q 624 138 708 267 q 385 -111 540 8 l 367 -86 q 601 150 517 21 q 717 426 685 279 q 751 757 750 572 l 392 757 l 392 786 l 751 786 q 757 1122 757 919 l 785 1122 q 779 786 785 919 l 1268 786 l 1268 757 l 778 757 m 1144 879 q 953 1060 1054 978 l 968 1078 q 1164 900 1058 1008 l 1144 879 m 1288 7 q 1256 -59 1281 -42 q 1176 -79 1232 -76 q 1107 -81 1153 -81 l 975 -79 q 915 -65 935 -76 q 888 -34 894 -54 q 881 22 882 -14 l 881 615 l 910 615 l 910 31 q 913 -19 910 -4 q 932 -41 917 -33 q 985 -50 947 -49 l 1111 -51 q 1174 -50 1153 -51 q 1239 -35 1219 -47 q 1261 18 1258 -22 q 1265 160 1265 71 l 1294 146 q 1288 7 1292 54 z "},"伙":{"ha":1389,"x_min":86,"x_max":1299,"o":"m 283 714 q 186 535 222 597 q 108 410 150 472 l 86 429 q 426 1124 286 724 l 451 1113 q 313 779 376 904 l 313 -124 l 283 -124 l 283 714 m 1282 -110 q 1010 220 1125 25 q 858 617 896 415 q 731 199 831 368 q 436 -114 631 31 l 417 -90 q 668 153 579 25 q 794 424 757 281 q 844 767 831 567 q 851 1118 851 894 l 881 1118 q 871 690 881 836 q 1021 247 908 447 q 1299 -86 1133 46 l 1282 -110 m 1065 543 q 1221 865 1164 699 l 1244 854 q 1089 526 1189 692 l 1065 543 m 492 501 q 586 863 554 682 l 613 857 q 524 497 581 679 l 492 501 z "},"会":{"ha":1389,"x_min":72,"x_max":1301,"o":"m 1285 614 q 939 796 1088 690 q 672 1043 790 901 q 422 815 560 915 q 86 624 285 714 l 72 651 q 455 874 294 749 q 693 1128 615 1000 l 719 1113 l 689 1069 q 957 822 810 925 q 1300 646 1104 718 l 1285 614 m 1024 625 l 361 625 l 361 654 l 1024 654 l 1024 625 m 1232 -119 q 1132 10 1181 -46 q 276 -75 650 -46 l 265 -40 q 293 -22 282 -36 q 447 160 372 61 q 578 358 521 260 l 104 358 l 104 388 l 1301 388 l 1301 358 l 608 358 q 311 -43 469 128 q 724 -6 490 -29 q 1110 36 958 17 q 935 235 1040 119 l 956 253 q 1128 59 1061 138 q 1256 -100 1194 -19 l 1232 -119 z "},"伞":{"ha":1389,"x_min":74,"x_max":1303,"o":"m 1285 642 q 935 808 1083 711 q 672 1043 788 906 q 427 828 564 921 q 86 650 290 735 l 74 678 q 458 885 299 768 q 693 1128 617 1003 l 719 1113 l 689 1069 q 953 833 807 928 q 1300 672 1100 738 l 1285 642 m 1303 211 l 697 211 l 697 -132 l 669 -132 l 669 211 l 86 211 l 86 239 l 669 239 l 669 821 l 697 821 l 697 239 l 1303 239 l 1303 211 m 893 369 q 1040 649 972 488 l 1064 636 q 918 353 994 479 l 893 369 m 447 343 q 321 631 399 489 l 344 644 q 476 356 418 511 l 447 343 z "},"伟":{"ha":1389,"x_min":65,"x_max":1290,"o":"m 65 464 q 236 784 160 613 q 358 1124 313 956 l 385 1117 q 281 817 324 921 l 281 -126 l 250 -126 l 250 750 q 90 447 167 571 l 65 464 m 860 633 l 858 385 l 1290 385 q 1265 115 1282 206 q 1226 38 1256 60 q 1142 17 1196 17 q 1066 20 1108 17 q 994 29 1024 24 l 990 64 q 1142 47 1076 47 q 1207 64 1183 47 q 1239 121 1231 81 q 1263 357 1256 204 l 858 357 l 858 -128 l 828 -128 l 828 357 l 397 357 l 397 385 l 828 385 l 829 633 l 469 633 l 469 664 l 829 664 l 829 892 l 414 892 l 414 922 l 829 922 l 829 1119 l 860 1119 l 860 922 l 1275 922 l 1275 892 l 860 892 l 860 664 l 1219 664 l 1219 633 l 860 633 z "},"传":{"ha":1389,"x_min":65,"x_max":1311,"o":"m 281 -126 l 250 -126 l 250 750 q 90 447 167 571 l 65 464 q 236 784 160 613 q 358 1124 313 956 l 385 1117 q 281 817 324 921 l 281 -126 m 732 678 q 640 447 682 544 l 1225 447 l 1225 422 q 1063 235 1157 336 q 894 68 968 135 l 1028 -46 l 1096 -106 l 1078 -128 q 646 250 785 132 l 665 269 q 878 86 760 190 q 1038 246 947 149 q 1188 419 1129 343 l 596 421 q 701 678 664 578 l 385 678 l 385 704 l 713 704 q 793 932 760 828 l 483 932 l 483 958 l 801 958 q 851 1124 831 1051 l 881 1115 q 832 958 847 1004 l 1214 958 l 1214 932 l 825 932 q 743 704 778 793 l 1311 704 l 1311 678 l 732 678 z "},"伤":{"ha":1389,"x_min":67,"x_max":1278,"o":"m 281 -126 l 250 -126 l 250 750 q 90 447 167 571 l 67 464 q 237 783 161 613 q 358 1124 313 954 l 385 1117 q 281 817 324 921 l 281 -126 m 1278 900 l 1278 928 l 638 928 q 735 1106 681 999 l 711 1118 q 581 888 644 982 q 406 657 518 793 l 425 639 q 621 900 536 772 l 1278 900 m 1181 13 q 1140 -56 1171 -39 q 1044 -72 1110 -72 q 847 -64 983 -72 l 839 -29 q 1049 -40 965 -40 q 1124 -31 1101 -40 q 1156 21 1146 -21 q 1181 247 1165 71 q 1199 508 1196 424 l 810 508 q 755 262 783 349 q 646 89 726 175 q 400 -90 565 3 l 383 -62 q 624 108 544 25 q 731 275 703 192 q 781 508 758 358 l 454 508 l 454 536 l 786 536 q 807 765 801 656 l 835 764 q 814 536 828 644 l 1229 536 q 1208 244 1224 418 q 1181 13 1192 69 z "},"伥":{"ha":1389,"x_min":65,"x_max":1314,"o":"m 281 -126 l 250 -126 l 250 750 q 90 447 167 571 l 65 464 q 236 784 160 613 q 358 1124 313 956 l 385 1117 q 281 817 324 921 l 281 -126 m 1288 -96 q 1031 165 1122 29 q 871 517 939 301 l 642 517 l 642 -64 q 947 36 828 -10 l 953 10 q 618 -100 829 -39 l 601 -74 q 614 -29 614 -57 l 614 517 l 393 517 l 393 544 l 614 544 l 614 1100 l 642 1100 l 642 544 l 1314 544 l 1314 517 l 900 517 q 1052 183 958 322 q 1306 -71 1146 43 l 1288 -96 m 796 714 q 1183 1010 1032 858 l 1203 990 q 811 692 1028 826 l 796 714 z "},"伦":{"ha":1389,"x_min":65,"x_max":1304,"o":"m 281 -126 l 250 -126 l 250 750 q 90 447 167 571 l 65 464 q 236 784 160 613 q 358 1124 313 956 l 385 1117 q 281 817 324 921 l 281 -126 m 1286 590 q 1010 809 1113 703 q 832 1053 908 915 q 665 818 763 926 q 408 588 567 710 l 390 611 q 663 856 556 733 q 835 1119 771 979 l 860 1108 l 847 1082 q 1022 835 918 943 q 1304 614 1126 726 l 1286 590 m 1093 -75 q 858 -82 951 -82 q 710 -79 774 -82 q 638 -53 658 -78 q 618 14 618 -29 l 618 631 l 646 631 l 646 303 q 1138 531 950 408 l 1153 506 q 922 384 1053 444 q 646 274 790 324 l 646 25 q 660 -31 646 -12 q 711 -51 675 -50 q 879 -56 815 -56 q 1085 -49 939 -56 q 1169 -27 1143 -46 q 1203 22 1196 -8 q 1232 214 1218 93 l 1258 201 q 1225 10 1240 71 q 1183 -52 1215 -32 q 1093 -75 1151 -72 z "},"伪":{"ha":1389,"x_min":65,"x_max":1267,"o":"m 1219 24 q 1165 -75 1204 -50 q 1047 -100 1126 -100 q 842 -83 975 -100 l 838 -46 q 967 -62 915 -57 q 1071 -67 1019 -67 q 1148 -45 1118 -67 q 1189 32 1178 -24 q 1222 337 1208 133 q 1238 728 1236 540 l 819 728 q 778 416 803 532 q 670 174 753 300 q 418 -90 588 47 l 399 -65 q 641 183 561 61 q 746 413 721 304 q 785 686 771 521 l 789 728 l 432 728 l 432 758 l 790 758 q 801 1126 801 897 l 832 1126 q 821 758 831 918 l 1267 758 q 1251 334 1264 553 q 1219 24 1238 115 m 281 -126 l 250 -126 l 250 750 q 90 447 167 571 l 65 464 q 236 784 160 613 q 358 1124 313 956 l 385 1117 q 281 817 324 921 l 281 -126 m 663 842 q 503 1051 590 956 l 524 1071 q 689 860 606 981 l 663 842 m 1097 201 q 894 443 1015 322 l 917 464 q 1124 222 1033 344 l 1097 201 z "},"伯":{"ha":1389,"x_min":90,"x_max":1226,"o":"m 313 -124 l 285 -124 l 285 711 q 197 549 233 611 q 114 417 161 488 l 90 433 q 426 1124 285 719 l 451 1113 q 313 778 374 899 l 313 -124 m 1199 -126 l 1199 -44 l 585 -44 l 585 -126 l 557 -126 l 557 872 l 793 872 q 851 990 826 932 q 901 1122 876 1047 l 926 1113 q 873 976 896 1029 q 824 872 850 922 l 1226 872 l 1226 -125 l 1199 -126 m 1199 451 l 1199 844 l 585 844 l 585 451 l 1199 451 m 1199 -17 l 1199 424 l 585 424 l 585 -17 l 1199 -17 z "},"估":{"ha":1389,"x_min":68,"x_max":1307,"o":"m 1307 778 l 871 778 l 871 439 l 1179 439 l 1179 -126 l 1151 -126 l 1151 -43 l 563 -43 l 563 -126 l 535 -126 l 535 439 l 843 439 l 843 778 l 418 778 l 418 806 l 843 806 l 843 1124 l 871 1124 l 871 806 l 1307 806 l 1307 778 m 296 -126 l 268 -126 l 268 765 q 178 581 221 657 q 90 433 136 504 l 68 450 q 244 771 165 597 q 376 1122 322 944 l 401 1113 q 296 824 361 986 l 296 -126 m 1151 -15 l 1151 411 l 563 411 l 563 -15 l 1151 -15 z "},"伴":{"ha":1389,"x_min":68,"x_max":1315,"o":"m 296 -126 l 268 -126 l 268 765 q 92 435 189 583 l 68 450 q 242 772 164 596 q 376 1129 321 949 l 401 1119 q 296 824 351 961 l 296 -126 m 1315 271 l 869 271 l 869 -126 l 842 -126 l 842 271 l 394 271 l 394 299 l 842 299 l 842 568 l 464 568 l 464 596 l 842 596 l 842 1122 l 869 1122 l 869 596 l 1244 596 l 1244 568 l 869 568 l 869 299 l 1315 299 l 1315 271 m 1043 743 q 1122 868 1085 799 q 1186 1004 1160 938 l 1208 993 q 1144 854 1182 925 q 1065 726 1106 783 l 1043 743 m 647 722 q 499 989 594 843 l 519 1003 q 604 867 563 940 q 672 736 646 794 l 647 722 z "},"伶":{"ha":1389,"x_min":65,"x_max":1310,"o":"m 1290 571 q 822 1049 1019 779 q 368 564 663 801 l 349 588 q 622 839 496 701 q 840 1128 749 976 l 864 1113 q 851 1094 857 1104 q 838 1075 846 1085 q 1054 815 940 932 q 1310 599 1168 699 l 1290 571 m 278 -126 l 250 -126 l 250 753 q 90 447 161 561 l 65 464 q 236 784 160 613 q 358 1124 313 956 l 385 1117 q 278 817 332 950 l 278 -126 m 894 561 q 758 756 849 647 l 779 772 q 918 579 858 681 l 894 561 m 844 43 q 954 -51 885 10 q 1007 -99 971 -68 l 985 -124 q 679 143 885 -26 l 593 214 l 611 236 q 822 61 733 139 q 998 258 913 150 q 1131 450 1083 367 l 476 450 l 476 479 l 1185 479 q 1025 250 1115 365 q 844 43 935 135 z "},"伸":{"ha":1389,"x_min":68,"x_max":1242,"o":"m 296 -126 l 268 -126 l 268 765 q 92 433 188 579 l 68 450 q 242 772 164 596 q 376 1129 321 949 l 403 1119 q 296 824 357 976 l 296 -126 m 1242 178 l 1214 178 l 1214 272 l 882 272 l 882 -126 l 854 -126 l 854 272 l 519 272 l 519 183 l 492 183 l 492 876 l 854 876 l 854 1124 l 882 1124 l 882 876 l 1242 876 l 1242 178 m 854 600 l 854 849 l 519 849 l 519 600 l 854 600 m 1214 600 l 1214 849 l 882 849 l 882 600 l 1214 600 m 854 300 l 854 572 l 519 572 l 519 300 l 854 300 m 1214 300 l 1214 572 l 882 572 l 882 300 l 1214 300 z "},"伺":{"ha":1389,"x_min":65,"x_max":1232,"o":"m 279 -126 l 251 -126 l 251 750 q 169 585 206 651 q 88 447 132 519 l 65 464 q 236 784 160 613 q 358 1124 313 956 l 385 1117 q 279 814 324 924 l 279 -126 m 981 -58 q 1132 -74 1079 -74 q 1190 -62 1175 -74 q 1204 -14 1204 -50 l 1204 1018 l 489 1018 l 489 1046 l 1232 1046 l 1232 -3 q 1224 -67 1232 -46 q 1194 -95 1215 -87 q 1132 -103 1174 -103 q 986 -90 1074 -103 l 981 -58 m 493 774 l 493 801 l 1032 801 l 1032 774 l 493 774 m 981 138 l 954 138 l 954 213 l 586 213 l 586 135 l 560 135 l 560 551 l 981 551 l 981 138 m 954 239 l 954 524 l 586 524 l 586 239 l 954 239 z "},"似":{"ha":1389,"x_min":68,"x_max":1308,"o":"m 299 -126 l 271 -126 l 271 767 q 182 584 225 660 q 90 433 139 508 l 68 450 q 244 772 165 597 q 376 1124 322 946 l 403 1115 q 299 826 358 974 l 299 -126 m 1283 -108 q 1039 256 1182 65 q 876 57 972 147 q 640 -117 779 -33 l 624 -90 q 969 203 857 46 q 1115 557 1081 360 q 1150 1085 1150 754 l 1178 1085 q 1152 612 1178 796 q 1053 285 1126 428 q 1308 -90 1204 78 l 1283 -108 m 504 113 q 522 134 517 121 q 526 171 526 147 l 526 1076 l 556 1076 l 556 133 q 821 314 726 238 l 838 290 q 710 198 782 246 q 525 83 638 150 l 504 113 m 881 568 q 772 926 846 739 l 797 938 q 911 579 871 746 l 881 568 z "},"伽":{"ha":1389,"x_min":61,"x_max":1243,"o":"m 311 -92 q 440 172 396 39 q 499 449 485 304 q 514 799 514 593 l 514 817 l 340 817 l 340 844 l 514 844 l 514 1126 l 542 1126 l 542 844 l 776 844 q 768 324 776 546 q 744 10 760 103 q 702 -66 733 -44 q 617 -87 671 -87 q 499 -76 582 -87 l 496 -44 q 557 -54 521 -50 q 614 -58 593 -58 q 688 -42 665 -58 q 717 22 710 -26 q 738 329 729 107 q 747 815 747 551 l 540 815 l 540 799 q 525 441 540 590 q 465 157 510 292 q 336 -110 421 22 l 311 -92 m 224 750 q 163 610 193 672 q 83 456 132 547 l 61 471 q 213 791 143 615 q 319 1122 282 967 l 344 1115 q 253 814 301 944 l 253 -126 l 224 -126 l 224 750 m 1243 -89 l 1214 -89 l 1214 -8 l 949 -8 l 949 -94 l 919 -94 l 919 950 l 1243 950 l 1243 -89 m 1214 21 l 1214 921 l 949 921 l 949 21 l 1214 21 z "},"佃":{"ha":1389,"x_min":68,"x_max":1225,"o":"m 296 -126 l 267 -126 l 267 764 q 90 433 188 582 l 68 450 q 242 772 164 596 q 376 1129 321 949 l 403 1119 q 296 824 357 976 l 296 -126 m 1225 -126 l 1196 -126 l 1196 -44 l 539 -44 l 539 -126 l 510 -126 l 510 1008 l 1225 1008 l 1225 -126 m 853 521 l 853 979 l 539 979 l 539 521 l 853 521 m 1196 521 l 1196 979 l 882 979 l 882 521 l 1196 521 m 853 -15 l 853 492 l 539 492 l 539 -15 l 853 -15 m 1196 -15 l 1196 492 l 882 492 l 882 -15 l 1196 -15 z "},"但":{"ha":1389,"x_min":68,"x_max":1301,"o":"m 296 -126 l 267 -126 l 267 765 q 177 581 219 657 q 89 433 135 504 l 68 450 q 243 772 164 597 q 376 1125 322 946 l 401 1115 q 296 825 360 983 l 296 -126 m 1183 225 l 560 225 l 560 1006 l 1183 1006 l 1183 225 m 1154 650 l 1154 976 l 588 976 l 588 650 l 1154 650 m 1154 254 l 1154 621 l 588 621 l 588 254 l 1154 254 m 1301 -62 l 421 -62 l 421 -33 l 1301 -33 l 1301 -62 z "},"位":{"ha":1389,"x_min":68,"x_max":1308,"o":"m 297 -126 l 267 -126 l 267 764 q 92 433 185 575 l 68 450 q 242 772 164 596 q 376 1129 321 949 l 403 1119 q 297 822 350 954 l 297 -126 m 893 847 q 732 1081 828 960 l 753 1097 q 917 864 840 990 l 893 847 m 1283 769 l 443 769 l 443 799 l 1283 799 l 1283 769 m 965 101 q 1051 342 1013 208 q 1115 614 1089 476 l 1143 607 q 993 89 1089 336 l 965 101 m 717 97 q 563 599 674 308 l 590 610 q 747 108 689 336 l 717 97 m 1308 -53 l 406 -53 l 406 -21 l 1308 -21 l 1308 -53 z "},"低":{"ha":1389,"x_min":78,"x_max":1299,"o":"m 271 710 q 182 542 217 604 q 103 415 147 481 l 78 433 q 414 1124 272 719 l 440 1113 q 368 921 399 999 q 303 776 338 843 l 303 -124 l 271 -124 l 271 710 m 1210 -89 q 1110 -21 1164 -89 q 1008 196 1056 47 q 933 571 960 344 l 579 571 l 579 -21 q 713 13 658 -3 q 835 50 768 29 l 839 21 q 544 -60 676 -31 l 532 -29 q 545 -15 542 -25 q 549 14 549 -4 l 549 997 q 882 1033 731 1014 q 1210 1082 1033 1053 l 1225 1051 q 985 1017 1204 1049 l 942 1011 q 958 600 942 803 l 1288 600 l 1288 569 l 963 569 q 1033 219 988 361 q 1126 11 1078 78 q 1211 -56 1175 -56 q 1247 -11 1235 -56 q 1269 154 1258 33 l 1299 136 q 1278 -2 1289 46 q 1252 -69 1268 -50 q 1210 -89 1236 -89 m 913 1007 q 579 971 726 983 l 579 601 l 929 601 q 913 1007 913 799 m 964 -82 q 821 182 906 57 l 843 196 q 989 -68 921 81 l 964 -82 z "},"住":{"ha":1389,"x_min":68,"x_max":1311,"o":"m 299 -126 l 267 -126 l 267 761 q 178 578 219 653 q 90 432 136 503 l 68 450 q 243 772 164 596 q 376 1128 322 949 l 403 1118 q 299 824 350 950 l 299 -126 m 900 869 q 711 1082 828 969 l 731 1101 q 924 890 838 1001 l 900 869 m 1311 -74 l 406 -74 l 406 -43 l 850 -43 l 850 399 l 506 399 l 506 429 l 850 429 l 850 793 l 439 793 l 439 824 l 1286 824 l 1286 793 l 879 793 l 879 429 l 1218 429 l 1218 399 l 879 399 l 879 -43 l 1311 -43 l 1311 -74 z "},"佐":{"ha":1389,"x_min":65,"x_max":1306,"o":"m 279 -126 l 250 -126 l 250 753 q 89 447 165 571 l 65 464 q 236 784 160 613 q 358 1124 313 956 l 383 1115 q 279 817 324 925 l 279 -126 m 747 831 q 588 461 679 632 l 1219 461 l 1219 432 l 903 432 l 903 -40 l 1304 -40 l 1304 -69 l 442 -69 l 442 -40 l 874 -40 l 874 432 l 571 432 q 365 131 479 272 l 343 150 q 567 481 467 292 q 719 831 668 671 l 383 831 l 383 860 l 729 860 q 800 1114 760 950 l 825 1107 q 756 860 793 967 l 1306 860 l 1306 831 l 747 831 z "},"佑":{"ha":1389,"x_min":65,"x_max":1306,"o":"m 278 -126 l 250 -126 l 250 753 q 89 447 165 571 l 65 464 q 236 784 160 613 q 358 1124 313 956 l 385 1117 q 278 817 332 950 l 278 -126 m 357 163 q 565 483 476 311 q 707 807 653 654 l 378 807 l 378 838 l 717 838 q 796 1107 765 967 l 824 1099 q 744 838 786 953 l 1306 838 l 1306 808 l 736 808 q 588 472 683 657 q 378 143 492 286 l 357 163 m 600 454 l 1176 454 l 1176 -126 l 1146 -126 l 1146 -46 l 628 -46 l 628 -126 l 600 -126 l 600 454 m 1147 -14 l 1147 425 l 629 425 l 629 -14 l 1147 -14 z "},"体":{"ha":1389,"x_min":86,"x_max":1299,"o":"m 283 711 q 188 535 224 599 q 108 408 151 472 l 86 429 q 426 1124 286 724 l 451 1114 q 313 775 371 892 l 313 -124 l 283 -124 l 283 711 m 1279 144 q 1031 455 1135 289 q 867 797 928 621 l 849 797 l 849 214 l 1081 214 l 1081 185 l 849 185 l 849 -126 l 819 -126 l 819 185 l 565 185 l 565 214 l 819 214 l 819 797 l 803 797 q 629 459 735 628 q 397 150 524 290 l 376 171 q 610 480 500 303 q 774 797 721 657 l 417 797 l 417 826 l 819 826 l 819 1121 l 849 1121 l 849 826 l 1281 826 l 1281 797 l 894 797 q 1061 456 957 618 q 1299 165 1165 294 l 1279 144 z "},"何":{"ha":1389,"x_min":68,"x_max":1321,"o":"m 296 -126 l 268 -126 l 268 763 q 181 583 222 656 q 90 435 140 510 l 68 450 q 244 773 164 596 q 378 1129 324 950 l 403 1119 q 296 824 357 976 l 296 -126 m 1174 -3 q 1153 -85 1174 -64 q 1083 -107 1133 -107 q 936 -97 1021 -107 l 932 -64 q 1081 -78 1029 -78 q 1133 -62 1121 -78 q 1146 -7 1146 -47 l 1146 1008 l 467 1008 l 467 1036 l 1321 1036 l 1321 1008 l 1174 1008 l 1174 -3 m 940 201 l 913 201 l 913 289 l 565 289 l 565 201 l 538 201 l 538 733 l 940 733 l 940 201 m 913 317 l 913 706 l 565 706 l 565 317 l 913 317 z "},"佘":{"ha":1389,"x_min":81,"x_max":1306,"o":"m 1290 613 q 965 810 1108 704 q 689 1051 822 917 q 96 593 428 775 l 81 618 q 431 849 267 715 q 711 1118 596 983 l 732 1101 l 706 1072 q 1306 639 983 788 l 1290 613 m 956 685 l 436 685 l 436 713 l 956 713 l 956 685 m 733 -14 q 724 -78 733 -57 q 694 -106 715 -99 q 629 -114 672 -114 q 486 -104 564 -114 l 482 -71 q 632 -85 576 -85 q 690 -73 674 -85 q 706 -25 706 -61 l 706 419 l 132 419 l 132 447 l 1246 447 l 1246 419 l 733 419 l 733 -14 m 1240 -29 q 951 274 1111 126 l 969 292 q 1263 -7 1118 158 l 1240 -29 m 142 3 q 432 283 289 113 l 451 267 q 161 -21 314 103 l 142 3 z "},"余":{"ha":1389,"x_min":81,"x_max":1306,"o":"m 1290 613 q 965 810 1108 704 q 689 1051 822 917 q 96 593 428 775 l 81 618 q 431 849 267 715 q 711 1118 596 983 l 732 1101 l 706 1072 q 1306 639 983 788 l 1290 613 m 728 -15 q 708 -94 728 -75 q 633 -114 689 -114 q 534 -110 575 -114 q 483 -106 493 -107 l 478 -72 q 638 -85 568 -85 q 688 -71 676 -85 q 700 -18 700 -57 l 700 419 l 132 419 l 132 447 l 700 447 l 700 693 l 394 693 l 394 721 l 1006 721 l 1006 693 l 728 693 l 728 447 l 1246 447 l 1246 419 l 728 419 l 728 -15 m 1240 -29 q 951 271 1114 124 l 969 290 q 1263 -8 1121 156 l 1240 -29 m 142 3 q 432 283 297 119 l 451 267 q 161 -19 318 107 l 142 3 z "},"佛":{"ha":1389,"x_min":65,"x_max":1290,"o":"m 278 -126 l 250 -126 l 250 753 q 88 447 169 581 l 65 464 q 236 784 160 613 q 358 1124 313 956 l 383 1117 q 278 817 326 935 l 278 -126 m 1276 136 q 1240 59 1267 78 q 1147 40 1214 40 l 1054 43 l 1047 74 q 1147 68 1079 71 q 1221 81 1200 69 q 1250 138 1242 93 q 1260 244 1256 171 q 1264 379 1264 318 l 971 379 l 971 -126 l 943 -126 l 943 379 l 708 379 q 633 88 697 208 q 418 -117 568 -32 l 403 -92 q 609 101 546 -14 q 681 379 672 217 l 401 379 q 433 674 425 546 l 681 674 l 681 906 l 421 906 l 421 932 l 681 932 l 681 1122 l 708 1122 l 708 932 l 943 932 l 943 1122 l 971 1122 l 971 932 l 1235 932 l 1235 647 l 971 647 l 971 406 l 1290 406 q 1276 136 1290 233 m 943 674 l 943 906 l 708 906 l 708 674 l 943 674 m 1208 674 l 1208 906 l 971 906 l 971 674 l 1208 674 m 457 647 q 431 406 444 499 l 681 406 l 681 647 l 457 647 m 943 406 l 943 647 l 708 647 l 708 406 l 943 406 z "},"作":{"ha":1389,"x_min":86,"x_max":1307,"o":"m 313 -124 l 285 -124 l 285 711 q 192 544 229 607 q 110 413 156 481 l 86 429 q 426 1124 286 724 l 451 1114 q 313 776 371 890 l 313 -124 m 811 856 l 811 590 l 1240 590 l 1240 563 l 811 563 l 811 283 l 1239 283 l 1239 256 l 811 256 l 811 -126 l 783 -126 l 783 856 l 622 856 q 451 533 540 675 l 428 550 q 696 1118 588 793 l 721 1110 q 633 883 688 1010 l 1307 883 l 1307 856 l 811 856 z "},"你":{"ha":1389,"x_min":86,"x_max":1283,"o":"m 313 -124 l 283 -124 l 283 711 q 187 534 222 596 q 110 410 151 472 l 86 429 q 426 1124 286 724 l 453 1113 q 313 776 376 904 l 313 -124 m 1189 664 q 1249 863 1226 750 l 618 863 q 558 729 589 789 q 475 572 528 669 l 450 589 q 679 1121 601 844 l 707 1111 q 631 892 653 947 l 1283 892 q 1215 651 1250 743 l 1189 664 m 810 -106 q 664 -94 750 -106 l 658 -61 q 810 -76 758 -76 q 866 -61 850 -76 q 882 -8 882 -46 l 882 733 l 911 733 l 911 3 q 890 -81 911 -57 q 810 -106 868 -106 m 1235 64 q 1156 312 1204 175 q 1061 554 1107 449 l 1086 567 q 1183 320 1133 457 q 1264 75 1233 183 l 1235 64 m 482 90 q 663 557 589 290 l 689 549 q 508 75 619 294 l 482 90 z "},"佣":{"ha":1389,"x_min":68,"x_max":1240,"o":"m 296 -126 l 267 -126 l 267 765 q 90 433 186 579 l 68 450 q 242 772 164 596 q 376 1129 321 949 l 403 1119 q 296 824 357 976 l 296 -126 m 1142 -94 q 1015 -85 1093 -94 l 1008 -53 q 1144 -65 1093 -65 q 1197 -52 1182 -65 q 1213 0 1213 -39 l 1213 361 l 886 361 l 886 -72 l 857 -72 l 857 361 l 540 361 q 502 110 533 222 q 400 -112 471 -3 l 378 -94 q 473 104 443 7 q 510 301 503 201 q 517 579 517 401 l 517 1036 l 1240 1036 l 1240 4 q 1219 -74 1240 -53 q 1142 -94 1199 -94 m 857 710 l 857 1010 l 544 1010 l 544 710 l 857 710 m 1213 710 l 1213 1010 l 886 1010 l 886 710 l 1213 710 m 544 683 q 540 388 544 482 l 857 388 l 857 683 l 544 683 m 1213 388 l 1213 683 l 886 683 l 886 388 l 1213 388 z "},"佥":{"ha":1389,"x_min":78,"x_max":1299,"o":"m 1282 631 q 938 802 1085 701 q 672 1043 790 903 q 422 815 557 914 q 90 635 288 717 l 78 661 q 456 873 299 750 q 693 1125 614 996 l 718 1110 l 688 1067 q 955 822 810 921 q 1296 658 1100 722 l 1282 631 m 967 679 l 393 679 l 393 707 l 967 707 l 967 679 m 710 208 q 610 542 678 351 l 635 551 q 739 218 697 389 l 710 208 m 849 51 q 1128 515 1019 268 l 1151 503 q 871 33 1051 269 l 849 51 m 383 176 q 321 327 356 254 q 238 492 286 400 l 261 506 q 410 190 349 344 l 383 176 m 1299 -57 l 106 -57 l 106 -29 l 1299 -29 l 1299 -57 z "},"佩":{"ha":1389,"x_min":65,"x_max":1319,"o":"m 279 -126 l 250 -126 l 250 751 q 90 447 164 567 l 65 464 q 235 783 160 611 q 357 1125 310 956 l 385 1117 q 279 815 326 929 l 279 -126 m 1239 -81 q 1158 55 1179 -81 q 1136 450 1136 190 l 1136 1021 l 510 1021 l 510 393 q 478 123 510 238 q 375 -107 447 8 l 350 -87 q 453 132 424 21 q 482 399 482 243 l 482 1050 l 1165 1050 l 1165 457 q 1184 92 1165 235 q 1240 -50 1203 -50 q 1271 -1 1258 -50 q 1290 135 1283 49 l 1319 115 q 1301 -5 1310 36 q 1277 -63 1292 -46 q 1239 -81 1263 -81 m 839 846 l 839 621 l 1022 621 l 1022 213 q 1009 153 1022 169 q 950 138 996 138 l 892 140 l 885 171 q 956 164 929 164 q 993 173 985 164 q 1001 213 1001 182 l 1001 593 l 839 593 l 839 -106 l 813 -106 l 813 593 l 665 593 l 665 114 l 639 114 l 639 621 l 813 621 l 813 846 l 592 846 l 592 872 l 1065 872 l 1065 846 l 839 846 z "},"佯":{"ha":1389,"x_min":68,"x_max":1311,"o":"m 296 -126 l 267 -126 l 267 765 q 92 432 181 569 l 68 450 q 242 772 164 596 q 376 1129 321 949 l 404 1119 q 296 824 364 993 l 296 -126 m 954 907 q 1090 1107 1035 996 l 1111 1096 q 975 890 1049 976 l 954 907 m 721 889 q 585 1083 665 988 l 604 1099 q 746 906 681 1008 l 721 889 m 1311 232 l 864 232 l 864 -126 l 836 -126 l 836 232 l 400 232 l 400 263 l 836 263 l 836 538 l 515 538 l 515 567 l 836 567 l 836 815 l 456 815 l 456 844 l 1267 844 l 1267 815 l 864 815 l 864 567 l 1197 567 l 1197 538 l 864 538 l 864 263 l 1311 263 l 1311 232 z "},"佰":{"ha":1389,"x_min":65,"x_max":1306,"o":"m 278 -126 l 250 -126 l 250 753 q 90 447 161 561 l 65 464 q 236 784 160 613 q 358 1124 313 956 l 385 1117 q 278 817 332 950 l 278 -126 m 886 1003 q 825 746 861 871 l 1207 746 l 1207 -125 l 1175 -125 l 1175 -44 l 568 -44 l 568 -126 l 538 -126 l 538 746 l 794 746 q 856 1001 835 878 l 435 1001 l 435 1032 l 1306 1032 l 1306 1003 l 886 1003 m 1175 390 l 1175 717 l 568 717 l 568 390 l 1175 390 m 1175 -14 l 1175 361 l 568 361 l 568 -14 l 1175 -14 z "},"佳":{"ha":1389,"x_min":68,"x_max":1317,"o":"m 296 -126 l 267 -126 l 267 765 q 92 432 181 569 l 68 450 q 242 772 164 596 q 376 1129 321 949 l 404 1119 q 296 824 364 993 l 296 -126 m 1289 593 l 438 593 l 438 622 l 842 622 l 842 888 l 519 888 l 519 917 l 842 917 l 842 1122 l 871 1122 l 871 917 l 1207 917 l 1207 888 l 871 888 l 871 622 l 1289 622 l 1289 593 m 1317 -72 l 394 -72 l 394 -42 l 842 -42 l 842 276 l 482 276 l 482 306 l 842 306 l 842 513 l 871 513 l 871 306 l 1235 306 l 1235 276 l 871 276 l 871 -42 l 1317 -42 l 1317 -72 z "},"佼":{"ha":1389,"x_min":69,"x_max":1310,"o":"m 867 936 q 816 1028 846 981 q 760 1111 786 1076 l 781 1125 q 890 951 843 1044 l 867 936 m 296 -126 l 267 -126 l 267 753 q 92 457 179 581 l 69 476 q 254 787 169 615 q 388 1122 339 958 l 414 1113 q 296 814 354 944 l 296 -126 m 1296 889 l 428 889 l 428 918 l 1294 918 l 1296 889 m 1254 513 q 1117 656 1197 578 q 969 789 1036 733 l 988 808 q 1128 681 1049 757 q 1275 535 1208 606 l 1254 513 m 438 546 q 588 669 510 596 q 719 806 667 742 l 739 788 q 605 649 685 725 q 456 522 525 574 l 438 546 m 1293 -125 q 1058 -10 1161 -69 q 865 129 956 50 q 660 -10 771 47 q 403 -118 550 -68 l 388 -90 q 643 13 531 -44 q 844 146 756 69 q 611 501 690 304 l 636 513 q 865 165 715 308 q 1075 535 1013 315 l 1101 524 q 1013 315 1065 407 q 885 146 960 224 q 1080 10 978 68 q 1310 -96 1182 -47 l 1293 -125 z "},"使":{"ha":1389,"x_min":69,"x_max":1317,"o":"m 1300 -121 q 996 -27 1126 -78 q 758 89 865 24 q 608 -29 697 21 q 392 -118 519 -79 l 378 -89 q 591 -7 504 -53 q 736 104 678 39 q 517 279 611 188 l 539 299 q 753 128 633 203 q 811 251 792 189 q 836 403 831 314 l 492 403 l 492 733 l 835 733 l 835 924 l 436 924 l 436 951 l 835 951 l 835 1124 l 863 1124 l 863 951 l 1301 951 l 1301 924 l 863 924 l 863 733 l 1211 733 l 1211 403 l 864 403 q 838 245 860 314 q 775 113 817 176 q 1009 -1 882 46 q 1317 -90 1136 -49 l 1300 -121 m 296 -126 l 265 -126 l 265 751 q 92 458 179 582 l 69 476 q 254 787 169 615 q 388 1122 339 958 l 414 1113 q 296 814 354 944 l 296 -126 m 836 431 l 836 706 l 522 706 l 522 431 l 836 431 m 1183 431 l 1183 706 l 864 706 l 864 431 l 1183 431 z "},"侄":{"ha":1389,"x_min":69,"x_max":1313,"o":"m 296 -126 l 267 -126 l 267 756 q 92 460 179 583 l 69 476 q 254 787 169 615 q 388 1122 339 958 l 414 1114 q 296 814 351 939 l 296 -126 m 1285 475 q 1192 603 1232 553 q 842 568 972 579 q 553 549 711 557 l 544 579 q 564 596 554 581 q 578 617 574 611 q 782 1001 707 813 l 454 1001 l 454 1028 l 1290 1028 l 1290 1001 l 810 1001 q 706 786 771 908 q 585 579 642 664 q 1175 626 857 590 q 1008 839 1076 758 l 1028 856 q 1236 586 1114 751 q 1307 492 1288 518 l 1285 475 m 1313 -68 l 396 -68 l 396 -42 l 853 -42 l 853 254 l 486 254 l 486 281 l 853 281 l 853 501 l 879 501 l 879 281 l 1244 281 l 1244 254 l 879 254 l 879 -42 l 1313 -42 l 1313 -68 z "},"侈":{"ha":1389,"x_min":69,"x_max":1279,"o":"m 296 -126 l 267 -126 l 267 753 q 92 458 182 585 l 69 476 q 254 787 169 615 q 388 1122 339 958 l 414 1113 q 296 813 351 938 l 296 -126 m 407 422 q 799 610 649 515 q 639 776 724 703 l 657 796 q 821 624 744 718 q 1133 917 1010 753 l 672 917 q 451 725 561 811 l 433 747 q 656 940 556 840 q 810 1121 756 1039 l 833 1104 q 696 943 767 1017 l 1158 943 l 1158 907 q 845 610 1015 726 q 422 396 675 494 l 407 422 m 410 -94 q 911 110 694 -25 q 774 247 849 185 l 792 267 q 935 125 882 186 q 1254 440 1143 260 l 860 440 q 514 189 693 297 l 496 214 q 780 408 658 308 q 1001 629 901 508 l 1022 611 q 883 468 963 543 l 1279 468 l 1279 431 q 424 -124 1033 44 l 410 -94 z "},"例":{"ha":1389,"x_min":65,"x_max":1229,"o":"m 261 -126 l 232 -126 l 232 718 q 89 419 161 547 l 65 436 q 226 770 154 592 q 340 1124 297 949 l 368 1117 q 261 782 307 907 l 261 -126 m 1131 -100 q 985 -89 1076 -100 l 981 -53 q 1131 -68 1069 -68 q 1187 -55 1172 -68 q 1201 -4 1201 -42 l 1201 1124 l 1229 1124 l 1229 -1 q 1208 -80 1229 -61 q 1131 -100 1186 -99 m 635 1013 q 546 763 603 899 l 854 763 q 767 405 825 556 q 617 135 710 254 q 379 -106 524 15 l 360 -81 q 560 115 475 14 q 704 335 644 217 q 514 457 618 400 l 529 481 q 718 361 633 419 q 822 735 786 513 l 535 735 q 379 442 461 572 l 357 458 q 502 728 446 606 q 608 1013 558 850 l 415 1013 l 415 1040 l 896 1040 l 896 1013 l 635 1013 m 1010 190 l 982 190 l 982 949 l 1010 949 l 1010 190 z "},"侍":{"ha":1389,"x_min":69,"x_max":1321,"o":"m 1306 660 l 417 660 l 417 688 l 843 688 l 843 917 l 507 917 l 507 944 l 843 944 l 843 1128 l 871 1128 l 871 944 l 1218 944 l 1218 917 l 871 917 l 871 688 l 1306 688 l 1306 660 m 296 -126 l 267 -126 l 267 756 q 92 458 176 578 l 69 476 q 254 787 169 615 q 388 1122 339 958 l 414 1113 q 296 814 354 944 l 296 -126 m 1053 1 q 1046 -57 1053 -36 q 1017 -89 1039 -78 q 950 -100 994 -100 q 831 -92 914 -100 l 825 -56 q 956 -68 911 -68 q 1009 -55 993 -68 q 1025 -3 1025 -42 l 1025 425 l 421 425 l 421 453 l 1025 453 l 1025 583 l 1053 583 l 1053 453 l 1321 453 l 1321 425 l 1053 425 l 1053 1 m 707 72 q 563 290 650 179 l 585 306 q 733 92 665 208 l 707 72 z "},"侗":{"ha":1389,"x_min":69,"x_max":1232,"o":"m 296 -126 l 267 -126 l 267 754 q 92 460 182 586 l 69 476 q 254 787 169 615 q 388 1122 339 958 l 413 1113 q 296 811 342 914 l 296 -126 m 1131 -110 q 1007 -103 1090 -110 l 1001 -67 q 1132 -78 1083 -78 q 1186 -66 1169 -78 q 1203 -18 1203 -54 l 1203 1024 l 522 1024 l 522 -121 l 493 -121 l 493 1051 l 1232 1051 l 1232 -22 q 1208 -92 1232 -75 q 1131 -110 1185 -108 m 1103 811 l 624 811 l 624 840 l 1103 840 l 1103 811 m 1025 151 l 996 151 l 996 221 l 722 221 l 722 149 l 693 149 l 693 603 l 1025 603 l 1025 151 m 996 249 l 996 575 l 722 575 l 722 249 l 996 249 z "},"供":{"ha":1389,"x_min":75,"x_max":1310,"o":"m 1310 326 l 365 326 l 365 356 l 629 356 l 629 789 l 421 789 l 421 818 l 629 818 l 629 1124 l 658 1124 l 658 818 l 1006 818 l 1006 1124 l 1035 1124 l 1035 818 l 1261 818 l 1261 789 l 1035 789 l 1035 356 l 1310 356 l 1310 326 m 279 -122 l 251 -122 l 251 728 q 100 432 182 574 l 75 450 q 240 768 157 579 q 368 1122 324 957 l 394 1113 q 279 786 344 947 l 279 -122 m 1006 356 l 1006 789 l 658 789 l 658 356 l 1006 356 m 388 -89 q 537 62 456 -28 q 668 219 618 151 l 689 203 q 557 43 639 135 q 407 -110 475 -49 l 388 -89 m 1236 -119 q 1101 37 1179 -47 q 947 190 1022 121 l 965 208 q 1261 -96 1133 54 l 1236 -119 z "},"依":{"ha":1389,"x_min":75,"x_max":1311,"o":"m 279 -122 l 251 -122 l 251 728 q 100 432 182 574 l 75 450 q 240 768 157 579 q 368 1122 324 957 l 394 1113 q 279 786 344 947 l 279 -122 m 867 917 q 744 1099 811 1024 l 764 1113 q 889 932 832 1033 l 867 917 m 1289 -83 q 1053 184 1143 50 q 916 476 964 318 q 853 844 868 635 l 813 844 q 643 560 738 696 l 643 -44 q 929 67 794 8 l 938 42 q 617 -81 728 -43 l 601 -51 q 615 -25 615 -44 l 615 524 q 388 276 503 388 l 368 297 q 611 561 507 422 q 783 844 715 700 l 403 844 l 403 872 l 1301 872 l 1301 844 l 878 844 q 912 593 886 713 q 978 382 938 474 q 1121 512 1044 435 q 1243 653 1197 589 l 1265 635 q 1132 487 1211 567 q 989 356 1053 407 q 1122 135 1044 236 q 1311 -60 1200 35 l 1289 -83 z "},"侠":{"ha":1389,"x_min":75,"x_max":1333,"o":"m 853 446 q 1051 139 914 274 q 1333 -69 1189 4 l 1318 -96 q 1136 26 1232 -50 q 956 211 1040 103 q 829 446 871 319 l 806 446 q 667 134 774 260 q 389 -97 561 8 l 374 -74 q 647 147 542 25 q 781 446 751 269 l 374 446 l 374 472 l 785 472 q 803 675 796 560 q 811 872 811 790 l 418 872 l 418 899 l 811 899 l 811 1125 l 838 1125 l 838 899 l 1265 899 l 1265 872 l 838 872 q 831 681 838 794 q 813 472 824 567 l 1313 472 l 1313 446 l 853 446 m 394 1113 q 279 786 344 947 l 279 -122 l 251 -122 l 251 728 q 100 433 185 581 l 75 450 q 240 768 157 579 q 368 1122 324 957 l 394 1113 m 515 788 q 628 560 569 696 l 604 547 q 493 775 564 657 l 515 788 m 997 561 q 1117 785 1064 657 l 1138 775 q 1017 547 1086 654 l 997 561 z "},"侣":{"ha":1389,"x_min":75,"x_max":1249,"o":"m 279 -122 l 251 -122 l 251 728 q 100 432 182 574 l 75 450 q 240 768 157 579 q 368 1122 324 957 l 394 1113 q 279 786 344 947 l 279 -122 m 1183 626 l 561 626 l 561 1057 l 1183 1057 l 1183 626 m 1157 653 l 1157 1031 l 588 1031 l 588 653 l 1157 653 m 1249 -112 l 1224 -112 l 1224 -43 l 506 -43 l 506 -112 l 479 -112 l 479 438 l 1249 438 l 1249 -112 m 1221 -15 l 1221 410 l 507 410 l 507 -15 l 1221 -15 z "},"侥":{"ha":1389,"x_min":72,"x_max":1313,"o":"m 399 560 q 879 689 664 585 q 750 913 807 774 q 403 882 631 901 l 399 910 q 740 939 576 922 q 685 1119 707 1031 l 711 1125 q 765 942 731 1035 q 1243 999 990 964 l 1247 971 q 776 915 1047 943 q 901 700 828 788 q 1126 854 1025 763 l 1146 833 q 919 681 1035 739 q 1015 596 958 636 q 1151 538 1099 538 q 1253 696 1236 538 l 1278 683 q 1153 511 1254 511 q 1026 558 1101 511 q 896 668 954 604 q 407 532 681 564 l 399 560 m 392 1113 q 276 786 342 947 l 276 -122 l 249 -122 l 249 728 q 96 435 190 597 l 72 450 q 238 768 154 579 q 365 1122 321 957 l 392 1113 m 1313 118 l 1308 75 l 1303 17 q 1266 -69 1294 -47 q 1168 -94 1238 -92 q 1104 -96 1144 -96 q 1050 -94 1072 -96 q 976 -81 1001 -92 q 942 -48 951 -71 q 932 21 932 -25 l 932 351 l 697 351 q 696 324 696 342 q 670 167 689 232 q 585 33 651 103 q 382 -96 518 -37 l 367 -69 q 563 51 499 -14 q 645 176 628 117 q 668 322 663 236 q 669 351 668 342 l 367 351 l 367 379 l 1308 379 l 1308 351 l 960 351 l 960 24 q 976 -47 960 -29 q 1047 -67 993 -65 q 1119 -68 1076 -68 q 1174 -67 1157 -68 q 1247 -49 1226 -64 q 1275 13 1268 -33 q 1285 132 1279 39 l 1313 118 z "},"侦":{"ha":1389,"x_min":69,"x_max":1311,"o":"m 843 751 l 1193 751 l 1193 140 l 1165 140 l 1165 724 l 554 724 l 554 140 l 526 140 l 526 751 l 815 751 l 815 1125 l 843 1125 l 843 974 l 1301 974 l 1301 946 l 843 946 l 843 751 m 296 -126 l 267 -126 l 267 753 q 92 457 179 581 l 69 476 q 254 787 169 615 q 388 1122 339 958 l 414 1113 q 296 814 354 944 l 296 -126 m 846 611 l 874 611 l 874 503 q 847 208 874 314 q 722 25 821 103 q 411 -103 622 -53 l 404 -75 q 708 49 614 -25 q 824 221 801 124 q 846 506 846 318 l 846 611 m 947 115 q 1136 23 1038 75 q 1311 -76 1235 -29 l 1296 -101 q 936 90 1161 -12 l 947 115 z "},"侧":{"ha":1389,"x_min":72,"x_max":1253,"o":"m 276 -122 l 249 -122 l 249 728 q 96 433 188 592 l 72 450 q 238 768 154 579 q 365 1122 321 957 l 392 1113 q 276 786 342 947 l 276 -122 m 1029 -61 q 1153 -72 1107 -72 q 1210 -61 1194 -72 q 1225 -11 1225 -50 l 1225 1115 l 1253 1115 l 1253 -6 q 1231 -83 1253 -64 q 1146 -103 1208 -103 q 1036 -96 1092 -103 l 1029 -61 m 833 200 l 807 200 l 807 1036 l 490 1036 l 490 200 l 464 200 l 464 1063 l 833 1063 l 833 200 m 1035 190 l 1007 190 l 1007 993 l 1035 993 l 1035 190 m 368 -68 q 581 159 519 38 q 643 451 643 281 l 643 883 l 669 883 l 669 451 q 603 145 669 271 q 385 -92 538 19 l 368 -68 m 883 -93 q 782 19 843 -42 q 671 119 721 79 l 690 139 q 800 39 739 99 q 906 -74 861 -21 l 883 -93 z "},"侨":{"ha":1389,"x_min":64,"x_max":1317,"o":"m 268 -122 l 240 -122 l 240 728 q 88 433 179 592 l 64 450 q 229 768 146 579 q 357 1122 313 957 l 383 1113 q 268 786 333 947 l 268 -122 m 1299 385 q 1078 551 1171 454 q 935 754 985 647 l 746 754 q 608 554 690 649 q 382 376 525 460 l 367 400 q 585 567 503 478 q 718 754 667 657 l 376 754 l 376 781 l 729 781 q 806 1029 778 890 q 735 1024 757 1026 q 489 1007 578 1011 l 479 1032 q 1168 1092 849 1050 l 1182 1067 q 832 1032 1011 1044 q 757 781 804 896 l 1317 781 l 1317 754 l 963 754 q 1097 564 1008 656 q 1313 408 1186 472 l 1299 385 m 401 -78 q 572 38 518 -21 q 642 173 626 97 q 658 385 658 249 l 658 489 l 686 489 l 686 386 q 665 156 686 239 q 589 15 644 72 q 417 -104 533 -43 l 401 -78 m 1013 -125 l 985 -125 l 985 489 l 1013 489 l 1013 -125 z "},"侮":{"ha":1389,"x_min":65,"x_max":1296,"o":"m 258 -126 l 232 -126 l 232 715 q 88 419 169 565 l 65 436 q 226 770 154 592 q 340 1124 297 949 l 367 1117 q 258 782 311 924 l 258 -126 m 542 949 q 353 692 463 821 l 332 710 q 482 903 418 804 q 604 1124 546 1001 l 628 1111 q 556 976 586 1028 l 1293 976 l 1293 949 l 542 949 m 1263 88 l 1263 60 l 1117 60 q 1108 -10 1114 28 q 1065 -85 1100 -67 q 953 -103 1029 -103 q 844 -97 928 -103 l 839 -65 q 960 -75 910 -75 q 1049 -61 1019 -75 q 1082 0 1078 -47 l 1088 60 l 458 60 q 522 414 499 247 l 347 414 l 347 442 l 526 442 q 572 769 551 583 l 1161 769 q 1146 442 1154 592 l 1296 442 l 1296 414 l 1144 414 q 1118 88 1135 250 l 1263 88 m 597 742 l 586 658 q 554 442 567 506 l 1119 442 q 1135 742 1129 608 l 597 742 m 950 517 q 728 642 846 586 l 740 664 q 965 542 864 606 l 950 517 m 550 414 q 503 140 536 310 l 493 88 l 1090 88 q 1118 414 1104 218 l 550 414 m 926 179 q 704 303 844 235 l 717 326 q 942 206 838 269 l 926 179 z "},"侯":{"ha":1389,"x_min":60,"x_max":1308,"o":"m 261 -126 l 233 -126 l 233 750 q 157 581 199 667 q 85 439 115 494 l 60 454 q 215 781 146 607 q 324 1118 285 954 l 351 1111 q 261 825 300 932 l 261 -126 m 394 786 l 394 815 l 1022 815 q 1057 1028 1049 942 l 538 1028 l 538 1057 l 1090 1057 q 1051 815 1075 936 l 1278 815 l 1278 786 l 394 786 m 1293 -121 q 1048 32 1150 -62 q 881 267 946 126 l 814 267 q 651 24 757 113 q 372 -118 546 -64 l 358 -89 q 628 43 528 -37 q 783 267 729 124 l 367 267 l 367 296 l 790 296 q 829 546 819 397 l 551 546 q 426 367 507 472 l 406 385 q 617 728 528 532 l 640 715 q 567 574 594 621 l 1208 574 l 1207 546 l 857 546 q 819 296 843 389 l 1306 296 l 1306 267 l 911 267 q 1070 49 975 133 q 1308 -90 1165 -36 l 1293 -121 z "},"侵":{"ha":1389,"x_min":65,"x_max":1300,"o":"m 258 -126 l 232 -126 l 232 718 q 89 419 161 547 l 65 436 q 226 770 154 592 q 340 1124 297 949 l 368 1117 q 258 782 317 940 l 258 -126 m 1157 1064 l 1157 683 l 461 683 l 461 710 l 1129 710 l 1129 869 l 525 869 l 525 896 l 1129 896 l 1129 1038 l 465 1038 l 465 1064 l 1157 1064 m 1278 356 l 1250 356 l 1250 517 l 394 517 l 394 356 l 367 356 l 367 544 l 1278 544 l 1278 356 m 1288 -122 q 1059 -53 1160 -92 q 868 40 958 -14 q 642 -58 765 -21 q 356 -121 518 -96 l 344 -93 q 842 57 661 -49 q 586 343 660 185 l 493 343 l 493 369 l 1150 369 l 1150 343 q 1033 182 1096 251 q 890 56 969 113 q 1074 -29 975 7 q 1300 -93 1172 -65 l 1288 -122 m 617 343 q 719 194 657 258 q 867 74 781 129 q 1009 195 940 122 q 1118 343 1078 268 l 617 343 z "},"便":{"ha":1389,"x_min":75,"x_max":1322,"o":"m 279 -122 l 251 -122 l 251 728 q 99 433 190 592 l 75 450 q 240 768 157 579 q 368 1122 324 957 l 394 1113 q 279 786 344 947 l 279 -122 m 1310 -92 q 969 -52 1108 -79 q 707 40 831 -25 q 369 -118 594 -62 l 357 -92 q 682 53 583 -42 q 461 218 565 117 l 481 236 q 579 151 526 189 q 701 74 632 113 q 776 196 749 128 q 813 354 803 264 l 486 354 l 486 833 l 819 833 l 819 1019 l 442 1019 l 442 1047 l 1288 1047 l 1288 1019 l 846 1019 l 846 833 l 1183 833 l 1183 354 l 840 354 q 801 191 829 263 q 725 60 774 119 q 981 -26 851 -3 q 1322 -60 1111 -49 l 1310 -92 m 821 619 l 821 806 l 513 806 l 513 619 l 821 619 m 1157 619 l 1157 806 l 847 806 l 847 619 l 1157 619 m 513 593 l 513 382 l 815 382 q 821 593 821 449 l 513 593 m 847 593 q 842 382 847 465 l 1157 382 l 1157 593 l 847 593 z "},"促":{"ha":1389,"x_min":75,"x_max":1314,"o":"m 279 -122 l 251 -122 l 251 728 q 99 433 190 592 l 75 450 q 240 768 157 579 q 368 1122 324 957 l 394 1114 q 279 786 343 943 l 279 -122 m 1307 -64 q 1146 -71 1210 -71 q 769 -3 925 -71 q 531 244 613 64 q 456 49 496 133 q 364 -107 417 -36 l 344 -90 q 487 188 433 26 q 557 522 540 349 l 582 519 q 540 282 565 376 q 662 102 583 178 q 853 -8 740 26 l 853 647 l 543 647 l 543 1051 l 1185 1051 l 1185 647 l 879 647 l 879 363 l 1228 363 l 1228 336 l 879 336 l 879 -17 q 1143 -44 996 -44 q 1314 -35 1226 -44 l 1307 -64 m 1158 674 l 1158 1025 l 569 1025 l 569 674 l 1158 674 z "},"俄":{"ha":1389,"x_min":75,"x_max":1300,"o":"m 279 -122 l 251 -122 l 251 728 q 100 432 182 574 l 75 450 q 240 768 157 579 q 368 1122 324 957 l 394 1113 q 279 786 344 947 l 279 -122 m 957 675 q 1008 265 969 468 q 1105 395 1050 313 q 1196 550 1160 478 l 1221 535 q 1017 238 1122 363 q 1067 65 1039 135 q 1124 -37 1096 -4 q 1172 -69 1151 -69 q 1210 -51 1196 -69 q 1238 17 1225 -32 q 1265 160 1250 65 l 1289 140 q 1242 -41 1267 17 q 1175 -99 1218 -99 q 996 210 1078 -99 q 865 85 942 150 q 718 -32 788 19 l 699 -8 q 859 116 775 46 q 988 239 943 186 q 931 675 947 436 l 632 675 l 632 378 q 806 464 701 406 l 815 442 q 632 350 707 382 l 632 -1 q 612 -76 632 -54 q 535 -97 592 -97 q 442 -92 493 -97 l 436 -61 q 540 -69 489 -69 q 592 -56 578 -69 q 607 -3 607 -42 l 607 342 q 374 250 517 297 l 363 276 q 606 368 515 325 l 606 675 l 361 675 l 361 701 l 606 701 l 606 978 q 417 924 492 943 l 406 947 q 793 1069 640 1007 l 808 1047 q 632 988 736 1019 l 632 701 l 931 701 q 918 1117 918 883 l 944 1117 l 944 1053 q 956 701 944 875 l 1300 701 l 1300 675 l 957 675 m 1199 806 q 1054 1022 1146 904 l 1072 1038 q 1221 822 1146 944 l 1199 806 z "},"俊":{"ha":1389,"x_min":75,"x_max":1292,"o":"m 279 -122 l 251 -122 l 251 728 q 99 433 190 592 l 75 450 q 240 768 157 579 q 368 1122 324 957 l 394 1113 q 279 786 344 947 l 279 -122 m 1229 747 q 1139 842 1169 813 q 492 797 869 811 l 486 828 l 492 828 q 517 839 504 828 q 647 976 581 897 q 750 1115 713 1056 l 772 1100 q 662 956 726 1031 q 542 826 597 881 q 823 841 642 829 q 1115 865 1004 853 q 981 992 1028 953 l 999 1011 q 1215 801 1076 940 l 1250 767 l 1229 747 m 1197 515 q 883 760 1058 656 l 900 782 q 1218 536 1061 683 l 1197 515 m 724 757 q 569 602 649 667 q 386 479 490 538 l 374 504 q 549 619 469 554 q 701 769 629 683 l 724 757 m 1281 -117 q 1029 -15 1135 -68 q 839 103 924 39 q 632 -16 743 35 q 379 -111 521 -67 l 365 -86 q 618 6 508 -43 q 817 119 728 54 q 615 361 694 235 q 451 182 536 264 l 433 203 q 739 596 636 389 l 763 583 q 676 444 713 497 l 1108 444 l 1108 414 q 856 119 1003 240 q 1046 4 943 54 q 1292 -90 1149 -46 l 1281 -117 m 632 382 q 728 245 679 306 q 838 136 778 185 q 1083 419 997 265 l 660 419 l 632 382 z "},"俏":{"ha":1389,"x_min":75,"x_max":1208,"o":"m 1108 -97 q 981 -89 1053 -97 l 976 -57 q 1047 -66 1008 -62 q 1110 -69 1085 -69 q 1165 -58 1149 -69 q 1181 -11 1181 -47 l 1181 228 l 547 228 l 547 -122 l 521 -122 l 521 747 l 849 747 l 849 1124 l 875 1124 l 875 747 l 1207 747 l 1207 4 q 1187 -76 1207 -54 q 1108 -97 1167 -97 m 279 -122 l 251 -122 l 251 728 q 100 432 182 574 l 75 450 q 240 768 157 579 q 368 1122 324 957 l 394 1113 q 279 786 344 947 l 279 -122 m 1033 825 q 1119 954 1074 876 q 1186 1086 1164 1032 l 1208 1075 q 1140 942 1186 1021 q 1054 810 1093 863 l 1033 825 m 650 817 q 590 941 628 872 q 515 1063 551 1010 l 535 1075 q 611 953 571 1024 q 675 831 651 883 l 650 817 m 1181 501 l 1181 721 l 547 721 l 547 501 l 1181 501 m 1181 254 l 1181 475 l 547 475 l 547 254 l 1181 254 z "},"俐":{"ha":1389,"x_min":65,"x_max":1246,"o":"m 258 -126 l 232 -126 l 232 718 q 89 419 161 547 l 65 436 q 226 770 154 592 q 340 1124 297 949 l 368 1117 q 258 782 317 940 l 258 -126 m 1147 -90 q 1021 -81 1089 -90 l 1017 -49 q 1149 -62 1114 -62 q 1203 -50 1188 -62 q 1219 1 1219 -37 l 1219 1124 l 1246 1124 l 1246 7 q 1226 -69 1246 -49 q 1147 -90 1206 -89 m 657 728 l 882 728 l 882 701 l 657 701 l 657 -124 l 631 -124 l 631 703 l 610 703 q 499 424 572 574 q 340 164 425 275 l 319 181 q 476 435 401 283 q 582 703 550 588 l 365 703 l 365 729 l 631 729 l 631 1000 q 394 965 489 976 l 383 990 q 659 1030 524 1007 q 874 1074 794 1053 l 892 1050 q 657 1004 786 1025 l 657 728 m 1025 190 l 999 190 l 999 949 l 1025 949 l 1025 190 m 724 571 q 811 453 763 525 q 896 321 860 382 l 874 307 q 796 433 843 365 q 706 556 749 501 l 724 571 z "},"俑":{"ha":1389,"x_min":65,"x_max":1240,"o":"m 258 -126 l 232 -126 l 232 718 q 89 419 161 547 l 65 436 q 226 770 154 592 q 340 1124 297 949 l 368 1117 q 258 782 317 940 l 258 -126 m 1142 -100 q 1024 -92 1099 -100 l 1019 -62 q 1144 -75 1101 -75 q 1197 -60 1181 -75 q 1214 -10 1214 -46 l 1214 244 l 868 244 l 868 -62 l 842 -62 l 842 244 l 506 244 l 506 -125 l 479 -125 l 479 775 l 896 775 q 682 940 778 875 l 697 960 q 853 842 772 907 q 1144 1038 989 915 l 460 1038 l 460 1064 l 1189 1064 l 1189 1043 q 869 825 1008 901 q 935 774 900 801 l 1240 774 l 1240 -6 q 1219 -80 1240 -60 q 1142 -100 1197 -100 m 842 524 l 842 749 l 506 749 l 506 524 l 842 524 m 1214 524 l 1214 749 l 868 749 l 868 524 l 1214 524 m 842 271 l 842 497 l 506 497 l 506 271 l 842 271 m 1214 271 l 1214 497 l 868 497 l 868 271 l 1214 271 z "},"俗":{"ha":1389,"x_min":69,"x_max":1308,"o":"m 294 -126 l 267 -126 l 267 756 q 92 458 176 578 l 69 476 q 254 787 169 615 q 388 1122 339 958 l 414 1113 q 294 814 360 961 l 294 -126 m 447 747 q 588 896 515 807 q 704 1058 660 985 l 725 1044 q 604 879 681 974 q 465 728 528 785 l 447 747 m 1258 761 q 1121 903 1206 825 q 968 1036 1036 982 l 985 1054 q 1127 931 1039 1013 q 1279 782 1215 850 l 1258 761 m 1292 365 q 1042 549 1153 449 q 824 776 931 649 q 617 544 717 640 q 378 343 517 449 l 360 365 q 626 587 508 469 q 856 863 743 704 l 875 849 l 836 796 q 1064 563 953 663 q 1308 389 1175 464 l 1292 365 m 1124 -125 l 1097 -125 l 1097 -49 l 593 -49 l 593 -124 l 567 -124 l 567 374 l 1124 374 l 1124 -125 m 1097 -22 l 1097 347 l 593 347 l 593 -22 l 1097 -22 z "},"俘":{"ha":1389,"x_min":65,"x_max":1286,"o":"m 258 -126 l 232 -126 l 232 718 q 89 419 161 547 l 65 436 q 226 770 154 592 q 340 1124 297 949 l 367 1117 q 258 782 311 924 l 258 -126 m 421 1029 q 868 1060 651 1040 q 1238 1104 1085 1079 l 1251 1078 q 429 1004 867 1022 l 421 1029 m 1032 747 q 1163 983 1106 851 l 1185 974 q 1053 732 1121 835 l 1032 747 m 857 742 q 819 834 839 793 q 767 926 799 875 l 786 939 q 835 853 814 894 q 881 754 856 813 l 857 742 m 594 721 q 485 907 549 814 l 504 922 q 618 736 563 840 l 594 721 m 822 -6 q 802 -83 822 -64 q 724 -103 782 -103 q 600 -94 672 -103 l 596 -64 q 728 -76 660 -74 q 781 -63 767 -75 q 796 -14 796 -51 l 796 272 l 372 272 l 372 299 l 796 299 l 796 435 q 986 521 886 468 q 1153 621 1086 574 l 472 621 l 472 647 l 1194 647 l 1194 619 q 1010 508 1099 557 q 822 418 922 458 l 822 299 l 1286 299 l 1286 272 l 822 272 l 822 -6 z "},"保":{"ha":1389,"x_min":75,"x_max":1292,"o":"m 279 -122 l 251 -122 l 251 726 q 99 433 193 596 l 75 450 q 240 768 157 579 q 368 1122 324 957 l 394 1113 q 279 786 344 947 l 279 -122 m 1268 -17 q 1047 181 1138 79 q 868 442 957 283 l 847 442 l 847 -126 l 821 -126 l 821 442 l 800 442 q 624 199 721 310 q 399 -12 526 89 l 381 10 q 607 214 506 100 q 769 442 708 328 l 389 442 l 389 468 l 821 468 l 821 665 l 543 665 l 543 1054 l 1139 1054 l 1139 665 l 847 665 l 847 468 l 1292 468 l 1292 442 l 896 442 q 1065 198 971 304 q 1286 6 1158 92 l 1268 -17 m 1113 692 l 1113 1028 l 569 1028 l 569 692 l 1113 692 z "},"俞":{"ha":1389,"x_min":85,"x_max":1303,"o":"m 1288 678 q 969 840 1106 750 q 699 1061 832 929 q 439 849 590 953 q 100 657 288 744 l 85 682 q 724 1126 469 853 l 744 1110 l 715 1081 q 985 859 853 947 q 1303 703 1118 771 l 1288 678 m 938 774 l 449 774 l 449 801 l 938 801 l 938 774 m 1075 -103 q 971 -96 1022 -103 l 965 -64 q 1079 -74 1018 -74 q 1133 -60 1117 -74 q 1150 -8 1150 -46 l 1150 672 l 1178 672 l 1178 -1 q 1156 -80 1178 -57 q 1075 -103 1133 -103 m 592 -103 q 506 -97 553 -103 l 501 -65 q 592 -75 567 -75 q 644 -62 629 -75 q 658 -11 658 -50 l 658 171 l 276 171 l 276 -117 l 249 -117 l 249 632 l 686 632 l 686 -8 q 665 -83 686 -62 q 592 -103 644 -103 m 658 417 l 658 604 l 276 604 l 276 417 l 658 417 m 928 110 l 900 110 l 900 600 l 928 600 l 928 110 m 658 199 l 658 389 l 276 389 l 276 199 l 658 199 z "},"信":{"ha":1389,"x_min":75,"x_max":1317,"o":"m 279 -122 l 251 -122 l 251 728 q 100 432 182 574 l 75 450 q 240 768 157 579 q 368 1122 324 957 l 394 1113 q 279 786 344 947 l 279 -122 m 874 938 q 763 1094 824 1026 l 781 1110 q 897 953 847 1036 l 874 938 m 1317 885 l 406 885 l 406 913 l 1317 913 l 1317 885 m 1222 689 l 501 689 l 501 717 l 1222 717 l 1222 689 m 1222 482 l 501 482 l 501 510 l 1222 510 l 1222 482 m 1183 -125 l 1156 -125 l 1156 -60 l 576 -60 l 576 -126 l 549 -126 l 549 290 l 1183 290 l 1183 -125 m 1156 -32 l 1156 263 l 576 263 l 576 -32 l 1156 -32 z "},"俩":{"ha":1389,"x_min":75,"x_max":1322,"o":"m 279 -122 l 251 -122 l 251 728 q 100 432 182 574 l 75 450 q 240 768 157 579 q 368 1122 324 957 l 394 1113 q 279 786 344 947 l 279 -122 m 1025 719 q 1014 549 1022 614 q 1112 407 1074 468 q 1193 263 1150 346 l 1169 247 q 1094 388 1128 331 q 1008 514 1060 444 q 831 119 982 308 l 811 136 q 958 401 915 257 q 1001 719 1001 546 l 746 719 q 738 543 743 596 q 874 331 828 415 l 850 317 q 731 510 806 411 q 673 321 713 414 q 532 118 633 228 l 514 136 q 678 401 632 260 q 721 719 724 543 l 482 719 l 482 -110 l 456 -110 l 456 746 l 722 746 q 724 1033 724 761 l 428 1033 l 428 1060 l 1322 1060 l 1322 1033 l 1029 1033 q 1028 890 1029 982 q 1026 746 1028 797 l 1263 746 l 1263 -14 q 1186 -87 1263 -87 q 1008 -71 1132 -87 l 1004 -40 q 1106 -56 1061 -50 q 1190 -61 1150 -61 q 1225 -51 1214 -61 q 1236 -12 1236 -42 l 1236 719 l 1025 719 m 750 1033 l 747 746 l 1003 746 q 1004 1033 1004 765 l 750 1033 z "},"俭":{"ha":1389,"x_min":75,"x_max":1306,"o":"m 1289 621 q 806 1056 988 811 q 628 830 736 951 q 385 604 519 708 l 368 625 q 635 875 511 732 q 815 1125 760 1018 l 839 1110 l 819 1081 q 1028 853 906 965 q 1306 644 1150 742 l 1289 621 m 279 -122 l 251 -122 l 251 728 q 99 433 190 592 l 75 450 q 240 768 157 579 q 368 1122 324 957 l 394 1113 q 279 786 344 947 l 279 -122 m 1069 660 l 601 660 l 601 688 l 1069 688 l 1069 660 m 882 186 q 771 504 844 329 l 793 514 q 907 196 871 333 l 882 186 m 365 -75 l 365 -47 l 957 -47 q 1086 194 1031 72 q 1194 471 1142 317 l 1219 461 q 986 -47 1111 161 l 1306 -47 l 1306 -75 l 365 -75 m 626 132 q 493 442 575 285 l 515 453 q 651 143 600 290 l 626 132 z "},"修":{"ha":1389,"x_min":65,"x_max":1311,"o":"m 1297 457 q 1115 534 1200 490 q 942 639 1031 578 q 751 533 850 574 q 525 460 651 492 l 514 489 q 737 559 639 521 q 919 657 835 597 q 676 894 765 767 q 532 719 589 782 l 511 739 q 790 1128 681 919 l 815 1115 q 724 964 785 1061 l 1211 964 q 1108 795 1167 867 q 965 660 1049 724 q 1133 560 1051 601 q 1311 486 1215 519 l 1297 457 m 261 -126 l 232 -126 l 232 717 q 89 419 163 551 l 65 436 q 226 770 154 592 q 340 1124 297 949 l 368 1117 q 261 782 307 907 l 261 -126 m 694 917 q 943 676 779 786 q 1167 936 1093 792 l 707 936 l 694 917 m 442 39 l 413 39 l 413 893 l 442 893 l 442 39 m 601 303 q 798 389 715 343 q 958 501 881 435 l 976 479 q 820 369 907 417 q 619 278 733 322 l 601 303 m 567 108 q 857 231 733 164 q 1097 397 981 299 l 1117 374 q 881 213 1008 282 q 586 82 754 144 l 567 108 m 550 -94 q 930 58 765 -29 q 1251 269 1094 144 l 1271 246 q 944 33 1110 118 q 565 -122 779 -53 l 550 -94 z "},"俯":{"ha":1389,"x_min":65,"x_max":1304,"o":"m 883 990 q 844 1053 864 1025 q 793 1115 824 1081 l 811 1129 q 906 1006 869 1063 l 883 990 m 260 -126 l 232 -126 l 232 718 q 89 419 161 547 l 65 436 q 226 770 154 592 q 340 1124 297 949 l 368 1117 q 260 782 313 924 l 260 -126 m 456 957 l 1297 957 l 1297 929 l 485 929 l 485 501 q 460 181 485 321 q 379 -104 435 40 l 351 -90 q 433 195 410 60 q 456 500 456 331 l 456 957 m 1158 -7 q 1137 -83 1158 -64 q 1060 -103 1115 -103 q 960 -96 1033 -103 l 956 -61 q 1058 -72 1028 -72 q 1114 -60 1099 -72 q 1129 -7 1129 -47 l 1129 601 l 778 601 l 778 629 l 1129 629 l 1129 850 l 1157 850 l 1157 629 l 1304 629 l 1304 601 l 1158 601 l 1158 -7 m 707 -121 l 681 -121 l 681 575 q 618 438 642 486 q 561 331 594 390 l 538 346 q 658 588 606 458 q 742 844 711 717 l 765 838 q 707 647 729 710 l 707 -121 m 981 189 q 857 435 921 335 l 876 447 q 1006 203 942 343 l 981 189 z "},"俱":{"ha":1389,"x_min":75,"x_max":1306,"o":"m 281 -122 l 253 -122 l 253 729 q 99 433 193 597 l 75 450 q 240 767 157 579 q 368 1121 324 956 l 394 1113 q 281 786 340 933 l 281 -122 m 1306 181 l 372 181 l 372 208 l 551 208 l 551 1058 l 1139 1058 l 1139 208 l 1306 208 l 1306 181 m 1111 856 l 1111 1031 l 579 1031 l 579 856 l 1111 856 m 1111 646 l 1111 828 l 579 828 l 579 646 l 1111 646 m 1111 438 l 1111 618 l 579 618 l 579 438 l 1111 438 m 1111 208 l 1111 410 l 579 410 l 579 208 l 1111 208 m 393 -89 q 689 118 546 -6 l 707 99 q 408 -112 567 -22 l 393 -89 m 1263 -114 q 1128 -8 1208 -65 q 978 92 1049 50 l 993 113 q 1144 15 1063 72 q 1282 -90 1225 -43 l 1263 -114 z "},"俺":{"ha":1389,"x_min":65,"x_max":1313,"o":"m 260 -126 l 232 -126 l 232 718 q 89 419 161 547 l 65 436 q 226 770 154 592 q 340 1124 297 949 l 368 1117 q 260 782 313 924 l 260 -126 m 807 1110 q 718 917 767 1006 l 1283 917 l 1283 889 l 928 889 q 1087 690 989 790 q 1313 506 1185 589 l 1294 482 q 1069 672 1167 574 q 899 889 972 771 l 704 889 q 356 486 578 674 l 338 507 q 675 889 551 678 l 378 889 l 378 917 l 690 917 q 782 1118 749 1025 l 807 1110 m 1132 594 l 1132 164 l 829 164 l 829 33 q 836 -24 829 -6 q 863 -49 843 -42 q 924 -57 882 -56 q 1022 -60 996 -60 q 1119 -57 1050 -60 q 1185 -51 1163 -56 q 1221 -30 1207 -46 q 1239 19 1235 -14 q 1243 90 1243 47 l 1268 78 q 1263 10 1265 32 q 1224 -63 1256 -44 q 1119 -85 1193 -82 q 1021 -87 1047 -87 q 924 -85 993 -87 q 844 -71 869 -82 q 810 -36 818 -60 q 801 36 801 -12 l 801 164 l 510 164 l 510 594 l 801 594 l 801 760 l 829 760 l 829 594 l 1132 594 m 801 404 l 801 567 l 538 567 l 538 404 l 801 404 m 1104 404 l 1104 567 l 829 567 l 829 404 l 1104 404 m 801 192 l 801 376 l 538 376 l 538 192 l 801 192 m 1104 192 l 1104 376 l 829 376 l 829 192 l 1104 192 z "},"倍":{"ha":1389,"x_min":75,"x_max":1311,"o":"m 281 -122 l 251 -122 l 251 728 q 99 433 190 592 l 75 450 q 240 768 157 579 q 368 1122 324 957 l 394 1113 q 281 786 340 933 l 281 -122 m 843 958 q 753 1101 796 1046 l 774 1115 q 865 974 832 1032 l 843 958 m 1251 910 l 426 910 l 426 939 l 1251 939 l 1251 910 m 383 544 l 383 572 l 707 572 q 646 689 685 621 q 569 811 607 757 l 592 826 q 738 572 667 714 l 940 572 q 1075 839 1019 692 l 1099 828 q 971 572 1024 656 l 1311 572 l 1311 544 l 383 544 m 1163 -126 l 1133 -126 l 1133 -46 l 565 -46 l 565 -126 l 536 -126 l 536 351 l 1163 351 l 1163 -126 m 1133 -18 l 1133 324 l 565 324 l 565 -18 l 1133 -18 z "},"倒":{"ha":1389,"x_min":65,"x_max":1256,"o":"m 260 -126 l 232 -126 l 232 718 q 89 419 161 547 l 65 436 q 226 770 154 592 q 340 1124 297 949 l 368 1117 q 260 782 313 924 l 260 -126 m 1157 -97 q 1038 -89 1113 -97 l 1033 -58 q 1160 -69 1125 -69 q 1213 -56 1197 -69 q 1229 -6 1229 -42 l 1229 1107 l 1256 1107 l 1256 -6 q 1234 -78 1256 -58 q 1157 -97 1213 -97 m 928 519 q 881 624 899 588 q 440 589 661 601 l 432 619 q 450 635 446 626 q 544 824 494 713 q 614 1003 594 935 l 400 1003 l 400 1029 l 940 1029 l 940 1003 l 642 1003 q 567 812 618 928 q 474 621 515 696 q 869 649 688 629 q 769 839 807 778 l 793 851 q 953 533 874 703 l 928 519 m 1076 190 l 1050 190 l 1051 938 l 1076 938 l 1076 190 m 356 -33 q 643 4 518 -17 l 643 307 l 394 307 l 394 333 l 643 333 l 643 526 l 669 526 l 668 333 l 901 333 l 901 307 l 668 307 l 668 10 q 939 64 817 35 l 942 38 q 365 -62 701 -18 l 356 -33 z "},"倔":{"ha":1389,"x_min":75,"x_max":1265,"o":"m 281 -122 l 253 -122 l 253 728 q 100 435 194 597 l 75 450 q 240 768 157 579 q 368 1122 324 957 l 394 1113 q 281 786 340 933 l 281 -122 m 519 547 q 489 186 519 332 q 388 -108 458 40 l 363 -93 q 463 196 435 50 q 492 544 492 342 l 492 1056 l 1229 1056 l 1229 801 l 519 801 l 519 547 m 1201 829 l 1201 1028 l 519 1028 l 519 829 l 1201 829 m 1265 -122 l 1238 -122 l 1238 -42 l 610 -42 l 610 235 l 638 235 l 638 -14 l 917 -14 l 917 365 l 654 365 l 654 649 l 682 649 l 682 393 l 917 393 l 917 729 l 944 729 l 944 393 l 1178 393 l 1178 649 l 1206 649 l 1206 365 l 944 365 l 944 -14 l 1238 -14 l 1238 240 l 1265 240 l 1265 -122 z "},"倘":{"ha":1389,"x_min":65,"x_max":1228,"o":"m 260 -126 l 232 -126 l 232 717 q 89 419 163 551 l 65 436 q 226 770 154 592 q 340 1124 297 949 l 368 1117 q 260 782 313 924 l 260 -126 m 1131 -106 q 1038 -99 1089 -106 l 1035 -68 q 1139 -79 1113 -79 q 1189 -64 1175 -79 q 1203 -10 1203 -49 l 1203 665 l 494 665 l 494 -126 l 468 -126 l 468 692 l 828 692 l 828 1121 l 854 1121 l 854 692 l 1228 692 l 1228 -10 q 1207 -85 1228 -65 q 1131 -106 1186 -106 m 1024 782 q 1101 906 1058 826 q 1172 1050 1144 985 l 1194 1039 q 1122 892 1167 974 q 1046 765 1078 810 l 1024 782 m 613 761 q 552 890 590 818 q 475 1024 514 963 l 496 1039 q 573 907 533 979 q 639 776 613 835 l 613 761 m 1014 89 l 988 89 l 988 154 l 706 154 l 706 86 l 679 86 l 679 472 l 1014 472 l 1014 89 m 988 181 l 988 446 l 706 446 l 706 181 l 988 181 z "},"候":{"ha":1389,"x_min":65,"x_max":1307,"o":"m 258 -126 l 232 -126 l 232 718 q 89 419 161 547 l 65 436 q 226 770 154 592 q 340 1124 297 949 l 368 1117 q 258 782 317 940 l 258 -126 m 564 781 l 564 807 l 1074 807 q 1099 1028 1090 929 l 668 1028 l 668 1054 l 1128 1054 q 1108 878 1121 972 l 1100 807 l 1304 807 l 1304 781 l 564 781 m 454 93 l 429 93 l 429 872 l 454 872 l 454 93 m 1290 -117 q 1075 63 1158 -35 q 960 289 992 161 l 911 289 q 769 40 868 136 q 515 -115 669 -57 l 501 -90 q 749 54 656 -35 q 886 289 842 143 l 553 289 l 553 315 l 893 315 q 925 550 919 429 l 690 550 q 592 388 653 478 l 569 401 q 664 554 626 483 q 738 715 701 625 l 760 707 q 701 576 733 636 l 1207 576 l 1207 550 l 949 550 q 917 315 940 424 l 1300 315 l 1300 289 l 985 289 q 1097 76 1013 174 q 1307 -92 1181 -21 l 1290 -117 z "},"倚":{"ha":1389,"x_min":75,"x_max":1315,"o":"m 279 -122 l 251 -122 l 251 728 q 100 432 182 574 l 75 450 q 241 769 157 581 q 369 1122 325 958 l 394 1113 q 279 788 346 953 l 279 -122 m 850 1114 q 825 971 844 1036 l 1224 971 l 1224 943 l 815 943 q 783 872 797 897 q 1005 787 903 833 q 1228 675 1107 740 l 1210 650 q 992 763 1094 715 q 769 847 890 810 q 635 719 721 772 q 418 631 549 665 l 407 658 q 661 769 572 701 q 786 943 750 838 l 438 943 l 438 971 l 796 971 q 822 1117 814 1025 l 850 1114 m 1147 -18 q 1125 -96 1147 -78 q 1049 -114 1103 -114 q 939 -108 1014 -114 l 933 -72 q 1047 -82 1004 -82 q 1104 -70 1089 -82 q 1119 -18 1119 -58 l 1119 558 l 350 558 l 350 586 l 1315 586 l 1315 558 l 1147 558 l 1147 -18 m 899 39 l 872 39 l 872 107 l 536 107 l 536 40 l 510 40 l 510 400 l 899 400 l 899 39 m 872 133 l 872 374 l 536 374 l 536 133 l 872 133 z "},"借":{"ha":1389,"x_min":69,"x_max":1301,"o":"m 294 -126 l 267 -126 l 267 756 q 89 458 183 592 l 69 476 q 254 787 169 615 q 388 1122 339 958 l 414 1115 q 294 814 354 949 l 294 -126 m 1301 607 l 385 607 l 385 633 l 657 633 l 657 890 l 438 890 l 438 917 l 657 917 l 657 1118 l 683 1118 l 683 917 l 1011 917 l 1011 1118 l 1038 1118 l 1038 917 l 1246 917 l 1246 890 l 1038 890 l 1038 633 l 1301 633 l 1301 607 m 1011 633 l 1011 890 l 683 890 l 683 633 l 1011 633 m 1154 -126 l 1128 -126 l 1128 -51 l 561 -51 l 561 -126 l 535 -126 l 535 451 l 1154 451 l 1154 -126 m 1128 225 l 1128 425 l 561 425 l 561 225 l 1128 225 m 1128 -25 l 1128 199 l 561 199 l 561 -25 l 1128 -25 z "},"倡":{"ha":1389,"x_min":75,"x_max":1235,"o":"m 279 -122 l 251 -122 l 251 728 q 99 435 193 597 l 75 450 q 240 768 157 579 q 368 1122 324 957 l 393 1115 q 279 786 335 925 l 279 -122 m 1160 606 l 544 606 l 544 1044 l 1160 1044 l 1160 606 m 1133 849 l 1133 1018 l 571 1018 l 571 849 l 1133 849 m 1133 632 l 1133 822 l 571 822 l 571 632 l 1133 632 m 1235 -121 l 1207 -121 l 1207 -46 l 500 -46 l 500 -126 l 472 -126 l 472 447 l 1235 447 l 1235 -121 m 1207 226 l 1207 421 l 500 421 l 500 226 l 1207 226 m 1207 -19 l 1207 200 l 500 200 l 500 -19 l 1207 -19 z "},"倦":{"ha":1389,"x_min":75,"x_max":1310,"o":"m 278 -122 l 251 -122 l 251 728 q 100 432 182 574 l 75 450 q 240 768 157 579 q 368 1122 324 957 l 394 1113 q 278 786 349 963 l 278 -122 m 1293 244 q 1107 390 1182 317 q 951 572 1032 464 l 675 572 q 349 244 553 396 l 331 267 q 505 410 422 331 q 646 572 588 489 l 340 572 l 340 599 l 660 599 q 710 685 686 639 q 746 768 733 732 l 417 768 l 417 794 l 754 794 q 838 1122 804 929 l 864 1117 q 782 794 825 922 l 1197 794 l 1197 768 l 774 768 q 690 599 749 700 l 1288 599 l 1288 572 l 982 572 q 1126 403 1051 475 q 1310 267 1200 331 l 1293 244 m 975 868 q 1058 963 1011 903 q 1132 1068 1104 1022 l 1150 1054 q 1075 951 1122 1011 q 992 851 1028 890 l 975 868 m 607 864 q 556 957 588 906 q 490 1051 524 1008 l 507 1065 q 628 879 578 974 l 607 864 m 1165 6 q 1146 -55 1160 -35 q 1106 -83 1132 -75 q 1028 -93 1079 -90 q 872 -96 936 -96 q 717 -93 806 -96 q 645 -78 668 -90 q 615 -43 622 -67 q 607 26 607 -19 l 607 389 l 1026 389 q 1013 207 1022 274 q 981 142 1003 157 q 899 128 958 128 q 757 139 831 128 l 753 169 q 831 158 789 163 q 901 154 874 154 q 949 157 935 154 q 973 172 964 160 q 988 210 982 183 q 1000 363 997 267 l 632 363 l 632 26 q 638 -31 632 -12 q 660 -56 643 -49 q 717 -67 678 -64 q 871 -71 782 -71 q 1040 -68 994 -71 q 1116 -49 1096 -65 q 1143 19 1136 -32 q 1150 121 1149 67 l 1175 108 l 1175 107 q 1165 6 1169 38 z "},"倩":{"ha":1389,"x_min":69,"x_max":1311,"o":"m 1311 640 l 417 640 l 417 668 l 842 668 l 842 817 l 532 817 l 532 844 l 842 844 l 842 978 l 472 978 l 472 1006 l 842 1006 l 842 1124 l 868 1124 l 868 1006 l 1257 1006 l 1257 978 l 868 978 l 868 844 l 1179 844 l 1179 817 l 868 817 l 868 668 l 1311 668 l 1311 640 m 294 -126 l 267 -126 l 267 756 q 89 458 183 592 l 69 476 q 254 787 169 615 q 388 1122 339 958 l 413 1115 q 294 813 344 926 l 294 -126 m 1083 -108 q 975 -103 1026 -108 l 971 -74 q 1085 -82 1028 -82 q 1138 -68 1122 -82 q 1153 -17 1153 -54 l 1153 115 l 575 115 l 575 -126 l 547 -126 l 547 501 l 1181 501 l 1181 -11 q 1160 -86 1181 -65 q 1083 -108 1139 -107 m 1153 326 l 1153 474 l 575 474 l 575 326 l 1153 326 m 1153 143 l 1153 299 l 575 299 l 575 143 l 1153 143 z "},"倪":{"ha":1389,"x_min":75,"x_max":1304,"o":"m 279 -122 l 251 -122 l 251 728 q 99 435 193 597 l 75 450 q 240 768 157 579 q 368 1122 324 957 l 393 1114 q 279 786 338 929 l 279 -122 m 1297 -8 q 1266 -81 1292 -61 q 1181 -103 1240 -100 q 1110 -106 1133 -106 q 1039 -103 1086 -106 q 973 -90 994 -100 q 943 -59 951 -81 q 935 4 935 -37 l 935 458 l 740 458 q 703 197 736 300 q 598 21 669 93 q 403 -114 526 -51 l 388 -86 q 583 46 515 -24 q 680 210 651 115 q 714 458 708 306 l 492 458 l 492 1003 q 763 1093 653 1043 l 781 1068 q 519 985 667 1022 l 519 774 l 753 774 l 753 746 l 519 746 l 519 486 l 1176 486 l 1176 746 l 922 746 l 922 774 l 1176 774 l 1176 996 l 894 996 l 894 1024 l 1204 1024 l 1204 457 l 963 457 l 963 4 q 976 -58 963 -42 q 1036 -75 990 -74 q 1126 -78 1103 -78 l 1182 -76 q 1247 -60 1226 -75 q 1272 -3 1268 -44 q 1278 124 1275 28 l 1304 113 l 1303 78 q 1297 -8 1301 44 z "},"倭":{"ha":1389,"x_min":65,"x_max":1307,"o":"m 260 -126 l 232 -126 l 232 718 q 89 419 161 547 l 65 436 q 226 770 154 592 q 340 1124 297 949 l 368 1117 q 260 782 313 924 l 260 -126 m 1293 501 q 1035 647 1133 581 q 840 810 936 714 l 840 508 l 814 508 l 814 811 q 599 636 704 701 q 349 507 494 571 l 335 532 q 579 655 472 590 q 781 813 686 719 l 376 813 l 376 840 l 814 840 l 814 1032 q 444 1008 592 1013 l 436 1036 q 828 1061 631 1043 q 1175 1104 1026 1079 l 1189 1076 q 842 1035 1017 1050 l 842 840 l 1272 840 l 1272 813 l 872 813 q 1061 658 958 728 q 1307 526 1164 589 l 1293 501 m 688 375 q 750 518 722 444 l 774 507 q 715 375 743 432 l 1279 375 l 1279 347 l 1064 347 q 901 69 1014 167 q 1299 -106 1065 3 l 1285 -129 q 879 51 1060 -19 q 656 -56 786 -15 q 347 -122 525 -97 l 336 -94 q 645 -32 522 -67 q 851 64 768 3 q 708 119 782 92 q 563 168 633 146 q 672 347 625 256 l 360 347 l 360 375 l 688 375 m 603 182 q 874 81 753 131 q 1038 347 990 176 l 701 347 q 603 182 661 268 z "},"债":{"ha":1389,"x_min":57,"x_max":1333,"o":"m 1333 663 l 364 663 l 364 689 l 822 689 l 822 831 l 457 831 l 457 857 l 822 857 l 822 981 l 433 981 l 433 1007 l 822 1007 l 822 1135 l 849 1135 l 849 1007 l 1288 1007 l 1288 981 l 849 981 l 849 857 l 1233 857 l 1233 831 l 849 831 l 849 689 l 1333 689 l 1333 663 m 281 -126 l 254 -126 l 254 756 q 79 458 164 578 l 57 476 q 242 787 157 615 q 375 1122 326 958 l 401 1113 q 281 814 353 976 l 281 -126 m 1172 107 l 1146 107 l 1146 493 l 540 493 l 540 107 l 514 107 l 514 519 l 1172 519 l 1172 107 m 360 -68 q 651 -13 547 -57 q 792 101 754 31 q 831 275 831 172 l 831 378 l 857 378 l 857 272 q 813 86 857 163 q 661 -37 769 10 q 364 -96 553 -85 l 360 -68 m 1296 -97 q 1104 -11 1190 -46 q 892 64 1018 24 l 900 88 q 1113 14 1021 50 q 1307 -72 1204 -22 l 1296 -97 z "},"值":{"ha":1389,"x_min":75,"x_max":1303,"o":"m 1303 -82 l 363 -82 l 363 -57 l 528 -57 l 528 775 l 797 775 l 821 954 l 415 954 l 415 979 l 824 979 l 842 1126 l 864 1122 l 846 979 l 1276 979 l 1276 954 l 843 954 l 819 775 l 1144 775 l 1144 -56 l 1303 -56 l 1303 -82 m 278 -122 l 251 -122 l 251 728 q 100 432 182 574 l 75 450 q 240 768 157 579 q 368 1122 324 957 l 394 1113 q 278 786 349 963 l 278 -122 m 1119 571 l 1119 750 l 553 750 l 553 571 l 1119 571 m 1119 372 l 1119 547 l 553 547 l 553 372 l 1119 372 m 1119 164 l 1119 349 l 553 349 l 553 164 l 1119 164 m 1119 -57 l 1119 140 l 553 140 l 553 -57 l 1119 -57 z "},"倾":{"ha":1389,"x_min":60,"x_max":1331,"o":"m 283 -126 l 257 -126 l 257 756 q 81 458 171 585 l 60 476 q 244 787 160 615 q 378 1122 329 958 l 404 1113 q 283 814 356 976 l 283 -126 m 1038 1038 q 982 794 1015 908 l 1253 794 l 1253 182 l 1225 182 l 1225 767 l 793 767 l 793 183 l 765 183 l 765 794 l 958 794 q 1014 1038 993 911 l 668 1038 l 668 1065 l 1331 1065 l 1331 1038 l 1038 1038 m 449 167 q 456 182 454 174 q 457 201 457 190 l 457 996 l 483 996 l 483 699 l 681 699 l 681 672 l 483 672 l 483 171 q 676 265 554 200 l 688 242 q 471 135 622 204 l 449 167 m 653 -69 q 861 9 786 -40 q 965 126 936 58 q 994 290 994 193 l 994 663 l 1022 663 l 1022 290 q 992 118 1022 192 q 882 -10 961 44 q 663 -97 803 -65 l 653 -69 m 1310 -107 q 1049 93 1186 6 l 1065 114 q 1328 -85 1210 24 l 1310 -107 z "},"偃":{"ha":1389,"x_min":61,"x_max":1307,"o":"m 260 -126 l 235 -126 l 235 754 q 158 584 200 672 q 83 439 115 496 l 61 454 q 217 781 147 607 q 326 1118 288 954 l 353 1111 q 260 826 314 974 l 260 -126 m 1307 -49 l 446 -49 l 446 1067 l 1289 1067 l 1289 1042 l 471 1042 l 471 -24 l 1307 -24 l 1307 -49 m 1174 578 l 646 578 l 646 931 l 1174 931 l 1174 578 m 1150 776 l 1150 906 l 671 906 l 671 776 l 1150 776 m 1150 603 l 1150 751 l 671 751 l 671 603 l 1150 603 m 1271 46 q 1119 113 1188 85 q 949 179 1050 140 q 569 42 814 88 l 560 67 q 924 189 796 107 q 704 264 842 222 q 796 418 768 354 l 554 418 l 554 443 l 806 443 q 843 539 825 481 l 864 531 q 829 443 849 483 l 1282 443 l 1282 418 l 1106 418 q 1049 297 1082 350 q 965 197 1015 244 q 1285 69 1114 142 l 1271 46 m 821 418 q 740 276 789 350 q 942 207 890 228 q 1081 418 1032 283 l 821 418 z "},"假":{"ha":1389,"x_min":75,"x_max":1313,"o":"m 278 -122 l 250 -122 l 250 728 q 100 435 182 576 l 75 450 q 240 767 157 579 q 368 1121 324 956 l 394 1113 q 278 786 349 963 l 278 -122 m 797 186 l 489 186 l 489 -122 l 461 -122 l 461 1053 l 793 1053 l 793 711 l 489 711 l 489 472 l 776 472 l 776 444 l 489 444 l 489 214 l 797 214 l 797 186 m 1222 706 l 886 706 l 886 733 l 1194 733 l 1194 1017 l 890 1017 l 890 1044 l 1222 1044 l 1222 706 m 765 738 l 765 1025 l 489 1025 l 489 738 l 765 738 m 1296 -118 q 1056 96 1153 -22 q 742 -118 931 -35 l 728 -92 q 901 1 826 -49 q 1036 115 976 50 q 874 496 919 276 l 822 496 l 822 524 l 1232 524 q 1072 118 1197 282 q 1313 -93 1171 -4 l 1296 -118 m 900 496 q 1054 136 949 281 q 1147 301 1111 213 q 1200 496 1182 389 l 900 496 z "},"偎":{"ha":1389,"x_min":75,"x_max":1308,"o":"m 278 -122 l 251 -122 l 251 728 q 100 432 182 574 l 75 450 q 240 768 157 579 q 368 1122 324 957 l 394 1113 q 278 786 349 963 l 278 -122 m 1172 579 l 506 579 l 506 1058 l 1172 1058 l 1172 579 m 829 840 l 829 1033 l 531 1033 l 531 840 l 829 840 m 1147 840 l 1147 1033 l 854 1033 l 854 840 l 1147 840 m 829 604 l 829 815 l 531 815 l 531 604 l 829 604 m 1147 604 l 1147 815 l 854 815 l 854 604 l 1147 604 m 1294 -115 q 982 91 1099 -35 q 819 403 865 217 l 594 403 l 594 -61 q 725 -17 651 -43 q 844 29 799 8 l 851 6 q 575 -94 713 -50 l 560 -68 q 569 -44 569 -62 l 569 403 l 375 403 l 375 428 l 1294 428 l 1294 403 l 844 403 q 890 268 861 329 q 963 149 919 207 q 1211 296 1118 219 l 1228 276 q 978 129 1124 199 q 1119 3 1039 57 q 1308 -92 1200 -50 l 1294 -115 z "},"偏":{"ha":1389,"x_min":75,"x_max":1247,"o":"m 278 -122 l 251 -122 l 251 729 q 97 433 192 597 l 75 450 q 241 767 158 581 q 368 1117 324 953 l 393 1108 q 278 786 349 961 l 278 -122 m 868 931 q 812 1019 849 968 q 744 1103 775 1071 l 763 1117 q 832 1033 794 1083 q 889 946 869 983 l 868 931 m 1203 911 l 1203 640 l 500 640 q 492 332 500 449 q 458 106 485 215 q 372 -115 431 -3 l 350 -101 q 433 106 406 6 q 467 310 460 206 q 474 586 474 415 l 474 911 l 1203 911 m 1176 665 l 1176 885 l 500 885 l 500 665 l 1176 665 m 1151 -107 q 1086 -103 1118 -107 l 1079 -75 q 1117 -80 1094 -78 q 1158 -82 1140 -82 q 1208 -69 1196 -82 q 1221 -21 1221 -57 l 1221 193 l 1024 193 l 1024 -57 l 997 -57 l 997 193 l 817 193 l 817 -72 l 792 -72 l 792 193 l 599 193 l 599 -126 l 572 -126 l 572 475 l 1247 475 l 1247 -15 q 1228 -88 1247 -69 q 1151 -107 1208 -107 m 793 219 l 793 449 l 599 449 l 599 219 l 793 219 m 997 219 l 997 449 l 818 449 l 818 219 l 997 219 m 1221 219 l 1221 449 l 1024 449 l 1024 219 l 1221 219 z "},"做":{"ha":1389,"x_min":65,"x_max":1313,"o":"m 1294 -111 q 1157 39 1217 -35 q 1043 200 1097 113 q 903 26 982 104 q 725 -121 824 -51 l 710 -97 q 1028 228 917 39 q 944 426 983 313 q 879 658 904 540 q 828 504 858 586 l 804 515 q 897 806 857 644 q 961 1121 938 967 l 985 1115 q 929 839 967 997 l 1311 839 l 1311 811 l 1226 811 q 1163 490 1204 632 q 1056 229 1121 347 q 1313 -90 1163 40 l 1294 -111 m 265 -126 l 239 -126 l 239 754 q 162 584 204 672 q 88 439 119 496 l 65 454 q 222 781 151 607 q 331 1118 292 954 l 356 1111 q 265 826 307 939 l 265 -126 m 811 804 l 596 804 l 596 479 l 746 479 l 746 22 l 718 22 l 718 88 l 428 88 l 428 18 l 400 18 l 400 479 l 568 479 l 568 804 l 346 804 l 346 832 l 568 832 l 568 1115 l 596 1115 l 596 832 l 811 832 l 811 804 m 922 811 q 893 701 913 771 q 953 467 918 575 q 1042 256 989 360 q 1142 508 1104 374 q 1200 811 1181 643 l 922 811 m 718 115 l 718 451 l 428 451 l 428 115 l 718 115 z "},"停":{"ha":1389,"x_min":75,"x_max":1283,"o":"m 279 -122 l 251 -122 l 251 728 q 100 432 182 574 l 75 450 q 240 767 157 579 q 368 1121 324 956 l 394 1113 q 279 786 344 947 l 279 -122 m 847 992 q 764 1107 813 1056 l 781 1121 q 867 1007 826 1072 l 847 992 m 1268 949 l 418 949 l 418 974 l 1268 974 l 1268 949 m 1114 604 l 546 604 l 546 828 l 1114 828 l 1114 604 m 1088 629 l 1088 803 l 572 803 l 572 629 l 1088 629 m 1283 294 l 1257 294 l 1257 443 l 407 443 l 407 289 l 381 289 l 381 469 l 1283 469 l 1283 294 m 865 -18 q 843 -94 865 -75 q 765 -112 821 -112 q 647 -106 707 -112 l 643 -75 q 772 -85 706 -85 q 824 -72 810 -85 q 838 -21 838 -58 l 838 251 l 513 251 l 513 278 l 1165 278 l 1165 251 l 865 251 l 865 -18 z "},"健":{"ha":1389,"x_min":68,"x_max":1324,"o":"m 247 -126 l 222 -126 l 222 725 q 157 572 199 664 q 90 433 115 481 l 68 446 q 315 1128 238 768 l 339 1122 q 247 796 285 910 l 247 -126 m 1317 785 l 1207 785 l 1207 583 l 958 583 l 958 424 l 1218 424 l 1218 397 l 958 397 l 958 228 l 1279 228 l 1279 203 l 958 203 l 958 31 l 932 31 l 932 203 l 631 203 l 631 228 l 932 228 l 932 397 l 675 397 l 675 424 l 932 424 l 932 583 l 711 583 l 711 608 l 932 608 l 932 785 l 624 785 l 624 811 l 932 811 l 932 965 l 706 965 l 706 992 l 932 992 l 932 1125 l 958 1125 l 958 992 l 1207 992 l 1207 811 l 1317 811 l 1317 785 m 301 -89 q 475 156 421 38 q 404 292 433 224 q 356 447 375 361 l 379 456 q 426 303 396 378 q 488 182 456 228 q 555 379 532 282 q 594 601 578 476 l 351 601 q 585 1001 506 836 l 367 1001 l 367 1028 l 622 1028 q 522 836 575 926 q 390 625 468 746 l 622 625 q 578 376 607 488 q 504 161 550 264 q 761 -14 613 21 q 1203 -47 906 -47 q 1324 -46 1282 -47 l 1314 -74 q 978 -67 1107 -74 q 756 -37 849 -60 q 615 24 679 -19 q 493 135 551 68 q 420 17 465 81 q 321 -107 375 -46 l 301 -89 m 1181 811 l 1181 965 l 958 965 l 958 811 l 1181 811 m 1181 608 l 1181 785 l 958 785 l 958 608 l 1181 608 z "},"偶":{"ha":1389,"x_min":65,"x_max":1258,"o":"m 267 -126 l 239 -126 l 239 754 q 161 578 203 667 q 90 438 119 489 l 65 454 q 222 781 151 607 q 331 1118 292 954 l 357 1111 q 267 826 308 939 l 267 -126 m 1161 -107 q 1100 -105 1133 -107 q 1039 -99 1067 -103 l 1035 -69 q 1160 -81 1113 -81 q 1216 -65 1200 -81 q 1232 -11 1232 -50 l 1232 363 l 836 363 l 836 124 q 1067 151 953 133 q 997 256 1024 221 l 1017 268 q 1156 46 1083 172 l 1135 32 q 1079 129 1103 92 q 567 78 906 106 l 560 104 q 810 121 690 110 l 810 363 l 442 363 l 442 -125 l 415 -125 l 415 389 l 810 389 l 810 569 l 489 569 l 489 1056 l 1169 1056 l 1169 569 l 836 569 l 836 389 l 1258 389 l 1258 -7 q 1238 -85 1258 -64 q 1161 -107 1217 -107 m 810 833 l 810 1029 l 515 1029 l 515 833 l 810 833 m 1142 833 l 1142 1029 l 836 1029 l 836 833 l 1142 833 m 810 596 l 810 808 l 515 808 l 515 596 l 810 596 m 1142 596 l 1142 808 l 836 808 l 836 596 l 1142 596 z "},"偷":{"ha":1389,"x_min":67,"x_max":1308,"o":"m 264 -126 l 238 -126 l 238 746 q 89 451 179 603 l 67 468 q 353 1124 256 790 l 378 1117 q 264 801 321 940 l 264 -126 m 1294 696 q 807 1049 1024 832 q 594 849 704 935 q 343 678 485 763 l 328 700 q 620 903 474 781 q 828 1114 767 1026 l 847 1100 l 822 1069 q 1028 889 890 993 q 1308 719 1165 785 l 1294 696 m 1032 772 l 607 772 l 607 797 l 1032 797 l 1032 772 m 1090 -108 q 1030 -105 1068 -108 q 960 -97 992 -101 l 954 -69 q 1094 -83 1043 -83 q 1146 -69 1132 -83 q 1160 -15 1160 -54 l 1160 678 l 1185 678 l 1185 -14 q 1165 -89 1185 -69 q 1090 -108 1146 -108 m 713 -111 q 635 -106 685 -111 l 629 -78 q 713 -86 696 -86 q 765 -73 751 -86 q 779 -22 779 -60 l 779 185 l 489 185 l 489 -126 l 464 -126 l 464 632 l 804 632 l 804 -19 q 785 -91 804 -71 q 713 -111 765 -111 m 779 419 l 779 607 l 489 607 l 489 419 l 779 419 m 990 138 l 965 138 l 965 557 l 990 557 l 990 138 m 779 210 l 779 394 l 489 394 l 489 210 l 779 210 z "},"偿":{"ha":1389,"x_min":57,"x_max":1325,"o":"m 1268 651 l 1268 821 l 447 821 l 447 647 l 422 647 l 422 847 l 846 847 l 846 1124 l 872 1124 l 872 847 l 1017 847 q 1149 1082 1089 951 l 1171 1071 q 1044 847 1099 925 l 1294 847 l 1294 651 l 1268 651 m 281 -126 l 254 -126 l 254 756 q 79 458 164 578 l 57 476 q 242 787 157 615 q 375 1122 326 958 l 401 1113 q 281 814 353 976 l 281 -126 m 667 864 q 544 1058 604 983 l 565 1072 q 690 879 633 983 l 667 864 m 1168 583 l 558 583 l 558 610 l 1168 610 l 1168 583 m 776 342 q 660 134 725 238 q 533 -54 596 31 q 1171 33 946 -7 q 1028 213 1113 114 l 1047 229 q 1297 -92 1169 86 l 1275 -110 q 1225 -36 1253 -71 q 1189 10 1197 -1 q 511 -83 954 -32 l 497 -56 q 511 -43 507 -47 q 640 144 576 43 q 749 342 704 246 l 401 342 l 401 368 l 1325 368 l 1325 342 l 776 342 z "},"傀":{"ha":1389,"x_min":69,"x_max":1314,"o":"m 1314 129 q 1303 -1 1310 53 q 1283 -59 1297 -40 q 1241 -85 1268 -78 q 1164 -96 1214 -93 q 1046 -99 1081 -99 q 921 -96 1015 -99 q 849 -83 872 -93 q 819 -49 826 -72 q 811 19 811 -26 l 811 440 l 769 440 q 628 124 721 263 q 381 -112 535 -14 l 364 -90 q 606 138 514 4 q 744 440 697 271 l 469 440 l 469 965 l 676 965 q 717 1042 697 997 q 749 1125 738 1086 l 771 1117 q 701 965 744 1033 l 1163 965 l 1163 440 l 836 440 l 836 19 q 842 -36 836 -18 q 865 -62 847 -54 q 922 -71 883 -69 q 1026 -72 961 -72 q 1157 -71 1111 -72 q 1223 -65 1200 -69 q 1261 -43 1246 -60 q 1281 7 1276 -26 q 1289 142 1289 72 l 1314 129 m 414 1113 q 294 814 360 961 l 294 -126 l 267 -126 l 267 756 q 92 458 176 578 l 69 476 q 254 787 169 615 q 388 1122 339 958 l 414 1113 m 497 940 l 497 729 l 796 729 q 811 940 807 842 l 497 940 m 1136 729 l 1136 940 l 835 940 q 819 729 831 842 l 1136 729 m 497 704 l 497 465 l 751 465 q 793 704 776 565 l 497 704 m 1136 465 l 1136 704 l 817 704 q 775 465 804 581 l 1136 465 m 1029 371 q 988 233 1017 314 q 938 108 960 153 q 1154 157 1078 138 q 1097 246 1126 204 l 1115 258 q 1232 63 1157 196 l 1213 50 q 1165 136 1186 103 l 1135 128 q 1040 106 1108 122 q 904 75 971 89 l 893 101 q 906 106 901 103 q 918 119 911 110 q 969 247 943 172 q 1006 378 994 321 l 1029 371 z "},"傅":{"ha":1389,"x_min":75,"x_max":1321,"o":"m 1196 819 l 1196 315 l 1168 315 l 1168 468 l 844 468 l 844 346 l 819 346 l 819 468 l 514 468 l 514 315 l 489 315 l 489 819 l 819 819 l 819 943 l 410 943 l 410 969 l 819 969 l 819 1124 l 846 1124 l 846 969 l 1276 969 l 1276 943 l 846 943 l 846 819 l 1196 819 m 279 -122 l 251 -122 l 251 728 q 100 432 182 574 l 75 450 q 240 768 157 579 q 368 1122 324 957 l 394 1113 q 279 786 344 947 l 279 -122 m 1153 1006 q 1007 1100 1100 1050 l 1018 1117 q 1168 1025 1100 1078 l 1153 1006 m 821 657 l 821 793 l 515 793 l 515 657 l 821 657 m 1169 657 l 1169 793 l 846 793 l 846 657 l 1169 657 m 821 494 l 821 631 l 515 631 l 515 494 l 821 494 m 1169 494 l 1169 631 l 846 631 l 846 494 l 1169 494 m 1096 -22 q 1074 -96 1096 -78 q 992 -114 1053 -114 q 903 -107 961 -114 l 899 -76 q 1001 -86 957 -86 q 1056 -74 1040 -86 q 1071 -24 1071 -61 l 1071 200 l 383 200 l 383 226 l 1071 226 l 1071 314 l 1096 314 l 1096 226 l 1321 226 l 1321 200 l 1096 200 l 1096 -22 m 726 -21 q 576 115 656 60 l 592 133 q 744 0 681 69 l 726 -21 z "},"傈":{"ha":1389,"x_min":57,"x_max":1314,"o":"m 281 -126 l 254 -126 l 254 756 q 79 458 164 578 l 57 476 q 242 787 157 615 q 375 1122 326 958 l 401 1113 q 281 814 353 976 l 281 -126 m 985 1026 l 985 842 l 1226 842 l 1226 532 l 490 532 l 490 842 l 729 842 l 729 1026 l 425 1026 l 425 1053 l 1297 1053 l 1297 1026 l 985 1026 m 958 1026 l 756 1026 l 756 842 l 958 842 l 958 1026 m 729 815 l 517 815 l 517 558 l 729 558 l 729 815 m 958 815 l 756 815 l 756 558 l 958 558 l 958 815 m 1200 815 l 985 815 l 985 558 l 1200 558 l 1200 815 m 1300 -33 q 864 317 1024 113 l 864 -122 l 838 -122 l 838 315 q 626 117 751 211 q 382 -33 501 22 l 368 -10 q 610 135 501 53 q 815 326 718 217 l 404 326 l 404 353 l 838 353 l 838 482 l 864 482 l 864 353 l 1300 353 l 1300 326 l 888 326 q 1314 -7 1044 126 l 1300 -33 z "},"傍":{"ha":1389,"x_min":75,"x_max":1317,"o":"m 450 961 l 450 988 l 853 988 q 820 1049 840 1014 q 779 1111 800 1085 l 800 1125 q 879 988 844 1063 l 1229 988 l 1229 961 l 450 961 m 278 -122 l 251 -122 l 251 728 q 99 432 188 585 l 75 450 q 240 768 157 581 q 368 1119 324 956 l 394 1113 q 278 786 349 963 l 278 -122 m 1251 551 l 1251 688 l 435 688 l 435 546 l 408 546 l 408 714 l 710 714 q 663 800 696 746 q 607 883 631 854 l 628 897 q 685 809 651 865 q 739 714 719 753 l 956 714 q 1010 806 983 753 q 1053 901 1038 858 l 1075 890 q 1033 798 1058 849 q 983 713 1007 747 l 1276 713 l 1276 551 l 1251 551 m 763 422 q 732 249 753 319 l 1161 249 q 1147 -7 1161 78 q 1111 -76 1139 -60 q 1018 -93 1083 -93 q 865 -83 968 -93 l 861 -51 q 1018 -65 968 -65 q 1094 -54 1072 -65 q 1122 -1 1115 -43 q 1133 103 1129 39 q 1136 222 1136 167 l 724 222 q 596 28 678 110 q 382 -115 514 -53 l 365 -90 q 574 45 496 -29 q 690 210 653 119 q 738 422 728 301 l 389 422 l 389 449 l 864 449 q 824 521 850 479 q 775 593 799 563 l 796 607 q 893 449 849 538 l 1317 449 l 1317 422 l 763 422 z "},"傣":{"ha":1389,"x_min":65,"x_max":1311,"o":"m 265 -126 l 239 -126 l 239 754 q 161 578 203 667 q 90 438 119 489 l 65 454 q 222 781 151 607 q 331 1118 292 954 l 357 1111 q 265 826 313 957 l 265 -126 m 850 1113 q 832 1003 843 1061 l 1217 1003 l 1217 976 l 826 976 q 788 819 811 889 l 1161 819 l 1161 793 l 779 793 q 710 638 754 717 l 1307 638 l 1307 611 l 1003 611 q 1311 315 1103 450 l 1296 290 q 1112 440 1192 363 q 972 611 1032 517 l 694 611 q 560 448 639 519 q 371 315 482 376 l 357 338 q 668 611 565 447 l 379 611 l 379 639 l 683 639 q 756 793 724 704 l 503 793 l 503 819 l 764 819 q 804 976 785 878 l 460 976 l 460 1003 l 808 1003 q 826 1115 819 1058 l 850 1113 m 738 -115 q 615 -107 675 -115 l 611 -78 q 747 -90 683 -90 q 797 -80 785 -90 q 810 -32 810 -69 l 810 507 l 835 507 l 835 -29 q 827 -85 835 -68 q 799 -109 819 -103 q 738 -115 779 -115 m 924 278 q 1009 324 960 294 q 1088 376 1058 354 l 1100 360 q 1021 307 1072 339 q 935 257 969 275 l 924 278 m 693 249 q 626 306 672 271 q 553 357 579 342 l 567 375 q 641 324 594 358 q 710 269 688 290 l 693 249 m 389 43 q 553 110 451 64 q 703 185 656 156 l 714 165 q 564 88 667 136 q 401 19 461 40 l 389 43 m 1225 -8 q 1077 80 1182 21 q 919 164 972 139 l 932 185 q 1090 103 986 160 q 1240 17 1194 46 l 1225 -8 z "},"储":{"ha":1389,"x_min":57,"x_max":1333,"o":"m 281 -126 l 254 -126 l 254 756 q 79 458 164 578 l 57 476 q 242 787 157 615 q 375 1122 326 958 l 401 1113 q 281 814 353 976 l 281 -126 m 1031 649 q 611 324 853 465 l 594 346 q 999 649 828 478 l 628 649 l 628 675 l 914 675 l 914 906 l 701 906 l 701 932 l 914 932 l 914 1103 l 940 1103 l 940 932 l 1117 932 l 1117 906 l 940 906 l 940 675 l 1021 675 q 1151 852 1086 753 q 1263 1043 1217 951 l 1285 1031 q 1174 844 1239 942 q 1050 675 1110 747 l 1333 675 l 1333 649 l 1031 649 m 564 792 q 408 978 501 885 l 425 993 q 585 808 515 907 l 564 792 m 483 63 q 490 69 485 64 q 496 92 496 74 l 496 593 l 356 593 l 356 618 l 524 618 l 524 72 q 660 150 615 118 l 665 121 q 506 32 617 89 l 483 63 m 1228 -126 l 1203 -126 l 1203 -60 l 833 -60 l 833 -126 l 808 -126 l 808 449 l 1228 449 l 1228 -126 m 1203 219 l 1203 424 l 833 424 l 833 219 l 1203 219 m 1203 -35 l 1203 194 l 833 194 l 833 -35 l 1203 -35 z "},"催":{"ha":1389,"x_min":65,"x_max":1311,"o":"m 1213 847 l 504 847 l 504 1047 l 531 1047 l 531 874 l 850 874 l 850 1124 l 876 1124 l 876 874 l 1186 874 l 1186 1047 l 1213 1047 l 1213 847 m 267 -126 l 239 -126 l 239 754 q 161 578 203 667 q 90 438 119 489 l 65 454 q 222 781 151 607 q 331 1118 292 954 l 357 1111 q 267 825 306 932 l 267 -126 m 903 643 q 858 713 888 672 q 800 783 829 753 l 818 799 q 874 731 844 769 q 924 661 904 692 l 903 643 m 560 -50 l 560 -122 l 533 -122 l 533 568 q 460 448 506 518 q 381 335 414 378 l 360 353 q 508 574 440 458 q 621 796 575 690 l 643 785 q 561 619 613 714 l 1272 619 l 1272 593 l 907 593 l 907 414 l 1213 414 l 1213 388 l 907 388 l 907 213 l 1218 213 l 1218 186 l 907 186 l 907 -24 l 1311 -24 l 1311 -50 l 560 -50 m 881 414 l 881 593 l 560 593 l 560 414 l 881 414 m 881 213 l 881 388 l 560 388 l 560 213 l 881 213 m 881 -24 l 881 186 l 560 186 l 560 -24 l 881 -24 z "},"傲":{"ha":1389,"x_min":65,"x_max":1324,"o":"m 532 494 q 524 321 529 392 l 806 321 q 789 33 806 131 q 752 -37 778 -21 q 668 -54 726 -54 q 567 -47 615 -54 l 563 -17 q 669 -28 629 -28 q 736 -15 718 -28 q 764 42 754 -3 q 776 151 771 79 q 781 294 781 224 l 521 294 q 466 79 510 188 q 339 -118 422 -29 l 319 -99 q 464 145 419 7 q 508 494 508 283 l 336 494 l 336 521 l 606 521 l 604 724 l 392 724 l 392 749 l 604 749 l 604 938 l 369 938 l 369 963 l 604 963 l 604 1119 l 629 1119 l 629 963 l 856 963 l 856 938 l 629 938 l 629 749 l 822 749 l 822 724 l 629 724 l 629 521 l 889 521 l 889 494 l 532 494 m 357 1111 q 267 826 308 939 l 267 -126 l 239 -126 l 239 754 q 161 578 203 667 q 90 438 119 489 l 65 454 q 222 781 151 607 q 331 1118 292 954 l 357 1111 m 1100 236 q 1324 -72 1181 75 l 1301 -96 q 1182 55 1233 -17 q 1086 208 1131 126 q 832 -101 989 36 l 814 -79 q 1074 235 985 67 q 983 460 1021 346 q 921 719 944 574 q 858 565 886 625 l 838 578 q 942 844 893 690 q 1013 1103 992 997 l 1036 1096 q 965 835 1014 992 l 1303 835 l 1303 808 l 1235 808 q 1191 497 1224 636 q 1100 236 1158 358 m 938 756 q 1000 483 965 597 q 1088 265 1035 369 q 1170 517 1143 390 q 1210 808 1197 644 l 957 808 l 938 756 z "},"傻":{"ha":1389,"x_min":75,"x_max":1300,"o":"m 488 606 l 488 1017 l 757 1017 q 821 1129 797 1071 l 842 1119 q 785 1017 819 1067 l 1201 1017 l 1201 606 l 488 606 m 279 -122 l 251 -122 l 251 728 q 100 432 182 574 l 75 450 q 240 768 157 579 q 368 1122 324 957 l 394 1113 q 279 786 344 947 l 279 -122 m 1175 632 l 1175 990 l 514 990 l 514 632 l 1175 632 m 1044 679 q 854 799 929 758 q 608 674 742 729 l 597 696 q 721 749 656 717 q 833 810 786 781 q 642 915 725 876 l 653 936 q 854 824 736 896 q 1028 949 953 883 l 1043 929 q 874 811 969 872 q 1024 721 914 790 l 1058 699 l 1044 679 m 769 564 q 590 448 679 493 q 392 369 501 403 l 385 396 q 580 471 492 426 q 750 581 668 515 l 769 564 m 1274 375 q 917 551 1093 494 l 928 576 q 1290 403 1115 511 l 1274 375 m 1286 -124 q 901 44 1078 -57 q 669 -51 806 -8 q 397 -117 533 -94 l 386 -89 q 665 -26 528 -68 q 878 61 801 15 q 749 159 807 104 q 632 286 692 214 q 435 117 551 203 l 417 139 q 592 282 513 207 q 749 460 671 357 l 768 444 q 675 332 725 383 l 1163 332 q 1063 187 1128 258 q 926 60 999 115 q 1096 -26 1007 13 q 1300 -99 1185 -64 l 1286 -124 m 650 306 q 769 174 710 228 q 903 76 829 119 q 1027 183 967 121 q 1118 306 1088 246 l 650 306 z "},"像":{"ha":1389,"x_min":75,"x_max":1290,"o":"m 1006 390 q 1119 180 1058 263 q 1290 21 1181 97 l 1274 -1 q 1102 163 1167 74 q 985 381 1038 251 q 931 356 960 367 q 893 340 903 344 q 919 226 910 290 q 928 101 928 163 q 904 -47 928 11 q 807 -106 881 -106 q 664 -94 731 -106 l 658 -62 q 803 -78 733 -78 q 883 -28 864 -78 q 903 101 903 22 q 892 249 903 175 q 663 109 808 182 q 392 -1 517 36 l 376 25 q 653 134 511 64 q 886 278 796 204 q 839 406 874 344 q 419 183 636 257 l 403 208 q 826 428 626 278 q 744 529 785 489 q 725 514 743 528 q 597 438 672 474 q 408 360 521 401 l 394 382 q 585 458 508 422 q 713 536 661 493 q 769 594 742 560 l 482 594 l 482 822 l 881 822 q 976 976 942 903 l 638 976 q 360 739 503 840 l 344 760 q 722 1125 597 933 l 744 1113 q 660 1003 700 1049 l 1017 1003 q 910 822 965 896 l 1214 822 l 1214 594 l 801 594 q 760 544 783 568 q 886 361 832 474 q 1167 510 1046 426 l 1182 489 q 1006 390 1104 438 m 394 1113 q 279 786 344 947 l 279 -122 l 251 -122 l 251 728 q 100 432 182 574 l 75 450 q 240 768 157 579 q 368 1122 324 957 l 394 1113 m 510 622 l 789 622 q 847 794 828 689 l 510 794 l 510 622 m 1186 794 l 872 794 q 819 622 856 690 l 1186 622 l 1186 794 z "},"僚":{"ha":1389,"x_min":65,"x_max":1318,"o":"m 265 -126 l 239 -126 l 239 753 q 162 583 204 671 q 88 438 119 494 l 65 454 q 222 781 151 607 q 331 1118 292 954 l 357 1111 q 265 826 313 957 l 265 -126 m 771 938 q 600 726 708 822 q 363 558 492 629 l 347 581 q 575 735 478 646 q 446 840 524 785 l 460 858 q 593 751 514 819 q 679 842 638 792 q 743 936 721 892 l 394 936 l 394 963 l 754 963 q 808 1118 786 1025 l 832 1113 q 781 963 808 1022 l 1283 963 l 1283 938 l 874 938 q 1047 746 938 836 q 1156 872 1113 804 l 1175 858 q 1063 731 1128 789 q 1318 561 1176 636 l 1303 538 q 1036 724 1150 629 q 846 938 922 819 l 771 938 m 1083 674 l 1083 289 l 829 289 l 829 -15 q 806 -89 829 -69 q 726 -108 783 -108 q 633 -101 685 -108 l 628 -71 q 729 -82 694 -82 q 785 -69 768 -82 q 803 -19 803 -57 l 803 289 l 554 289 l 554 674 l 1083 674 m 1058 506 l 1058 647 l 579 647 l 579 506 l 1058 506 m 1058 315 l 1058 479 l 579 479 l 579 315 l 1058 315 m 371 -14 q 490 83 431 29 q 593 192 549 138 l 611 175 q 503 63 565 122 q 388 -35 440 4 l 371 -14 m 1224 -53 q 1115 65 1178 3 q 997 174 1053 128 l 1014 192 q 1131 84 1067 147 q 1243 -32 1196 21 l 1224 -53 z "},"僧":{"ha":1389,"x_min":64,"x_max":1253,"o":"m 288 -126 l 261 -126 l 261 756 q 86 458 171 578 l 64 476 q 249 787 164 615 q 382 1122 333 958 l 408 1113 q 288 814 360 976 l 288 -126 m 471 533 l 471 938 l 724 938 q 681 1019 711 967 q 629 1100 650 1071 l 649 1115 q 703 1027 671 1083 q 751 938 736 971 l 982 938 q 1030 1028 1004 972 q 1065 1119 1056 1083 l 1088 1110 q 1049 1017 1074 1069 q 1007 936 1025 965 l 1253 936 l 1253 533 l 471 533 m 851 558 l 851 913 l 499 913 l 499 558 l 851 558 m 1225 558 l 1225 913 l 876 913 l 876 558 l 1225 558 m 988 642 q 1048 736 1011 672 q 1101 839 1085 800 l 1121 828 q 1069 726 1106 790 q 1008 628 1032 661 l 988 642 m 711 632 q 656 730 694 671 q 590 822 618 789 l 608 836 q 674 745 635 804 q 735 647 714 686 l 711 632 m 1161 -126 l 1136 -126 l 1136 -51 l 586 -51 l 586 -126 l 561 -126 l 561 393 l 1161 393 l 1161 -126 m 1136 192 l 1136 368 l 586 368 l 586 192 l 1136 192 m 1136 -26 l 1136 167 l 586 167 l 586 -26 l 1136 -26 z "},"僵":{"ha":1389,"x_min":65,"x_max":1315,"o":"m 265 -126 l 239 -126 l 239 754 q 161 578 203 667 q 90 438 119 489 l 65 454 q 222 781 151 607 q 331 1118 292 954 l 357 1111 q 265 826 313 957 l 265 -126 m 1301 1033 l 365 1033 l 365 1061 l 1301 1061 l 1301 1033 m 1219 622 l 468 622 l 468 925 l 1219 925 l 1219 622 m 825 794 l 825 900 l 492 900 l 492 794 l 825 794 m 1196 794 l 1196 900 l 850 900 l 850 794 l 1196 794 m 825 649 l 825 771 l 492 771 l 492 649 l 825 649 m 1196 649 l 1196 771 l 850 771 l 850 649 l 1196 649 m 1288 485 l 379 485 l 379 513 l 1288 513 l 1288 485 m 1231 46 l 457 46 l 457 376 l 1231 376 l 1231 46 m 825 231 l 825 351 l 481 351 l 481 231 l 825 231 m 1207 231 l 1207 351 l 850 351 l 850 231 l 1207 231 m 825 72 l 825 207 l 481 207 l 481 72 l 825 72 m 1207 72 l 1207 207 l 850 207 l 850 72 l 1207 72 m 1315 -92 l 351 -92 l 351 -64 l 1315 -64 l 1315 -92 z "},"僻":{"ha":1389,"x_min":65,"x_max":1310,"o":"m 265 -126 l 239 -126 l 239 754 q 161 578 203 667 q 90 438 119 489 l 65 454 q 222 781 151 607 q 331 1118 292 954 l 357 1111 q 265 826 313 957 l 265 -126 m 1068 943 q 1031 1022 1057 978 q 983 1094 1006 1065 l 1003 1107 q 1050 1035 1024 1081 q 1090 957 1076 990 l 1068 943 m 319 142 q 421 375 393 264 q 449 633 449 486 l 449 1042 l 750 1042 l 750 651 l 474 651 q 444 374 476 497 q 342 128 411 251 l 319 142 m 725 678 l 725 1015 l 474 1015 l 474 678 l 725 678 m 1296 882 l 822 882 l 822 908 l 1296 908 l 1296 882 m 1118 590 q 1169 694 1142 628 q 1207 804 1197 761 l 1228 796 q 1188 682 1214 747 q 1139 579 1161 617 l 1118 590 m 976 579 q 937 679 964 619 q 886 781 910 739 l 907 793 q 957 693 929 754 q 1000 590 985 632 l 976 579 m 1310 501 l 1081 501 l 1081 261 l 1279 261 l 1279 235 l 1081 235 l 1081 -126 l 1056 -126 l 1056 235 l 849 235 l 849 261 l 1056 261 l 1056 501 l 808 501 l 808 528 l 1310 528 l 1310 501 m 482 -106 l 482 440 l 775 440 l 775 -101 l 751 -101 l 751 -37 l 508 -37 l 508 -106 l 482 -106 m 751 -11 l 751 414 l 508 414 l 508 -11 l 751 -11 z "},"儋":{"ha":1389,"x_min":64,"x_max":1307,"o":"m 947 865 q 996 937 971 894 q 1033 1010 1021 979 l 644 1010 q 397 778 549 894 l 382 799 q 707 1132 575 936 l 726 1118 q 664 1035 700 1078 l 1075 1035 q 978 865 1011 910 l 1307 865 l 1307 840 l 550 840 l 550 528 q 522 173 550 328 q 411 -111 494 18 l 389 -96 q 499 183 472 39 q 525 528 525 326 l 525 865 l 947 865 m 288 -126 l 261 -126 l 261 756 q 86 458 171 578 l 64 476 q 249 787 164 615 q 382 1122 333 958 l 408 1113 q 288 814 360 976 l 288 -126 m 633 631 q 752 723 706 681 q 846 826 799 765 l 864 811 q 651 611 775 701 l 633 631 m 1194 611 q 1099 717 1142 674 q 993 808 1056 760 l 1008 825 q 1115 734 1069 778 q 1213 629 1160 690 l 1194 611 m 604 535 l 604 560 l 940 560 q 920 617 935 583 q 893 671 906 650 l 915 682 q 967 560 944 625 l 1288 560 l 1288 535 l 604 535 m 1219 393 l 657 393 l 657 418 l 1219 418 l 1219 393 m 1219 256 l 663 256 l 663 281 l 1219 281 l 1219 256 m 1218 -126 l 1193 -126 l 1193 -76 l 683 -76 l 683 -126 l 658 -126 l 658 135 l 1218 135 l 1218 -126 m 1193 -51 l 1193 110 l 683 110 l 683 -51 l 1193 -51 z "},"儒":{"ha":1389,"x_min":75,"x_max":1307,"o":"m 279 -122 l 251 -122 l 251 731 q 99 435 188 588 l 75 450 q 240 768 157 579 q 368 1122 324 957 l 393 1113 q 279 789 342 944 l 279 -122 m 1263 715 l 1236 715 l 1236 888 l 853 888 l 853 567 l 826 567 l 826 888 l 449 888 l 449 710 l 422 710 l 422 914 l 826 914 l 826 1036 l 482 1036 l 482 1063 l 1201 1063 l 1201 1036 l 853 1036 l 853 914 l 1263 914 l 1263 715 m 742 740 l 531 740 l 531 765 l 742 765 l 742 740 m 1146 740 l 939 740 l 939 765 l 1146 765 l 1146 740 m 742 603 l 515 603 l 515 628 l 742 628 l 742 603 m 1167 601 l 938 601 l 938 626 l 1167 626 l 1167 601 m 836 447 q 792 286 815 357 l 1222 286 l 1222 -17 q 1202 -91 1222 -72 q 1128 -110 1182 -110 q 1050 -104 1097 -110 l 1044 -75 q 1128 -83 1103 -83 q 1182 -72 1167 -83 q 1197 -22 1197 -60 l 1197 260 l 972 260 l 972 -57 l 946 -57 l 946 260 l 740 260 l 740 -67 l 714 -67 l 714 260 l 499 260 l 499 -117 l 472 -117 l 472 286 l 763 286 q 808 447 793 372 l 388 447 l 388 474 l 1307 474 l 1307 447 l 836 447 z "},"儡":{"ha":1389,"x_min":61,"x_max":1269,"o":"m 285 -126 l 258 -126 l 258 756 q 83 458 168 578 l 61 476 q 246 787 161 615 q 379 1122 331 958 l 406 1113 q 285 814 357 976 l 285 -126 m 1158 625 l 528 625 l 528 1061 l 1158 1061 l 1158 625 m 832 868 l 832 1036 l 553 1036 l 553 868 l 832 868 m 1133 868 l 1133 1036 l 857 1036 l 857 868 l 1133 868 m 832 650 l 832 843 l 553 843 l 553 650 l 832 650 m 1133 650 l 1133 843 l 857 843 l 857 650 l 1133 650 m 781 -124 l 756 -124 l 756 -53 l 436 -53 l 436 -122 l 411 -122 l 411 508 l 781 508 l 781 -124 m 1269 -122 l 1244 -122 l 1244 -53 l 918 -53 l 918 -122 l 893 -122 l 893 508 l 1269 508 l 1269 -122 m 586 260 l 586 483 l 436 483 l 436 260 l 586 260 m 756 260 l 756 483 l 611 483 l 611 260 l 756 260 m 1072 260 l 1072 483 l 918 483 l 918 260 l 1072 260 m 1244 260 l 1244 483 l 1097 483 l 1097 260 l 1244 260 m 586 -28 l 586 235 l 436 235 l 436 -28 l 586 -28 m 756 -28 l 756 235 l 611 235 l 611 -28 l 756 -28 m 1072 -28 l 1072 235 l 918 235 l 918 -28 l 1072 -28 m 1244 -28 l 1244 235 l 1097 235 l 1097 -28 l 1244 -28 z "},"儿":{"ha":1389,"x_min":117,"x_max":1297,"o":"m 117 -93 q 317 93 242 -7 q 428 324 393 193 q 464 638 464 456 l 464 1103 l 492 1103 l 492 624 q 453 306 492 440 q 336 69 414 171 q 135 -118 258 -32 l 117 -93 m 1286 32 q 1266 -37 1281 -14 q 1225 -68 1251 -60 q 1150 -79 1199 -76 q 1051 -82 1081 -82 q 969 -79 1028 -82 q 874 -49 899 -75 q 849 44 849 -22 l 849 1103 l 876 1103 l 876 46 q 896 -26 876 -6 q 968 -50 915 -47 q 1054 -53 1029 -53 q 1153 -50 1089 -53 q 1228 -33 1207 -47 q 1257 28 1250 -18 q 1268 182 1264 69 l 1297 169 q 1286 32 1292 83 z "},"允":{"ha":1389,"x_min":97,"x_max":1301,"o":"m 1289 38 q 1252 -48 1279 -26 q 1156 -72 1225 -69 q 1049 -75 1083 -75 q 944 -72 1017 -75 q 849 -43 874 -68 q 825 49 825 -18 l 825 644 l 774 642 q 554 631 613 633 q 507 283 547 413 q 376 65 467 153 q 113 -108 286 -24 l 97 -81 q 353 81 265 -1 q 479 288 440 163 q 525 629 518 413 q 233 618 350 621 l 226 650 q 269 675 243 651 q 464 894 381 788 q 615 1121 547 1001 l 639 1104 q 473 865 572 992 q 282 650 374 739 q 1126 694 728 661 q 919 907 1019 810 l 940 926 q 1271 575 1118 747 l 1249 554 q 1150 669 1213 600 q 854 647 1017 657 l 854 51 q 871 -20 854 -1 q 942 -42 888 -39 q 1075 -44 1033 -44 q 1156 -43 1129 -44 q 1231 -24 1208 -40 q 1261 39 1254 -7 q 1274 185 1269 94 l 1301 169 q 1289 38 1297 93 z "},"元":{"ha":1389,"x_min":96,"x_max":1300,"o":"m 1136 981 l 251 981 l 251 1010 l 1136 1010 l 1136 981 m 1289 33 q 1251 -53 1281 -31 q 1154 -78 1222 -76 q 1039 -79 1114 -79 q 957 -78 985 -79 q 883 -65 908 -75 q 848 -31 858 -54 q 838 38 838 -8 l 838 611 l 557 611 q 510 278 553 411 q 371 52 467 144 q 110 -108 275 -40 l 96 -81 q 351 74 258 -14 q 485 289 444 161 q 529 611 526 417 l 117 611 l 117 640 l 1278 640 l 1278 611 l 867 611 l 867 40 q 883 -31 867 -12 q 954 -50 900 -49 q 1061 -51 990 -51 q 1160 -50 1129 -51 q 1233 -31 1213 -47 q 1261 32 1254 -15 q 1272 181 1268 79 l 1300 167 l 1297 131 q 1289 33 1292 53 z "},"兄":{"ha":1389,"x_min":103,"x_max":1308,"o":"m 1297 19 q 1260 -62 1289 -40 q 1161 -87 1231 -85 q 1033 -90 1075 -90 q 929 -87 999 -90 q 835 -58 860 -83 q 811 36 811 -32 l 811 522 l 576 522 q 516 222 567 343 q 369 21 465 100 q 118 -112 272 -58 l 103 -83 q 349 44 257 -29 q 489 231 442 117 q 547 522 536 344 l 304 522 l 304 1046 l 1089 1046 l 1089 522 l 840 522 l 840 36 q 858 -35 840 -17 q 932 -57 876 -54 q 1060 -60 976 -60 q 1160 -58 1126 -60 q 1238 -40 1214 -56 q 1268 22 1263 -24 q 1278 174 1278 110 l 1308 158 q 1297 19 1303 60 m 1060 551 l 1060 1017 l 333 1017 l 333 551 l 1060 551 z "},"充":{"ha":1389,"x_min":101,"x_max":1293,"o":"m 739 924 q 672 1013 718 958 q 590 1100 625 1067 l 610 1117 q 690 1032 642 1088 q 763 942 738 976 l 739 924 m 1282 13 q 1244 -72 1272 -50 q 1147 -97 1217 -94 q 1058 -99 1117 -99 q 940 -97 979 -99 q 844 -72 869 -96 q 819 19 819 -47 l 818 515 q 579 501 732 510 q 449 112 556 263 q 118 -119 342 -39 l 106 -92 q 352 46 260 -35 q 490 236 444 126 q 553 501 536 346 l 388 494 l 276 490 l 271 521 q 289 526 279 521 q 305 538 299 532 q 315 546 311 543 q 464 713 396 625 q 569 871 532 801 l 101 871 l 101 899 l 1292 899 l 1292 871 l 601 871 q 473 687 553 789 q 326 519 393 585 q 1074 564 756 531 q 904 729 974 668 l 922 747 q 1178 496 1021 656 l 1240 432 l 1221 410 q 1096 540 1172 467 q 843 517 964 525 l 844 15 q 862 -51 844 -33 q 935 -69 879 -68 q 1047 -72 1010 -72 q 1154 -69 1088 -72 q 1226 -50 1206 -67 q 1256 14 1247 -33 q 1267 151 1263 53 l 1293 135 l 1290 94 q 1282 13 1288 47 z "},"兆":{"ha":1389,"x_min":117,"x_max":1285,"o":"m 118 -89 q 458 176 363 6 q 554 597 554 346 l 554 1104 l 582 1104 l 582 575 q 478 156 582 335 q 132 -118 375 -22 l 118 -89 m 1272 28 q 1235 -58 1263 -36 q 1138 -83 1207 -81 q 1031 -86 1065 -86 q 925 -83 994 -86 q 832 -52 856 -79 q 808 43 808 -25 l 808 1104 l 836 1104 l 836 38 q 854 -34 836 -15 q 926 -56 872 -53 q 1047 -58 1010 -58 q 1144 -56 1081 -58 q 1218 -35 1196 -53 q 1246 26 1240 -18 q 1258 153 1254 93 l 1285 138 q 1272 28 1276 61 m 938 724 q 1068 852 999 774 q 1181 996 1138 931 l 1201 981 q 1083 831 1154 913 q 957 703 1013 750 l 938 724 m 431 711 q 313 845 385 772 q 179 971 240 918 l 197 989 q 333 862 261 933 q 451 733 406 790 l 431 711 m 1239 308 q 1091 419 1181 358 q 926 524 1001 481 l 940 544 q 1102 445 1010 507 q 1257 332 1194 383 l 1239 308 m 117 319 q 295 423 196 357 q 451 542 394 489 l 468 522 q 308 400 411 471 q 133 294 204 329 l 117 319 z "},"先":{"ha":1389,"x_min":103,"x_max":1301,"o":"m 1290 18 q 1252 -67 1281 -44 q 1154 -92 1224 -89 q 1035 -93 1121 -93 q 922 -92 951 -93 q 826 -60 851 -87 q 800 35 800 -32 l 800 471 l 563 471 q 444 117 549 261 q 118 -117 339 -28 l 103 -87 q 341 49 250 -29 q 478 229 432 126 q 535 471 524 332 l 104 471 l 104 500 l 682 500 l 682 822 l 322 822 q 194 596 258 693 l 171 613 q 302 835 240 710 q 403 1078 364 961 l 428 1067 q 338 851 386 947 l 682 851 l 682 1118 l 711 1118 l 711 851 l 1142 851 l 1142 822 l 711 822 l 711 500 l 1290 500 l 1290 471 l 829 471 l 829 31 q 848 -38 829 -19 q 922 -61 867 -57 q 1038 -64 950 -64 q 1156 -61 1128 -64 q 1233 -41 1210 -57 q 1264 18 1257 -25 q 1272 104 1269 53 l 1275 149 l 1301 133 q 1299 96 1299 106 q 1290 18 1296 51 z "},"光":{"ha":1389,"x_min":101,"x_max":1303,"o":"m 1290 26 q 1251 -60 1279 -37 q 1156 -86 1224 -83 q 1033 -87 1122 -87 q 907 -86 936 -87 q 812 -54 838 -82 q 786 42 786 -26 l 786 556 l 578 556 q 522 269 568 393 q 378 49 476 146 q 117 -118 281 -49 l 101 -89 q 358 71 264 -19 q 494 278 451 161 q 549 556 538 394 l 104 556 l 104 585 l 681 585 l 681 1125 l 710 1125 l 710 585 l 1283 585 l 1283 556 l 815 556 l 815 39 q 833 -33 815 -14 q 906 -54 851 -51 q 1036 -57 933 -57 l 1108 -57 q 1163 -56 1149 -57 q 1235 -34 1214 -51 q 1263 29 1257 -17 q 1272 147 1267 63 l 1275 182 l 1303 168 l 1300 133 q 1290 26 1294 53 m 903 706 q 1017 860 949 756 q 1118 1029 1085 964 l 1142 1015 q 1040 843 1108 949 q 926 686 971 738 l 903 706 m 460 693 q 367 847 436 743 q 254 1006 297 951 l 276 1022 q 390 866 319 969 q 488 711 460 763 l 460 693 z "},"克":{"ha":1389,"x_min":103,"x_max":1315,"o":"m 1303 18 q 1266 -67 1294 -44 q 1168 -92 1238 -89 q 1038 -94 1125 -94 q 908 -92 951 -94 q 813 -61 838 -87 q 788 32 788 -35 l 788 344 l 582 344 q 456 53 564 165 q 132 -121 349 -60 l 118 -89 q 435 71 333 -32 q 554 344 536 174 l 297 344 l 297 708 l 676 708 l 676 926 l 103 926 l 103 954 l 676 954 l 676 1128 l 704 1128 l 704 954 l 1289 954 l 1289 926 l 704 926 l 704 708 l 1074 708 l 1074 344 l 817 344 l 817 33 q 836 -38 817 -19 q 910 -60 856 -57 q 1054 -64 983 -64 q 1174 -60 1115 -64 q 1249 -40 1226 -57 q 1275 24 1271 -22 l 1278 53 q 1285 161 1283 132 l 1315 146 q 1303 18 1310 71 m 1046 372 l 1046 681 l 325 681 l 325 372 l 1046 372 z "},"免":{"ha":1389,"x_min":82,"x_max":1301,"o":"m 769 724 q 836 836 803 774 q 889 947 869 899 l 446 947 q 101 554 297 732 l 82 575 q 327 830 215 690 q 518 1122 439 969 l 543 1110 q 464 976 494 1025 l 931 976 q 800 724 869 832 l 1126 724 l 1126 364 l 797 364 l 797 39 q 817 -35 797 -14 q 892 -58 838 -56 q 1028 -61 942 -61 q 1158 -58 1113 -61 q 1234 -39 1211 -56 q 1263 25 1257 -22 q 1274 157 1269 78 l 1301 142 q 1289 25 1296 75 q 1251 -62 1279 -39 q 1154 -87 1224 -85 q 1026 -90 1093 -90 q 890 -87 965 -90 q 795 -57 821 -85 q 769 39 769 -29 l 769 364 l 664 364 q 481 75 606 189 q 115 -118 356 -39 l 101 -89 q 458 93 332 -17 q 636 364 583 203 l 289 364 l 289 724 l 769 724 m 317 696 l 317 392 l 646 392 q 697 696 681 513 l 317 696 m 725 696 q 672 392 703 500 l 1099 392 l 1099 696 l 725 696 z "},"兑":{"ha":1389,"x_min":126,"x_max":1304,"o":"m 793 832 q 872 969 843 907 q 931 1117 901 1031 l 956 1108 q 896 959 926 1024 q 815 815 865 894 l 793 832 m 444 1108 q 529 975 493 1040 q 597 831 565 910 l 571 817 q 506 960 540 896 q 422 1093 471 1024 l 444 1108 m 1076 799 l 1076 364 l 833 364 l 833 32 q 853 -37 833 -19 q 928 -57 874 -54 q 1061 -60 1019 -60 q 1161 -57 1097 -60 q 1237 -36 1214 -54 q 1265 28 1260 -18 q 1275 163 1275 82 l 1304 147 q 1293 26 1300 67 q 1256 -60 1283 -37 q 1158 -86 1228 -83 q 1044 -89 1078 -89 q 925 -86 1017 -89 q 830 -58 856 -85 q 804 36 804 -32 l 804 364 l 590 364 q 533 138 581 228 q 392 -12 486 49 q 139 -119 297 -72 l 126 -89 q 373 12 283 -44 q 506 151 463 68 q 560 364 550 233 l 310 364 l 310 799 l 1076 799 m 1049 392 l 1049 771 l 338 771 l 338 392 l 1049 392 z "},"兔":{"ha":1389,"x_min":72,"x_max":1308,"o":"m 724 729 q 803 844 764 781 q 857 947 843 908 l 421 947 q 267 765 363 869 q 90 592 172 660 l 72 614 q 310 849 201 722 q 499 1114 418 976 l 522 1099 q 442 975 479 1028 l 901 975 q 830 840 871 908 q 757 729 789 771 l 1150 729 l 1150 401 l 754 401 l 754 32 q 774 -38 754 -19 q 847 -61 793 -57 q 1013 -64 876 -64 q 1168 -61 1140 -64 q 1241 -41 1221 -57 q 1268 22 1261 -25 q 1279 144 1278 85 l 1308 131 q 1297 22 1299 29 q 1260 -64 1288 -42 q 1163 -89 1232 -86 q 1007 -90 1129 -90 q 847 -89 876 -90 q 751 -58 776 -85 q 726 35 726 -32 l 726 401 l 660 401 q 471 83 600 203 q 132 -115 342 -37 l 117 -86 q 445 98 322 -14 q 631 401 568 210 l 250 401 l 250 729 l 724 729 m 278 701 l 278 429 l 639 429 q 679 701 668 544 l 278 701 m 707 701 q 667 429 696 546 l 1122 429 l 1122 701 l 707 701 m 1083 107 q 997 194 1053 144 q 906 269 942 244 l 919 289 q 1013 214 956 264 q 1104 128 1071 164 l 1083 107 z "},"兖":{"ha":1389,"x_min":93,"x_max":1315,"o":"m 93 964 l 93 992 l 686 992 q 622 1107 671 1043 l 647 1122 q 718 992 692 1057 l 1289 992 l 1289 964 l 93 964 m 1288 521 q 1065 669 1171 583 q 876 847 958 754 l 900 865 q 1306 550 1067 668 l 1288 521 m 96 531 q 483 861 326 665 l 503 844 q 319 656 421 743 q 114 507 217 569 l 96 531 m 1136 321 q 1040 417 1079 385 q 771 397 944 411 q 585 384 696 392 q 331 368 475 376 l 317 399 q 338 413 324 401 q 633 753 522 574 l 657 739 q 360 399 525 539 q 539 410 453 404 q 701 419 625 415 q 1019 440 854 432 q 829 617 950 513 l 849 638 q 1158 343 997 504 l 1136 321 m 589 285 q 521 82 574 163 q 369 -47 468 1 q 114 -121 269 -96 l 101 -92 q 350 -22 256 -65 q 495 97 444 22 q 560 288 546 171 l 589 285 m 813 33 q 832 -38 813 -19 q 907 -61 851 -57 q 1038 -64 935 -64 q 1169 -61 1142 -64 q 1246 -41 1224 -57 q 1275 21 1268 -25 q 1283 92 1281 54 q 1285 143 1285 129 l 1315 129 q 1303 13 1311 63 q 1265 -69 1293 -47 q 1168 -93 1236 -90 q 1033 -94 1135 -94 q 906 -93 935 -94 q 810 -63 835 -89 q 785 29 785 -37 l 785 288 l 813 288 l 813 33 z "},"党":{"ha":1389,"x_min":106,"x_max":1297,"o":"m 1214 633 l 1214 831 l 168 831 l 168 629 l 140 629 l 140 858 l 468 858 q 404 962 446 903 q 324 1064 363 1021 l 346 1082 q 430 972 388 1033 q 501 858 472 911 l 678 858 l 678 1128 l 706 1128 l 706 858 l 874 858 q 975 975 931 915 q 1046 1089 1019 1035 l 1069 1074 q 995 961 1039 1019 q 907 858 951 903 l 1242 858 l 1242 633 l 1214 633 m 1288 11 q 1249 -71 1278 -49 q 1153 -96 1221 -93 q 1025 -99 1110 -99 q 897 -96 940 -99 q 803 -65 828 -92 q 779 28 779 -39 l 779 332 l 583 332 q 509 115 565 201 q 358 -26 453 29 q 117 -121 264 -81 l 106 -93 q 342 -3 251 -54 q 485 128 432 49 q 556 332 538 208 l 351 332 l 351 658 l 1025 658 l 1025 332 l 807 332 l 807 28 q 826 -44 807 -25 q 900 -67 846 -64 q 1031 -69 944 -69 q 1156 -67 1114 -69 q 1233 -47 1208 -64 q 1263 15 1257 -31 q 1269 122 1269 65 l 1297 107 q 1288 11 1294 54 m 997 360 l 997 631 l 379 631 l 379 360 l 997 360 z "},"兜":{"ha":1389,"x_min":110,"x_max":1311,"o":"m 496 438 l 496 989 l 614 989 q 690 1132 667 1061 l 715 1122 q 643 989 686 1050 l 879 989 l 879 438 l 496 438 m 218 432 q 417 490 317 454 l 424 465 q 196 399 307 426 l 179 426 q 188 436 186 431 q 190 451 190 442 l 190 1008 q 418 1085 319 1039 l 433 1063 q 218 992 321 1015 l 218 432 m 1203 403 l 982 403 l 982 431 l 1175 431 l 1175 990 l 982 990 l 982 1018 l 1203 1018 l 1203 403 m 851 744 l 851 961 l 524 961 l 524 744 l 851 744 m 851 465 l 851 717 l 524 717 l 524 465 l 851 465 m 110 -93 q 332 -22 244 -67 q 472 110 419 24 q 535 338 524 196 l 561 335 q 493 93 550 186 q 344 -48 436 0 q 119 -122 251 -96 l 110 -93 m 1300 14 q 1264 -67 1290 -46 q 1169 -90 1238 -87 q 1058 -93 1094 -93 q 947 -90 1022 -93 q 841 -64 872 -87 q 810 24 810 -40 l 810 338 l 838 338 l 838 24 q 859 -42 838 -26 q 939 -61 881 -58 q 1067 -64 983 -64 q 1169 -62 1133 -64 q 1247 -44 1224 -60 q 1276 18 1269 -29 q 1286 150 1283 68 l 1311 138 q 1300 14 1307 64 z "},"兢":{"ha":1389,"x_min":81,"x_max":1314,"o":"m 440 46 q 449 61 449 50 l 449 422 l 324 422 q 270 106 318 231 q 100 -117 222 -18 l 81 -93 q 244 117 196 -4 q 296 422 293 238 l 160 422 l 160 729 l 367 729 l 367 933 l 88 933 l 88 958 l 367 958 l 367 1125 l 392 1125 l 392 958 l 631 958 l 631 933 l 392 933 l 392 729 l 604 729 l 604 422 l 474 422 l 474 56 q 663 169 578 110 l 671 144 q 458 21 567 75 l 440 46 m 1310 -3 q 1294 -59 1308 -40 q 1248 -84 1279 -78 q 1158 -90 1217 -90 q 1117 -89 1131 -90 q 1056 -76 1075 -87 q 1031 -44 1038 -65 q 1025 19 1025 -22 l 1025 422 l 901 422 q 811 102 889 232 q 554 -121 733 -28 l 536 -96 q 732 42 661 -32 q 835 206 803 115 q 878 422 868 296 l 738 422 l 738 729 l 969 729 l 969 932 l 692 932 l 692 957 l 969 957 l 969 1125 l 994 1125 l 994 957 l 1296 957 l 1296 932 l 994 932 l 994 729 l 1224 729 l 1224 422 l 1050 422 l 1050 19 q 1063 -44 1050 -28 q 1115 -61 1075 -60 q 1160 -62 1132 -62 q 1201 -61 1186 -62 q 1263 -48 1244 -58 q 1283 0 1282 -37 q 1286 121 1286 67 l 1286 171 l 1314 158 q 1310 -3 1314 96 m 579 447 l 579 704 l 185 704 l 185 447 l 579 447 m 1199 447 l 1199 704 l 763 704 l 763 447 l 1199 447 z "},"入":{"ha":1389,"x_min":89,"x_max":1301,"o":"m 508 1099 q 649 953 599 1024 q 736 776 713 864 q 944 324 799 547 q 1301 -62 1089 100 l 1282 -87 q 1040 148 1149 17 q 859 406 931 279 q 754 633 788 532 l 735 688 q 703 783 708 765 q 478 309 632 542 q 107 -86 325 76 l 89 -62 q 466 337 311 99 q 689 822 621 575 q 490 1075 643 947 l 508 1099 z "},"全":{"ha":1389,"x_min":75,"x_max":1310,"o":"m 1293 518 q 976 726 1117 611 q 706 1018 835 840 q 430 740 579 860 q 92 517 281 621 l 75 544 q 446 790 274 646 q 729 1100 618 933 l 751 1083 l 722 1043 q 994 749 854 867 q 1310 547 1133 631 l 1293 518 m 1278 -61 l 110 -61 l 110 -31 l 681 -31 l 681 283 l 269 283 l 269 314 l 681 314 l 681 581 l 338 581 l 338 611 l 1029 611 l 1029 581 l 711 581 l 711 314 l 1114 314 l 1114 283 l 711 283 l 711 -31 l 1278 -31 l 1278 -61 z "},"八":{"ha":1389,"x_min":97,"x_max":1294,"o":"m 1269 -112 q 1059 236 1138 68 q 940 598 981 404 q 883 1056 899 792 l 913 1057 q 962 624 924 814 q 1080 260 1000 435 q 1294 -92 1160 86 l 1269 -112 m 97 -93 q 322 233 244 75 q 433 571 400 392 q 479 1022 465 750 l 508 1021 q 458 557 496 746 q 342 209 421 368 q 119 -115 263 50 l 97 -93 z "},"公":{"ha":1389,"x_min":86,"x_max":1300,"o":"m 1278 413 q 1030 699 1135 550 q 857 1053 925 849 l 885 1063 q 1300 444 1006 693 l 1278 413 m 86 433 q 309 737 197 563 q 481 1047 421 911 l 508 1035 q 329 714 440 892 q 113 411 218 536 l 86 433 m 1222 -114 q 1111 47 1154 -6 q 765 15 931 26 q 374 -11 599 3 l 311 -15 l 297 22 q 333 49 319 26 q 672 713 585 450 l 704 697 q 558 376 646 539 q 351 19 471 214 q 1090 75 794 40 q 900 326 1028 168 l 924 346 q 1078 147 1006 246 q 1250 -92 1151 49 l 1222 -114 z "},"六":{"ha":1389,"x_min":99,"x_max":1299,"o":"m 725 792 q 644 936 694 856 q 544 1085 594 1017 l 567 1101 q 666 955 614 1036 q 753 808 718 874 l 725 792 m 1283 669 l 99 669 l 99 700 l 1283 700 l 1283 669 m 99 -74 q 314 205 199 35 q 499 510 429 375 l 525 496 q 340 192 457 365 q 124 -96 222 18 l 99 -74 m 1271 -79 q 1069 215 1190 53 q 844 490 947 378 l 867 510 q 1089 241 967 403 q 1299 -57 1211 79 l 1271 -79 z "}}}
